<?xml version="1.0" encoding="UTF-8" standalone="no"?>
<!DOCTYPE svg PUBLIC "-//W3C//DTD SVG 1.1//EN"
 "http://www.w3.org/Graphics/SVG/1.1/DTD/svg11.dtd">
<!-- Generated by graphviz version 16.0.0 (20260814.1018)
 -->
<!-- Title: cv::dnn::cuda4dnn::csl::CUDAException Pages: 1 -->
<!--zoomable 90 -->

<svg id="main" version="1.1" xmlns="http://www.w3.org/2000/svg" xmlns:xlink="http://www.w3.org/1999/xlink" xml:space="preserve">

<style type="text/css"><![CDATA[
.node, .edge {opacity: 0.7;}
.node.selected, .edge.selected {opacity: 1;}
.edge:hover path { stroke: red; }
.edge:hover polygon { stroke: red; fill: red; }
]]></style>

<defs>
  <circle id="rim" cx="0" cy="0" r="7"/>
  <circle id="rim2" cx="0" cy="0" r="3.5"/>
  <g id="zoomPlus">
    <use xlink:href="#rim" fill="#404040"><set attributeName="fill" to="#808080" begin="zoomplus.mouseover" end="zoomplus.mouseout"/></use>
    <path d="M-4,0h8M0,-4v8" fill="none" stroke="white" stroke-width="1.5" pointer-events="none"/>
  </g>
  <g id="zoomMin">
    <use xlink:href="#rim" fill="#404040"><set attributeName="fill" to="#808080" begin="zoomminus.mouseover" end="zoomminus.mouseout"/></use>
    <path d="M-4,0h8" fill="none" stroke="white" stroke-width="1.5" pointer-events="none"/>
  </g>
  <g id="arrowUp" transform="translate(30 24)">
    <use xlink:href="#rim"/>
    <path pointer-events="none" fill="none" stroke="white" stroke-width="1.5" d="M0,-3.0v7 M-2.5,-0.5L0,-3.0L2.5,-0.5"/>
  </g>
  <g id="arrowRight" transform="rotate(90) translate(36 -43)">
    <use xlink:href="#rim"/>
    <path pointer-events="none" fill="none" stroke="white" stroke-width="1.5" d="M0,-3.0v7 M-2.5,-0.5L0,-3.0L2.5,-0.5"/>
  </g>
  <g id="arrowDown" transform="rotate(180) translate(-30 -48)">
    <use xlink:href="#rim"/>
    <path pointer-events="none" fill="none" stroke="white" stroke-width="1.5" d="M0,-3.0v7 M-2.5,-0.5L0,-3.0L2.5,-0.5"/>
  </g>
  <g id="arrowLeft" transform="rotate(270) translate(-36 17)">
    <use xlink:href="#rim"/>
    <path pointer-events="none" fill="none" stroke="white" stroke-width="1.5" d="M0,-3.0v7 M-2.5,-0.5L0,-3.0L2.5,-0.5"/>
  </g>
  <g id="resetDef">
    <use xlink:href="#rim2" fill="#404040"><set attributeName="fill" to="#808080" begin="reset.mouseover" end="reset.mouseout"/></use>
  </g>
</defs>
<script type="application/ecmascript" xlink:href="svg.min.js"/>
<svg id="graph" class="graph" data-view-width="526" data-view-height="90" data-section-id="dynsection-0">
<g id="viewport">
<title>cv::dnn::cuda4dnn::csl::CUDAException</title>
<!-- Node1 -->
<g id="Node000001" class="node">
<title>Node1</title>
<g id="a_Node000001"><a xlink:title="exception class for errors thrown by the CUDA APIs">
<polygon fill="#999999" stroke="#666666" points="333,-57 225.5,-57 225.5,-25 333,-25 333,-57"/>
<text xml:space="preserve" text-anchor="start" x="233.5" y="-43.5" font-family="Helvetica,sans-Serif" font-size="10.00">cv::dnn::cuda4dnn::</text>
<text xml:space="preserve" text-anchor="middle" x="279.25" y="-31.5" font-family="Helvetica,sans-Serif" font-size="10.00">csl::CUDAException</text>
</a>
</g>
</g>
<!-- Node4 -->
<g id="Node000004" class="node">
<title>Node4</title>
<g id="a_Node000004"><a xlink:href="classcv_1_1dnn_1_1cuda4dnn_1_1csl_1_1cublas_1_1cu_b_l_a_s_exception.html" target="_top" xlink:title="exception class for errors thrown by the cuBLAS API">
<polygon fill="white" stroke="#666666" points="517.75,-82 369,-82 369,-50 517.75,-50 517.75,-82"/>
<text xml:space="preserve" text-anchor="start" x="377" y="-68.5" font-family="Helvetica,sans-Serif" font-size="10.00">cv::dnn::cuda4dnn::</text>
<text xml:space="preserve" text-anchor="middle" x="443.38" y="-56.5" font-family="Helvetica,sans-Serif" font-size="10.00">csl::cublas::cuBLASException</text>
</a>
</g>
</g>
<!-- Node1&#45;&gt;Node4 -->
<g id="edge3_Node000001_Node000004" class="edge">
<title>Node1&#45;&gt;Node4</title>
<g id="a_edge3_Node000001_Node000004"><a xlink:title=" ">
<path fill="none" stroke="#63b8ff" d="M344.66,-50.93C352.51,-52.14 360.59,-53.39 368.57,-54.62"/>
<polygon fill="#63b8ff" stroke="#63b8ff" points="345.25,-47.48 334.83,-49.42 344.18,-54.4 345.25,-47.48"/>
</a>
</g>
</g>
<!-- Node5 -->
<g id="Node000005" class="node">
<title>Node5</title>
<g id="a_Node000005"><a xlink:href="classcv_1_1dnn_1_1cuda4dnn_1_1csl_1_1cudnn_1_1cu_d_n_n_exception.html" target="_top" xlink:title="exception class for errors thrown by the cuDNN API">
<polygon fill="white" stroke="#666666" points="515.12,-32 371.62,-32 371.62,0 515.12,0 515.12,-32"/>
<text xml:space="preserve" text-anchor="start" x="379.62" y="-18.5" font-family="Helvetica,sans-Serif" font-size="10.00">cv::dnn::cuda4dnn::</text>
<text xml:space="preserve" text-anchor="middle" x="443.38" y="-6.5" font-family="Helvetica,sans-Serif" font-size="10.00">csl::cudnn::cuDNNException</text>
</a>
</g>
</g>
<!-- Node1&#45;&gt;Node5 -->
<g id="edge4_Node000001_Node000005" class="edge">
<title>Node1&#45;&gt;Node5</title>
<g id="a_edge4_Node000001_Node000005"><a xlink:title=" ">
<path fill="none" stroke="#63b8ff" d="M344.62,-31.07C353.35,-29.73 362.35,-28.34 371.19,-26.98"/>
<polygon fill="#63b8ff" stroke="#63b8ff" points="344.18,-27.6 334.83,-32.58 345.25,-34.52 344.18,-27.6"/>
</a>
</g>
</g>
<!-- Node2 -->
<g id="Node000002" class="node">
<title>Node2</title>
<g id="a_Node000002"><a xlink:href="classcv_1_1_exception.html" target="_top" xlink:title="Class passed to an error.">
<polygon fill="white" stroke="#666666" points="189.5,-51 113.5,-51 113.5,-31 189.5,-31 189.5,-51"/>
<text xml:space="preserve" text-anchor="middle" x="151.5" y="-37.5" font-family="Helvetica,sans-Serif" font-size="10.00">cv::Exception</text>
</a>
</g>
</g>
<!-- Node2&#45;&gt;Node1 -->
<g id="edge1_Node000001_Node000002" class="edge">
<title>Node2&#45;&gt;Node1</title>
<g id="a_edge1_Node000001_Node000002"><a xlink:title=" ">
<path fill="none" stroke="#63b8ff" d="M201.22,-41C209.15,-41 217.39,-41 225.41,-41"/>
<polygon fill="#63b8ff" stroke="#63b8ff" points="201.4,-37.5 191.4,-41 201.4,-44.5 201.4,-37.5"/>
</a>
</g>
</g>
<!-- Node3 -->
<g id="Node000003" class="node">
<title>Node3</title>
<g id="a_Node000003"><a xlink:title=" ">
<polygon fill="white" stroke="#666666" points="77.5,-51 0,-51 0,-31 77.5,-31 77.5,-51"/>
<text xml:space="preserve" text-anchor="middle" x="38.75" y="-37.5" font-family="Helvetica,sans-Serif" font-size="10.00">std::exception</text>
</a>
</g>
</g>
<!-- Node3&#45;&gt;Node2 -->
<g id="edge2_Node000002_Node000003" class="edge">
<title>Node3&#45;&gt;Node2</title>
<g id="a_edge2_Node000002_Node000003"><a xlink:title=" ">
<path fill="none" stroke="#63b8ff" d="M89.35,-41C97.31,-41 105.44,-41 113.07,-41"/>
<polygon fill="#63b8ff" stroke="#63b8ff" points="89.38,-37.5 79.38,-41 89.38,-44.5 89.38,-37.5"/>
</a>
</g>
</g>
</g>
</svg>

<g id="navigator" transform="translate(0 0)" fill="#404254">
  <rect fill="#f2f5e9" fill-opacity="0.5" stroke="#606060" stroke-width=".5" x="0" y="0" width="60" height="60"/>
  <use id="zoomplus" xlink:href="#zoomPlus" x="17" y="9" data-zoom="in"/>
  <use id="zoomminus" xlink:href="#zoomMin" x="42" y="9" data-zoom="out"/>
  <use id="reset" xlink:href="#resetDef" x="30" y="36" data-reset="true"/>
  <use id="arrowup" xlink:href="#arrowUp" x="0" y="0" data-pan-x="0" data-pan-y="-1"/>
  <use id="arrowright" xlink:href="#arrowRight" x="0" y="0" data-pan-x="1" data-pan-y="0"/>
  <use id="arrowdown" xlink:href="#arrowDown" x="0" y="0" data-pan-x="0" data-pan-y="1"/>
  <use id="arrowleft" xlink:href="#arrowLeft" x="0" y="0" data-pan-x="-1" data-pan-y="0"/>
</g>
<svg viewBox="0 0 15 15" width="100%" height="30px" preserveAspectRatio="xMaxYMin meet">
 <g id="arrow_out" transform="scale(0.3 0.3)">
  <a xlink:href="classcv_1_1dnn_1_1cuda4dnn_1_1csl_1_1_c_u_d_a_exception__inherit__graph_org.svg" target="_base">
   <rect id="button" ry="5" rx="5" y="6" x="6" height="38" width="38"
        fill="#f2f5e9" fill-opacity="0.5" stroke="#606060" stroke-width="1.0"/>
   <path id="arrow"
     d="M 11.500037,31.436501 C 11.940474,20.09759 22.043105,11.32322 32.158766,21.979434 L 37.068811,17.246167 C 37.068811,17.246167 37.088388,32 37.088388,32 L 22.160133,31.978069 C 22.160133,31.978069 26.997745,27.140456 26.997745,27.140456 C 18.528582,18.264221 13.291696,25.230495 11.500037,31.436501 z"
     style="fill:#404040;"/>
  </a>
 </g>
</svg>

<style type='text/css'>
<![CDATA[
[data-mouse-over-selected='false'] { opacity: 0.7; }
[data-mouse-over-selected='true']  { opacity: 1.0; }
]]>
</style>
</svg>
