<?xml version="1.0" encoding="UTF-8" standalone="no"?>
<!DOCTYPE svg PUBLIC "-//W3C//DTD SVG 1.1//EN"
 "http://www.w3.org/Graphics/SVG/1.1/DTD/svg11.dtd">
<!-- Generated by graphviz version 16.0.0 (20260814.1018)
 -->
<!-- Title: cv::dnn::GatherElementsLayer Pages: 1 -->
<svg width="157pt" height="208pt"
 viewBox="0.00 0.00 157.00 208.00" xmlns="http://www.w3.org/2000/svg" xmlns:xlink="http://www.w3.org/1999/xlink">
<g id="graph0" class="graph" transform="scale(1 1) rotate(0) translate(4 204)">
<title>cv::dnn::GatherElementsLayer</title>
<!-- Node1 -->
<g id="Node000001" class="node">
<title>Node1</title>
<g id="a_Node000001"><a xlink:title="GatherElements layer GatherElements takes two inputs data and indices of the same rank r &gt;= 1 and an ...">
<polygon fill="#999999" stroke="#666666" points="148.75,-88 0,-88 0,-68 148.75,-68 148.75,-88"/>
<text xml:space="preserve" text-anchor="middle" x="74.38" y="-74.5" font-family="Helvetica,sans-Serif" font-size="10.00">cv::dnn::GatherElementsLayer</text>
</a>
</g>
</g>
<!-- Node4 -->
<g id="Node000004" class="node">
<title>Node4</title>
<g id="a_Node000004"><a xlink:href="classcv_1_1dnn_1_1_c_v___f_i_n_a_l.html" target="_top" xlink:title=" ">
<polygon fill="white" stroke="#666666" points="128.5,-32 20.25,-32 20.25,0 128.5,0 128.5,-32"/>
<text xml:space="preserve" text-anchor="start" x="28.25" y="-18.5" font-family="Helvetica,sans-Serif" font-size="10.00">cv::dnn::CV_FINAL&lt;</text>
<text xml:space="preserve" text-anchor="middle" x="74.38" y="-6.5" font-family="Helvetica,sans-Serif" font-size="10.00"> BaseLayer &gt;</text>
</a>
</g>
</g>
<!-- Node1&#45;&gt;Node4 -->
<g id="edge3_Node000001_Node000004" class="edge">
<title>Node1&#45;&gt;Node4</title>
<g id="a_edge3_Node000001_Node000004"><a xlink:title=" ">
<path fill="none" stroke="#63b8ff" d="M74.38,-56.31C74.38,-48.37 74.38,-39.46 74.38,-32.14"/>
<polygon fill="#63b8ff" stroke="#63b8ff" points="70.88,-56.11 74.38,-66.11 77.88,-56.11 70.88,-56.11"/>
</a>
</g>
</g>
<!-- Node2 -->
<g id="Node000002" class="node">
<title>Node2</title>
<g id="a_Node000002"><a xlink:href="classcv_1_1dnn_1_1_layer.html" target="_top" xlink:title="This interface class allows to build new Layers &#45; are building blocks of networks.">
<polygon fill="white" stroke="#666666" points="113.5,-144 35.25,-144 35.25,-124 113.5,-124 113.5,-144"/>
<text xml:space="preserve" text-anchor="middle" x="74.38" y="-130.5" font-family="Helvetica,sans-Serif" font-size="10.00">cv::dnn::Layer</text>
</a>
</g>
</g>
<!-- Node2&#45;&gt;Node1 -->
<g id="edge1_Node000001_Node000002" class="edge">
<title>Node2&#45;&gt;Node1</title>
<g id="a_edge1_Node000001_Node000002"><a xlink:title=" ">
<path fill="none" stroke="#63b8ff" d="M74.38,-112.13C74.38,-103.9 74.38,-94.85 74.38,-88.3"/>
<polygon fill="#63b8ff" stroke="#63b8ff" points="70.88,-112.08 74.38,-122.08 77.88,-112.08 70.88,-112.08"/>
</a>
</g>
</g>
<!-- Node3 -->
<g id="Node000003" class="node">
<title>Node3</title>
<g id="a_Node000003"><a xlink:href="classcv_1_1dnn_1_1_layer_info.html" target="_top" xlink:title="Backend&#45;independent description of a graph operation (node).">
<polygon fill="white" stroke="#666666" points="121.75,-200 27,-200 27,-180 121.75,-180 121.75,-200"/>
<text xml:space="preserve" text-anchor="middle" x="74.38" y="-186.5" font-family="Helvetica,sans-Serif" font-size="10.00">cv::dnn::LayerInfo</text>
</a>
</g>
</g>
<!-- Node3&#45;&gt;Node2 -->
<g id="edge2_Node000002_Node000003" class="edge">
<title>Node3&#45;&gt;Node2</title>
<g id="a_edge2_Node000002_Node000003"><a xlink:title=" ">
<path fill="none" stroke="#63b8ff" d="M74.38,-168.13C74.38,-159.9 74.38,-150.85 74.38,-144.3"/>
<polygon fill="#63b8ff" stroke="#63b8ff" points="70.88,-168.08 74.38,-178.08 77.88,-168.08 70.88,-168.08"/>
</a>
</g>
</g>
</g>
</svg>
