<?xml version="1.0" encoding="UTF-8" standalone="no"?>
<!DOCTYPE svg PUBLIC "-//W3C//DTD SVG 1.1//EN"
 "http://www.w3.org/Graphics/SVG/1.1/DTD/svg11.dtd">
<!-- Generated by graphviz version 16.0.0 (20260814.1018)
 -->
<!-- Title: org.opencv.core.MatOfRotatedRect Pages: 1 -->
<svg width="179pt" height="140pt"
 viewBox="0.00 0.00 179.00 140.00" xmlns="http://www.w3.org/2000/svg" xmlns:xlink="http://www.w3.org/1999/xlink">
<g id="graph0" class="graph" transform="scale(1 1) rotate(0) translate(4 136)">
<title>org.opencv.core.MatOfRotatedRect</title>
<!-- Node1 -->
<g id="Node000001" class="node">
<title>Node1</title>
<g id="a_Node000001"><a xlink:title=" ">
<polygon fill="#999999" stroke="#666666" points="170.5,-20 0,-20 0,0 170.5,0 170.5,-20"/>
<text xml:space="preserve" text-anchor="middle" x="85.25" y="-6.5" font-family="Helvetica,sans-Serif" font-size="10.00">org.opencv.core.MatOfRotatedRect</text>
</a>
</g>
</g>
<!-- Node2 -->
<g id="Node000002" class="node">
<title>Node2</title>
<g id="a_Node000002"><a xlink:href="classorg_1_1opencv_1_1core_1_1_mat.html" target="_top" xlink:title=" ">
<polygon fill="white" stroke="#666666" points="137.5,-76 33,-76 33,-56 137.5,-56 137.5,-76"/>
<text xml:space="preserve" text-anchor="middle" x="85.25" y="-62.5" font-family="Helvetica,sans-Serif" font-size="10.00">org.opencv.core.Mat</text>
</a>
</g>
</g>
<!-- Node2&#45;&gt;Node1 -->
<g id="edge1_Node000001_Node000002" class="edge">
<title>Node2&#45;&gt;Node1</title>
<g id="a_edge1_Node000001_Node000002"><a xlink:title=" ">
<path fill="none" stroke="#63b8ff" d="M85.25,-44.13C85.25,-35.9 85.25,-26.85 85.25,-20.3"/>
<polygon fill="#63b8ff" stroke="#63b8ff" points="81.75,-44.08 85.25,-54.08 88.75,-44.08 81.75,-44.08"/>
</a>
</g>
</g>
<!-- Node3 -->
<g id="Node000003" class="node">
<title>Node3</title>
<g id="a_Node000003"><a xlink:href="classorg_1_1opencv_1_1core_1_1_cleanable_mat.html" target="_top" xlink:title=" ">
<polygon fill="white" stroke="#666666" points="159.25,-132 11.25,-132 11.25,-112 159.25,-112 159.25,-132"/>
<text xml:space="preserve" text-anchor="middle" x="85.25" y="-118.5" font-family="Helvetica,sans-Serif" font-size="10.00">org.opencv.core.CleanableMat</text>
</a>
</g>
</g>
<!-- Node3&#45;&gt;Node2 -->
<g id="edge2_Node000002_Node000003" class="edge">
<title>Node3&#45;&gt;Node2</title>
<g id="a_edge2_Node000002_Node000003"><a xlink:title=" ">
<path fill="none" stroke="#63b8ff" d="M85.25,-100.13C85.25,-91.9 85.25,-82.85 85.25,-76.3"/>
<polygon fill="#63b8ff" stroke="#63b8ff" points="81.75,-100.08 85.25,-110.08 88.75,-100.08 81.75,-100.08"/>
</a>
</g>
</g>
</g>
</svg>
