<?xml version="1.0" encoding="UTF-8" standalone="no"?>
<!DOCTYPE svg PUBLIC "-//W3C//DTD SVG 1.1//EN"
 "http://www.w3.org/Graphics/SVG/1.1/DTD/svg11.dtd">
<!-- Generated by graphviz version 16.0.0 (20260814.1018)
 -->
<!-- Title: C:/Users/YARADEYENISAIZAGUIRR/opencv/modules/java/generator/src/cpp/common.h Pages: 1 -->
<!--zoomable 144 -->

<svg id="main" version="1.1" xmlns="http://www.w3.org/2000/svg" xmlns:xlink="http://www.w3.org/1999/xlink" xml:space="preserve">

<style type="text/css"><![CDATA[
.node, .edge {opacity: 0.7;}
.node.selected, .edge.selected {opacity: 1;}
.edge:hover path { stroke: red; }
.edge:hover polygon { stroke: red; fill: red; }
]]></style>

<defs>
  <circle id="rim" cx="0" cy="0" r="7"/>
  <circle id="rim2" cx="0" cy="0" r="3.5"/>
  <g id="zoomPlus">
    <use xlink:href="#rim" fill="#404040"><set attributeName="fill" to="#808080" begin="zoomplus.mouseover" end="zoomplus.mouseout"/></use>
    <path d="M-4,0h8M0,-4v8" fill="none" stroke="white" stroke-width="1.5" pointer-events="none"/>
  </g>
  <g id="zoomMin">
    <use xlink:href="#rim" fill="#404040"><set attributeName="fill" to="#808080" begin="zoomminus.mouseover" end="zoomminus.mouseout"/></use>
    <path d="M-4,0h8" fill="none" stroke="white" stroke-width="1.5" pointer-events="none"/>
  </g>
  <g id="arrowUp" transform="translate(30 24)">
    <use xlink:href="#rim"/>
    <path pointer-events="none" fill="none" stroke="white" stroke-width="1.5" d="M0,-3.0v7 M-2.5,-0.5L0,-3.0L2.5,-0.5"/>
  </g>
  <g id="arrowRight" transform="rotate(90) translate(36 -43)">
    <use xlink:href="#rim"/>
    <path pointer-events="none" fill="none" stroke="white" stroke-width="1.5" d="M0,-3.0v7 M-2.5,-0.5L0,-3.0L2.5,-0.5"/>
  </g>
  <g id="arrowDown" transform="rotate(180) translate(-30 -48)">
    <use xlink:href="#rim"/>
    <path pointer-events="none" fill="none" stroke="white" stroke-width="1.5" d="M0,-3.0v7 M-2.5,-0.5L0,-3.0L2.5,-0.5"/>
  </g>
  <g id="arrowLeft" transform="rotate(270) translate(-36 17)">
    <use xlink:href="#rim"/>
    <path pointer-events="none" fill="none" stroke="white" stroke-width="1.5" d="M0,-3.0v7 M-2.5,-0.5L0,-3.0L2.5,-0.5"/>
  </g>
  <g id="resetDef">
    <use xlink:href="#rim2" fill="#404040"><set attributeName="fill" to="#808080" begin="reset.mouseover" end="reset.mouseout"/></use>
  </g>
</defs>
<script type="application/ecmascript" xlink:href="svg.min.js"/>
<svg id="graph" class="graph" data-view-width="1622" data-view-height="144" data-section-id="dynsection-1">
<g id="viewport">
<title>C:/Users/YARADEYENISAIZAGUIRR/opencv/modules/java/generator/src/cpp/common.h</title>
<!-- Node1 -->
<g id="Node000001" class="node">
<title>Node1</title>
<g id="a_Node000001"><a xlink:title=" ">
<polygon fill="#999999" stroke="#666666" points="900.25,-136 714,-136 714,-92 900.25,-92 900.25,-136"/>
<text xml:space="preserve" text-anchor="start" x="722" y="-122.5" font-family="Helvetica,sans-Serif" font-size="10.00">C:/Users/YARADEYENISAIZAGUIRR</text>
<text xml:space="preserve" text-anchor="start" x="722" y="-110.5" font-family="Helvetica,sans-Serif" font-size="10.00">/opencv/modules/java/generator</text>
<text xml:space="preserve" text-anchor="middle" x="807.12" y="-98.5" font-family="Helvetica,sans-Serif" font-size="10.00">/src/cpp/common.h</text>
</a>
</g>
</g>
<!-- Node2 -->
<g id="Node000002" class="node">
<title>Node2</title>
<g id="a_Node000002"><a xlink:href="core__manual_8cpp.html" target="_top" xlink:title=" ">
<polygon fill="white" stroke="#666666" points="186.25,-50 0,-50 0,-6 186.25,-6 186.25,-50"/>
<text xml:space="preserve" text-anchor="start" x="8" y="-36.5" font-family="Helvetica,sans-Serif" font-size="10.00">C:/Users/YARADEYENISAIZAGUIRR</text>
<text xml:space="preserve" text-anchor="start" x="8" y="-24.5" font-family="Helvetica,sans-Serif" font-size="10.00">/opencv/modules/core/misc</text>
<text xml:space="preserve" text-anchor="middle" x="93.12" y="-12.5" font-family="Helvetica,sans-Serif" font-size="10.00">/java/src/cpp/core_manual.cpp</text>
</a>
</g>
</g>
<!-- Node1&#45;&gt;Node2 -->
<g id="edge1_Node000001_Node000002" class="edge">
<title>Node1&#45;&gt;Node2</title>
<g id="a_edge1_Node000001_Node000002"><a xlink:title=" ">
<path fill="none" stroke="#63b8ff" d="M702.48,-108.54C580.05,-102.11 371.64,-87.36 195.12,-56 186.47,-54.46 177.47,-52.55 168.57,-50.46"/>
<polygon fill="#63b8ff" stroke="#63b8ff" points="702.01,-112.02 712.17,-109.04 702.37,-105.03 702.01,-112.02"/>
</a>
</g>
</g>
<!-- Node3 -->
<g id="Node000003" class="node">
<title>Node3</title>
<g id="a_Node000003"><a xlink:href="features__converters_8cpp.html" target="_top" xlink:title=" ">
<polygon fill="white" stroke="#666666" points="390.25,-56 204,-56 204,0 390.25,0 390.25,-56"/>
<text xml:space="preserve" text-anchor="start" x="212" y="-42.5" font-family="Helvetica,sans-Serif" font-size="10.00">C:/Users/YARADEYENISAIZAGUIRR</text>
<text xml:space="preserve" text-anchor="start" x="212" y="-30.5" font-family="Helvetica,sans-Serif" font-size="10.00">/opencv/modules/features</text>
<text xml:space="preserve" text-anchor="start" x="212" y="-18.5" font-family="Helvetica,sans-Serif" font-size="10.00">/misc/java/src/cpp/features</text>
<text xml:space="preserve" text-anchor="middle" x="297.12" y="-6.5" font-family="Helvetica,sans-Serif" font-size="10.00">_converters.cpp</text>
</a>
</g>
</g>
<!-- Node1&#45;&gt;Node3 -->
<g id="edge2_Node000001_Node000003" class="edge">
<title>Node1&#45;&gt;Node3</title>
<g id="a_edge2_Node000001_Node000003"><a xlink:title=" ">
<path fill="none" stroke="#63b8ff" d="M702.64,-101.9C619.86,-92.27 501.52,-76.63 399.12,-56 396.34,-55.44 393.52,-54.85 390.68,-54.23"/>
<polygon fill="#63b8ff" stroke="#63b8ff" points="701.98,-105.35 712.32,-103.02 702.78,-98.4 701.98,-105.35"/>
</a>
</g>
</g>
<!-- Node4 -->
<g id="Node000004" class="node">
<title>Node4</title>
<g id="a_Node000004"><a xlink:href="_cleanable_mat_8cpp.html" target="_top" xlink:title=" ">
<polygon fill="white" stroke="#666666" points="594.25,-50 408,-50 408,-6 594.25,-6 594.25,-50"/>
<text xml:space="preserve" text-anchor="start" x="416" y="-36.5" font-family="Helvetica,sans-Serif" font-size="10.00">C:/Users/YARADEYENISAIZAGUIRR</text>
<text xml:space="preserve" text-anchor="start" x="416" y="-24.5" font-family="Helvetica,sans-Serif" font-size="10.00">/opencv/modules/java/generator</text>
<text xml:space="preserve" text-anchor="middle" x="501.12" y="-12.5" font-family="Helvetica,sans-Serif" font-size="10.00">/src/cpp/CleanableMat.cpp</text>
</a>
</g>
</g>
<!-- Node1&#45;&gt;Node4 -->
<g id="edge3_Node000001_Node000004" class="edge">
<title>Node1&#45;&gt;Node4</title>
<g id="a_edge3_Node000001_Node000004"><a xlink:title=" ">
<path fill="none" stroke="#63b8ff" d="M718.14,-88.57C674.19,-76.51 621.64,-62.08 579.26,-50.45"/>
<polygon fill="#63b8ff" stroke="#63b8ff" points="717.09,-91.91 727.66,-91.19 718.94,-85.16 717.09,-91.91"/>
</a>
</g>
</g>
<!-- Node5 -->
<g id="Node000005" class="node">
<title>Node5</title>
<g id="a_Node000005"><a xlink:href="_mat_8cpp.html" target="_top" xlink:title=" ">
<polygon fill="white" stroke="#666666" points="798.25,-50 612,-50 612,-6 798.25,-6 798.25,-50"/>
<text xml:space="preserve" text-anchor="start" x="620" y="-36.5" font-family="Helvetica,sans-Serif" font-size="10.00">C:/Users/YARADEYENISAIZAGUIRR</text>
<text xml:space="preserve" text-anchor="start" x="620" y="-24.5" font-family="Helvetica,sans-Serif" font-size="10.00">/opencv/modules/java/generator</text>
<text xml:space="preserve" text-anchor="middle" x="705.12" y="-12.5" font-family="Helvetica,sans-Serif" font-size="10.00">/src/cpp/Mat.cpp</text>
</a>
</g>
</g>
<!-- Node1&#45;&gt;Node5 -->
<g id="edge4_Node000001_Node000005" class="edge">
<title>Node1&#45;&gt;Node5</title>
<g id="a_edge4_Node000001_Node000005"><a xlink:title=" ">
<path fill="none" stroke="#63b8ff" d="M772.51,-84.49C758.95,-73.33 743.66,-60.74 731.08,-50.37"/>
<polygon fill="#63b8ff" stroke="#63b8ff" points="770.01,-86.97 779.95,-90.62 774.46,-81.56 770.01,-86.97"/>
</a>
</g>
</g>
<!-- Node6 -->
<g id="Node000006" class="node">
<title>Node6</title>
<g id="a_Node000006"><a xlink:href="converters_8cpp.html" target="_top" xlink:title=" ">
<polygon fill="white" stroke="#666666" points="1002.25,-50 816,-50 816,-6 1002.25,-6 1002.25,-50"/>
<text xml:space="preserve" text-anchor="start" x="824" y="-36.5" font-family="Helvetica,sans-Serif" font-size="10.00">C:/Users/YARADEYENISAIZAGUIRR</text>
<text xml:space="preserve" text-anchor="start" x="824" y="-24.5" font-family="Helvetica,sans-Serif" font-size="10.00">/opencv/modules/java/generator</text>
<text xml:space="preserve" text-anchor="middle" x="909.12" y="-12.5" font-family="Helvetica,sans-Serif" font-size="10.00">/src/cpp/converters.cpp</text>
</a>
</g>
</g>
<!-- Node1&#45;&gt;Node6 -->
<g id="edge5_Node000001_Node000006" class="edge">
<title>Node1&#45;&gt;Node6</title>
<g id="a_edge5_Node000001_Node000006"><a xlink:title=" ">
<path fill="none" stroke="#63b8ff" d="M841.74,-84.49C855.3,-73.33 870.59,-60.74 883.17,-50.37"/>
<polygon fill="#63b8ff" stroke="#63b8ff" points="839.79,-81.56 834.3,-90.62 844.24,-86.97 839.79,-81.56"/>
</a>
</g>
</g>
<!-- Node7 -->
<g id="Node000007" class="node">
<title>Node7</title>
<g id="a_Node000007"><a xlink:href="jni__part_8cpp.html" target="_top" xlink:title=" ">
<polygon fill="white" stroke="#666666" points="1206.25,-50 1020,-50 1020,-6 1206.25,-6 1206.25,-50"/>
<text xml:space="preserve" text-anchor="start" x="1028" y="-36.5" font-family="Helvetica,sans-Serif" font-size="10.00">C:/Users/YARADEYENISAIZAGUIRR</text>
<text xml:space="preserve" text-anchor="start" x="1028" y="-24.5" font-family="Helvetica,sans-Serif" font-size="10.00">/opencv/modules/java/generator</text>
<text xml:space="preserve" text-anchor="middle" x="1113.12" y="-12.5" font-family="Helvetica,sans-Serif" font-size="10.00">/src/cpp/jni_part.cpp</text>
</a>
</g>
</g>
<!-- Node1&#45;&gt;Node7 -->
<g id="edge6_Node000001_Node000007" class="edge">
<title>Node1&#45;&gt;Node7</title>
<g id="a_edge6_Node000001_Node000007"><a xlink:title=" ">
<path fill="none" stroke="#63b8ff" d="M896.11,-88.57C940.06,-76.51 992.61,-62.08 1034.99,-50.45"/>
<polygon fill="#63b8ff" stroke="#63b8ff" points="895.31,-85.16 886.59,-91.19 897.16,-91.91 895.31,-85.16"/>
</a>
</g>
</g>
<!-- Node8 -->
<g id="Node000008" class="node">
<title>Node8</title>
<g id="a_Node000008"><a xlink:href="listconverters_8cpp.html" target="_top" xlink:title=" ">
<polygon fill="white" stroke="#666666" points="1410.25,-50 1224,-50 1224,-6 1410.25,-6 1410.25,-50"/>
<text xml:space="preserve" text-anchor="start" x="1232" y="-36.5" font-family="Helvetica,sans-Serif" font-size="10.00">C:/Users/YARADEYENISAIZAGUIRR</text>
<text xml:space="preserve" text-anchor="start" x="1232" y="-24.5" font-family="Helvetica,sans-Serif" font-size="10.00">/opencv/modules/java/generator</text>
<text xml:space="preserve" text-anchor="middle" x="1317.12" y="-12.5" font-family="Helvetica,sans-Serif" font-size="10.00">/src/cpp/listconverters.cpp</text>
</a>
</g>
</g>
<!-- Node1&#45;&gt;Node8 -->
<g id="edge7_Node000001_Node000008" class="edge">
<title>Node1&#45;&gt;Node8</title>
<g id="a_edge7_Node000001_Node000008"><a xlink:title=" ">
<path fill="none" stroke="#63b8ff" d="M911.61,-101.9C994.39,-92.27 1112.73,-76.63 1215.12,-56 1223.21,-54.37 1231.6,-52.48 1239.94,-50.47"/>
<polygon fill="#63b8ff" stroke="#63b8ff" points="911.47,-98.4 901.93,-103.02 912.27,-105.35 911.47,-98.4"/>
</a>
</g>
</g>
<!-- Node9 -->
<g id="Node000009" class="node">
<title>Node9</title>
<g id="a_Node000009"><a xlink:href="opencv__java_8cpp.html" target="_top" xlink:title=" ">
<polygon fill="white" stroke="#666666" points="1614.25,-50 1428,-50 1428,-6 1614.25,-6 1614.25,-50"/>
<text xml:space="preserve" text-anchor="start" x="1436" y="-36.5" font-family="Helvetica,sans-Serif" font-size="10.00">C:/Users/YARADEYENISAIZAGUIRR</text>
<text xml:space="preserve" text-anchor="start" x="1436" y="-24.5" font-family="Helvetica,sans-Serif" font-size="10.00">/opencv/modules/java/generator</text>
<text xml:space="preserve" text-anchor="middle" x="1521.12" y="-12.5" font-family="Helvetica,sans-Serif" font-size="10.00">/src/cpp/opencv_java.cpp</text>
</a>
</g>
</g>
<!-- Node1&#45;&gt;Node9 -->
<g id="edge8_Node000001_Node000009" class="edge">
<title>Node1&#45;&gt;Node9</title>
<g id="a_edge8_Node000001_Node000009"><a xlink:title=" ">
<path fill="none" stroke="#63b8ff" d="M911.77,-108.54C1034.2,-102.11 1242.61,-87.36 1419.12,-56 1427.78,-54.46 1436.78,-52.55 1445.68,-50.46"/>
<polygon fill="#63b8ff" stroke="#63b8ff" points="911.88,-105.03 902.08,-109.04 912.24,-112.02 911.88,-105.03"/>
</a>
</g>
</g>
</g>
</svg>

<g id="navigator" transform="translate(0 0)" fill="#404254">
  <rect fill="#f2f5e9" fill-opacity="0.5" stroke="#606060" stroke-width=".5" x="0" y="0" width="60" height="60"/>
  <use id="zoomplus" xlink:href="#zoomPlus" x="17" y="9" data-zoom="in"/>
  <use id="zoomminus" xlink:href="#zoomMin" x="42" y="9" data-zoom="out"/>
  <use id="reset" xlink:href="#resetDef" x="30" y="36" data-reset="true"/>
  <use id="arrowup" xlink:href="#arrowUp" x="0" y="0" data-pan-x="0" data-pan-y="-1"/>
  <use id="arrowright" xlink:href="#arrowRight" x="0" y="0" data-pan-x="1" data-pan-y="0"/>
  <use id="arrowdown" xlink:href="#arrowDown" x="0" y="0" data-pan-x="0" data-pan-y="1"/>
  <use id="arrowleft" xlink:href="#arrowLeft" x="0" y="0" data-pan-x="-1" data-pan-y="0"/>
</g>
<svg viewBox="0 0 15 15" width="100%" height="30px" preserveAspectRatio="xMaxYMin meet">
 <g id="arrow_out" transform="scale(0.3 0.3)">
  <a xlink:href="common_8h__dep__incl_org.svg" target="_base">
   <rect id="button" ry="5" rx="5" y="6" x="6" height="38" width="38"
        fill="#f2f5e9" fill-opacity="0.5" stroke="#606060" stroke-width="1.0"/>
   <path id="arrow"
     d="M 11.500037,31.436501 C 11.940474,20.09759 22.043105,11.32322 32.158766,21.979434 L 37.068811,17.246167 C 37.068811,17.246167 37.088388,32 37.088388,32 L 22.160133,31.978069 C 22.160133,31.978069 26.997745,27.140456 26.997745,27.140456 C 18.528582,18.264221 13.291696,25.230495 11.500037,31.436501 z"
     style="fill:#404040;"/>
  </a>
 </g>
</svg>

<style type='text/css'>
<![CDATA[
[data-mouse-over-selected='false'] { opacity: 0.7; }
[data-mouse-over-selected='true']  { opacity: 1.0; }
]]>
</style>
</svg>
