<?xml version="1.0" encoding="UTF-8" standalone="no"?>
<!DOCTYPE svg PUBLIC "-//W3C//DTD SVG 1.1//EN"
 "http://www.w3.org/Graphics/SVG/1.1/DTD/svg11.dtd">
<!-- Generated by graphviz version 16.0.0 (20260814.1018)
 -->
<!-- Title: C:/Users/YARADEYENISAIZAGUIRR/opencv/modules/imgcodecs/src/grfmt_base.cpp Pages: 1 -->
<svg width="1286pt" height="232pt"
 viewBox="0.00 0.00 1286.00 232.00" xmlns="http://www.w3.org/2000/svg" xmlns:xlink="http://www.w3.org/1999/xlink">
<g id="graph0" class="graph" transform="scale(1 1) rotate(0) translate(4 228)">
<title>C:/Users/YARADEYENISAIZAGUIRR/opencv/modules/imgcodecs/src/grfmt_base.cpp</title>
<!-- Node1 -->
<g id="Node000001" class="node">
<title>Node1</title>
<g id="a_Node000001"><a xlink:title=" ">
<polygon fill="#999999" stroke="#666666" points="945,-224 758.75,-224 758.75,-180 945,-180 945,-224"/>
<text xml:space="preserve" text-anchor="start" x="766.75" y="-210.5" font-family="Helvetica,sans-Serif" font-size="10.00">C:/Users/YARADEYENISAIZAGUIRR</text>
<text xml:space="preserve" text-anchor="start" x="766.75" y="-198.5" font-family="Helvetica,sans-Serif" font-size="10.00">/opencv/modules/imgcodecs</text>
<text xml:space="preserve" text-anchor="middle" x="851.88" y="-186.5" font-family="Helvetica,sans-Serif" font-size="10.00">/src/grfmt_base.cpp</text>
</a>
</g>
</g>
<!-- Node2 -->
<g id="Node000002" class="node">
<title>Node2</title>
<g id="a_Node000002"><a xlink:href="imgcodecs_2src_2precomp_8hpp.html" target="_top" xlink:title=" ">
<polygon fill="white" stroke="#666666" points="632,-138 559.75,-138 559.75,-118 632,-118 632,-138"/>
<text xml:space="preserve" text-anchor="middle" x="595.88" y="-124.5" font-family="Helvetica,sans-Serif" font-size="10.00">precomp.hpp</text>
</a>
</g>
</g>
<!-- Node1&#45;&gt;Node2 -->
<g id="edge1_Node000001_Node000002" class="edge">
<title>Node1&#45;&gt;Node2</title>
<g id="a_edge1_Node000001_Node000002"><a xlink:title=" ">
<path fill="none" stroke="#63b8ff" d="M775.76,-179.59C731.68,-167.2 677.72,-152.02 640.47,-141.54"/>
<polygon fill="#63b8ff" stroke="#63b8ff" points="641.5,-138.2 630.92,-138.86 639.6,-144.93 641.5,-138.2"/>
</a>
</g>
</g>
<!-- Node68 -->
<g id="Node000068" class="node">
<title>Node68</title>
<g id="a_Node000068"><a xlink:href="grfmt__base_8hpp.html" target="_top" xlink:title=" ">
<polygon fill="white" stroke="#666666" points="931.62,-138 848.12,-138 848.12,-118 931.62,-118 931.62,-138"/>
<text xml:space="preserve" text-anchor="middle" x="889.88" y="-124.5" font-family="Helvetica,sans-Serif" font-size="10.00">grfmt_base.hpp</text>
</a>
</g>
</g>
<!-- Node1&#45;&gt;Node68 -->
<g id="edge11_Node000001_Node000068" class="edge">
<title>Node1&#45;&gt;Node68</title>
<g id="a_edge11_Node000001_Node000068"><a xlink:title=" ">
<path fill="none" stroke="#63b8ff" d="M863.07,-179.79C868.35,-169.78 874.61,-157.93 879.74,-148.19"/>
<polygon fill="#63b8ff" stroke="#63b8ff" points="882.68,-150.13 884.25,-139.65 876.49,-146.86 882.68,-150.13"/>
</a>
</g>
</g>
<!-- Node70 -->
<g id="Node000070" class="node">
<title>Node70</title>
<g id="a_Node000070"><a xlink:href="bitstrm_8hpp.html" target="_top" xlink:title=" ">
<polygon fill="white" stroke="#666666" points="847.25,-76 782.5,-76 782.5,-56 847.25,-56 847.25,-76"/>
<text xml:space="preserve" text-anchor="middle" x="814.88" y="-62.5" font-family="Helvetica,sans-Serif" font-size="10.00">bitstrm.hpp</text>
</a>
</g>
</g>
<!-- Node1&#45;&gt;Node70 -->
<g id="edge17_Node000001_Node000070" class="edge">
<title>Node1&#45;&gt;Node70</title>
<g id="a_edge17_Node000001_Node000070"><a xlink:title=" ">
<path fill="none" stroke="#63b8ff" d="M846.01,-179.77C839,-154.39 827.36,-112.23 820.47,-87.28"/>
<polygon fill="#63b8ff" stroke="#63b8ff" points="823.87,-86.44 817.84,-77.73 817.13,-88.3 823.87,-86.44"/>
</a>
</g>
</g>
<!-- Node74 -->
<g id="Node000074" class="node">
<title>Node74</title>
<g id="a_Node000074"><a xlink:href="logger_8hpp.html" target="_top" xlink:title=" ">
<polygon fill="white" stroke="#666666" points="1155.62,-144 1060.12,-144 1060.12,-112 1155.62,-112 1155.62,-144"/>
<text xml:space="preserve" text-anchor="start" x="1068.12" y="-130.5" font-family="Helvetica,sans-Serif" font-size="10.00">opencv2/core/utils</text>
<text xml:space="preserve" text-anchor="middle" x="1107.88" y="-118.5" font-family="Helvetica,sans-Serif" font-size="10.00">/logger.hpp</text>
</a>
</g>
</g>
<!-- Node1&#45;&gt;Node74 -->
<g id="edge18_Node000001_Node000074" class="edge">
<title>Node1&#45;&gt;Node74</title>
<g id="a_edge18_Node000001_Node000074"><a xlink:title=" ">
<path fill="none" stroke="#63b8ff" d="M927.99,-179.59C966.73,-168.7 1013.09,-155.66 1049.05,-145.55"/>
<polygon fill="#63b8ff" stroke="#63b8ff" points="1049.72,-148.99 1058.4,-142.92 1047.82,-142.25 1049.72,-148.99"/>
</a>
</g>
</g>
<!-- Node3 -->
<g id="Node000003" class="node">
<title>Node3</title>
<g id="a_Node000003"><a xlink:href="imgcodecs_8hpp.html" target="_top" xlink:title=" ">
<polygon fill="#fff0f0" stroke="red" points="121.75,-76 0,-76 0,-56 121.75,-56 121.75,-76"/>
<text xml:space="preserve" text-anchor="middle" x="60.88" y="-62.5" font-family="Helvetica,sans-Serif" font-size="10.00">opencv2/imgcodecs.hpp</text>
</a>
</g>
</g>
<!-- Node2&#45;&gt;Node3 -->
<g id="edge2_Node000002_Node000003" class="edge">
<title>Node2&#45;&gt;Node3</title>
<g id="a_edge2_Node000002_Node000003"><a xlink:title=" ">
<path fill="none" stroke="#63b8ff" d="M559.38,-123.23C482.67,-115.26 298.85,-95.89 133.33,-76.27"/>
<polygon fill="#63b8ff" stroke="#63b8ff" points="133.8,-72.8 123.45,-75.1 132.97,-79.76 133.8,-72.8"/>
</a>
</g>
</g>
<!-- Node57 -->
<g id="Node000057" class="node">
<title>Node57</title>
<g id="a_Node000057"><a xlink:href="utility_8hpp.html" target="_top" xlink:title=" ">
<polygon fill="#fff0f0" stroke="red" points="258.25,-76 139.5,-76 139.5,-56 258.25,-56 258.25,-76"/>
<text xml:space="preserve" text-anchor="middle" x="198.88" y="-62.5" font-family="Helvetica,sans-Serif" font-size="10.00">opencv2/core/utility.hpp</text>
</a>
</g>
</g>
<!-- Node2&#45;&gt;Node57 -->
<g id="edge3_Node000002_Node000057" class="edge">
<title>Node2&#45;&gt;Node57</title>
<g id="a_edge3_Node000002_Node000057"><a xlink:title=" ">
<path fill="none" stroke="#63b8ff" d="M559.59,-121.52C494.08,-111.61 354.96,-90.59 269.92,-77.74"/>
<polygon fill="#63b8ff" stroke="#63b8ff" points="270.45,-74.28 260.04,-76.24 269.41,-81.2 270.45,-74.28"/>
</a>
</g>
</g>
<!-- Node60 -->
<g id="Node000060" class="node">
<title>Node60</title>
<g id="a_Node000060"><a xlink:href="private_8hpp.html" target="_top" xlink:title=" ">
<polygon fill="#fff0f0" stroke="red" points="401.62,-76 276.12,-76 276.12,-56 401.62,-56 401.62,-76"/>
<text xml:space="preserve" text-anchor="middle" x="338.88" y="-62.5" font-family="Helvetica,sans-Serif" font-size="10.00">opencv2/core/private.hpp</text>
</a>
</g>
</g>
<!-- Node2&#45;&gt;Node60 -->
<g id="edge4_Node000002_Node000060" class="edge">
<title>Node2&#45;&gt;Node60</title>
<g id="a_edge4_Node000002_Node000060"><a xlink:title=" ">
<path fill="none" stroke="#63b8ff" d="M559.33,-118.47C515.14,-108.15 440.48,-90.72 390.44,-79.04"/>
<polygon fill="#63b8ff" stroke="#63b8ff" points="391.55,-75.7 381.01,-76.84 389.95,-82.52 391.55,-75.7"/>
</a>
</g>
</g>
<!-- Node63 -->
<g id="Node000063" class="node">
<title>Node63</title>
<g id="a_Node000063"><a xlink:href="imgproc_8hpp.html" target="_top" xlink:title=" ">
<polygon fill="#fff0f0" stroke="red" points="528.38,-76 419.38,-76 419.38,-56 528.38,-56 528.38,-76"/>
<text xml:space="preserve" text-anchor="middle" x="473.88" y="-62.5" font-family="Helvetica,sans-Serif" font-size="10.00">opencv2/imgproc.hpp</text>
</a>
</g>
</g>
<!-- Node2&#45;&gt;Node63 -->
<g id="edge5_Node000002_Node000063" class="edge">
<title>Node2&#45;&gt;Node63</title>
<g id="a_edge5_Node000002_Node000063"><a xlink:title=" ">
<path fill="none" stroke="#63b8ff" d="M576.81,-117.62C557.03,-107.89 525.83,-92.55 502.96,-81.31"/>
<polygon fill="#63b8ff" stroke="#63b8ff" points="504.68,-78.25 494.16,-76.98 501.59,-84.53 504.68,-78.25"/>
</a>
</g>
</g>
<!-- Node64 -->
<g id="Node000064" class="node">
<title>Node64</title>
<g id="a_Node000064"><a xlink:title=" ">
<polygon fill="#e0e0e0" stroke="#999999" points="593.62,-76 546.12,-76 546.12,-56 593.62,-56 593.62,-76"/>
<text xml:space="preserve" text-anchor="middle" x="569.88" y="-62.5" font-family="Helvetica,sans-Serif" font-size="10.00">stdlib.h</text>
</a>
</g>
</g>
<!-- Node2&#45;&gt;Node64 -->
<g id="edge6_Node000002_Node000064" class="edge">
<title>Node2&#45;&gt;Node64</title>
<g id="a_edge6_Node000002_Node000064"><a xlink:title=" ">
<path fill="none" stroke="#63b8ff" d="M591.81,-117.62C588.2,-109.3 582.82,-96.86 578.28,-86.4"/>
<polygon fill="#63b8ff" stroke="#63b8ff" points="581.61,-85.29 574.43,-77.5 575.19,-88.07 581.61,-85.29"/>
</a>
</g>
</g>
<!-- Node65 -->
<g id="Node000065" class="node">
<title>Node65</title>
<g id="a_Node000065"><a xlink:title=" ">
<polygon fill="#e0e0e0" stroke="#999999" points="741.5,-20 696.25,-20 696.25,0 741.5,0 741.5,-20"/>
<text xml:space="preserve" text-anchor="middle" x="718.88" y="-6.5" font-family="Helvetica,sans-Serif" font-size="10.00">stdio.h</text>
</a>
</g>
</g>
<!-- Node2&#45;&gt;Node65 -->
<g id="edge7_Node000002_Node000065" class="edge">
<title>Node2&#45;&gt;Node65</title>
<g id="a_edge7_Node000002_Node000065"><a xlink:title=" ">
<path fill="none" stroke="#63b8ff" d="M599.95,-117.72C606.73,-103.13 621.5,-74.59 640.88,-56 654.08,-43.34 671.5,-32.85 686.54,-25.19"/>
<polygon fill="#63b8ff" stroke="#63b8ff" points="687.66,-28.54 695.12,-21.02 684.59,-22.25 687.66,-28.54"/>
</a>
</g>
</g>
<!-- Node66 -->
<g id="Node000066" class="node">
<title>Node66</title>
<g id="a_Node000066"><a xlink:title=" ">
<polygon fill="#e0e0e0" stroke="#999999" points="698,-76 649.75,-76 649.75,-56 698,-56 698,-76"/>
<text xml:space="preserve" text-anchor="middle" x="673.88" y="-62.5" font-family="Helvetica,sans-Serif" font-size="10.00">string.h</text>
</a>
</g>
</g>
<!-- Node2&#45;&gt;Node66 -->
<g id="edge8_Node000002_Node000066" class="edge">
<title>Node2&#45;&gt;Node66</title>
<g id="a_edge8_Node000002_Node000066"><a xlink:title=" ">
<path fill="none" stroke="#63b8ff" d="M608.06,-117.62C620.08,-108.38 638.69,-94.07 653.06,-83.01"/>
<polygon fill="#63b8ff" stroke="#63b8ff" points="654.78,-86.1 660.57,-77.23 650.51,-80.55 654.78,-86.1"/>
</a>
</g>
</g>
<!-- Node7 -->
<g id="Node000007" class="node">
<title>Node7</title>
<g id="a_Node000007"><a xlink:title=" ">
<polygon fill="#e0e0e0" stroke="#999999" points="1052.62,-76 1005.12,-76 1005.12,-56 1052.62,-56 1052.62,-76"/>
<text xml:space="preserve" text-anchor="middle" x="1028.88" y="-62.5" font-family="Helvetica,sans-Serif" font-size="10.00">limits.h</text>
</a>
</g>
</g>
<!-- Node2&#45;&gt;Node7 -->
<g id="edge9_Node000002_Node000007" class="edge">
<title>Node2&#45;&gt;Node7</title>
<g id="a_edge9_Node000002_Node000007"><a xlink:title=" ">
<path fill="none" stroke="#63b8ff" d="M632.28,-124.07C701.03,-118.17 854.8,-103.23 993.58,-76.2"/>
<polygon fill="#63b8ff" stroke="#63b8ff" points="994.2,-79.65 1003.33,-74.27 992.84,-72.78 994.2,-79.65"/>
</a>
</g>
</g>
<!-- Node67 -->
<g id="Node000067" class="node">
<title>Node67</title>
<g id="a_Node000067"><a xlink:title=" ">
<polygon fill="#e0e0e0" stroke="#999999" points="764,-76 715.75,-76 715.75,-56 764,-56 764,-76"/>
<text xml:space="preserve" text-anchor="middle" x="739.88" y="-62.5" font-family="Helvetica,sans-Serif" font-size="10.00">ctype.h</text>
</a>
</g>
</g>
<!-- Node2&#45;&gt;Node67 -->
<g id="edge10_Node000002_Node000067" class="edge">
<title>Node2&#45;&gt;Node67</title>
<g id="a_edge10_Node000002_Node000067"><a xlink:title=" ">
<path fill="none" stroke="#63b8ff" d="M618.38,-117.62C642.15,-107.72 679.89,-91.99 707,-80.7"/>
<polygon fill="#63b8ff" stroke="#63b8ff" points="708.25,-83.97 716.14,-76.89 705.56,-77.51 708.25,-83.97"/>
</a>
</g>
</g>
<!-- Node69 -->
<g id="Node000069" class="node">
<title>Node69</title>
<g id="a_Node000069"><a xlink:href="imgcodecs_2src_2utils_8hpp.html" target="_top" xlink:title=" ">
<polygon fill="white" stroke="#666666" points="918.25,-76 865.5,-76 865.5,-56 918.25,-56 918.25,-76"/>
<text xml:space="preserve" text-anchor="middle" x="891.88" y="-62.5" font-family="Helvetica,sans-Serif" font-size="10.00">utils.hpp</text>
</a>
</g>
</g>
<!-- Node68&#45;&gt;Node69 -->
<g id="edge12_Node000068_Node000069" class="edge">
<title>Node68&#45;&gt;Node69</title>
<g id="a_edge12_Node000068_Node000069"><a xlink:title=" ">
<path fill="none" stroke="#63b8ff" d="M890.19,-117.62C890.46,-109.56 890.85,-97.65 891.19,-87.41"/>
<polygon fill="#63b8ff" stroke="#63b8ff" points="894.69,-87.74 891.52,-77.63 887.69,-87.5 894.69,-87.74"/>
</a>
</g>
</g>
<!-- Node68&#45;&gt;Node70 -->
<g id="edge13_Node000068_Node000070" class="edge">
<title>Node68&#45;&gt;Node70</title>
<g id="a_edge13_Node000068_Node000070"><a xlink:title=" ">
<path fill="none" stroke="#63b8ff" d="M878.16,-117.62C866.64,-108.41 848.84,-94.17 835.05,-83.14"/>
<polygon fill="#63b8ff" stroke="#63b8ff" points="837.44,-80.57 827.45,-77.06 833.07,-86.04 837.44,-80.57"/>
</a>
</g>
</g>
<!-- Node71 -->
<g id="Node000071" class="node">
<title>Node71</title>
<g id="a_Node000071"><a xlink:href="exif_8hpp.html" target="_top" xlink:title=" ">
<polygon fill="#fff0f0" stroke="red" points="987.12,-76 936.62,-76 936.62,-56 987.12,-56 987.12,-76"/>
<text xml:space="preserve" text-anchor="middle" x="961.88" y="-62.5" font-family="Helvetica,sans-Serif" font-size="10.00">exif.hpp</text>
</a>
</g>
</g>
<!-- Node68&#45;&gt;Node71 -->
<g id="edge15_Node000068_Node000071" class="edge">
<title>Node68&#45;&gt;Node71</title>
<g id="a_edge15_Node000068_Node000071"><a xlink:title=" ">
<path fill="none" stroke="#63b8ff" d="M901.12,-117.62C912.07,-108.5 928.94,-94.45 942.13,-83.46"/>
<polygon fill="#63b8ff" stroke="#63b8ff" points="944.34,-86.17 949.78,-77.08 939.85,-80.79 944.34,-86.17"/>
</a>
</g>
</g>
<!-- Node70&#45;&gt;Node65 -->
<g id="edge14_Node000070_Node000065" class="edge">
<title>Node70&#45;&gt;Node65</title>
<g id="a_edge14_Node000070_Node000065"><a xlink:title=" ">
<path fill="none" stroke="#63b8ff" d="M798.15,-55.59C783.65,-47.44 762.4,-35.48 745.55,-26"/>
<polygon fill="#63b8ff" stroke="#63b8ff" points="747.48,-23.07 737.05,-21.22 744.05,-29.17 747.48,-23.07"/>
</a>
</g>
</g>
<!-- Node73 -->
<g id="Node000073" class="node">
<title>Node73</title>
<g id="a_Node000073"><a xlink:title=" ">
<polygon fill="#e0e0e0" stroke="#999999" points="1047.62,-20 994.12,-20 994.12,0 1047.62,0 1047.62,-20"/>
<text xml:space="preserve" text-anchor="middle" x="1020.88" y="-6.5" font-family="Helvetica,sans-Serif" font-size="10.00">iostream</text>
</a>
</g>
</g>
<!-- Node71&#45;&gt;Node73 -->
<g id="edge16_Node000071_Node000073" class="edge">
<title>Node71&#45;&gt;Node73</title>
<g id="a_edge16_Node000071_Node000073"><a xlink:title=" ">
<path fill="none" stroke="#63b8ff" d="M972.15,-55.59C980.44,-48.01 992.32,-37.13 1002.28,-28.02"/>
<polygon fill="#63b8ff" stroke="#63b8ff" points="1004.59,-30.65 1009.6,-21.32 999.86,-25.49 1004.59,-30.65"/>
</a>
</g>
</g>
<!-- Node74&#45;&gt;Node7 -->
<g id="edge21_Node000074_Node000007" class="edge">
<title>Node74&#45;&gt;Node7</title>
<g id="a_edge21_Node000074_Node000007"><a xlink:title=" ">
<path fill="none" stroke="#63b8ff" d="M1087.53,-111.55C1076.1,-102.87 1061.85,-92.04 1050.26,-83.24"/>
<polygon fill="#63b8ff" stroke="#63b8ff" points="1052.55,-80.58 1042.47,-77.32 1048.31,-86.16 1052.55,-80.58"/>
</a>
</g>
</g>
<!-- Node74&#45;&gt;Node73 -->
<g id="edge19_Node000074_Node000073" class="edge">
<title>Node74&#45;&gt;Node73</title>
<g id="a_edge19_Node000074_Node000073"><a xlink:title=" ">
<path fill="none" stroke="#63b8ff" d="M1098.88,-111.55C1090.07,-96.83 1075.96,-74.26 1061.88,-56 1054.56,-46.51 1045.68,-36.61 1038.07,-28.51"/>
<polygon fill="#63b8ff" stroke="#63b8ff" points="1040.64,-26.14 1031.19,-21.35 1035.59,-30.99 1040.64,-26.14"/>
</a>
</g>
</g>
<!-- Node56 -->
<g id="Node000056" class="node">
<title>Node56</title>
<g id="a_Node000056"><a xlink:title=" ">
<polygon fill="#e0e0e0" stroke="#999999" points="1160.5,-76 1109.25,-76 1109.25,-56 1160.5,-56 1160.5,-76"/>
<text xml:space="preserve" text-anchor="middle" x="1134.88" y="-62.5" font-family="Helvetica,sans-Serif" font-size="10.00">sstream</text>
</a>
</g>
</g>
<!-- Node74&#45;&gt;Node56 -->
<g id="edge20_Node000074_Node000056" class="edge">
<title>Node74&#45;&gt;Node56</title>
<g id="a_edge20_Node000074_Node000056"><a xlink:title=" ">
<path fill="none" stroke="#63b8ff" d="M1114.83,-111.55C1118.23,-104 1122.36,-94.82 1125.98,-86.77"/>
<polygon fill="#63b8ff" stroke="#63b8ff" points="1129.11,-88.34 1130.02,-77.79 1122.72,-85.47 1129.11,-88.34"/>
</a>
</g>
</g>
<!-- Node75 -->
<g id="Node000075" class="node">
<title>Node75</title>
<g id="a_Node000075"><a xlink:href="logger_8defines_8hpp.html" target="_top" xlink:title=" ">
<polygon fill="white" stroke="#666666" points="1265.62,-20 1170.12,-20 1170.12,0 1265.62,0 1265.62,-20"/>
<text xml:space="preserve" text-anchor="middle" x="1217.88" y="-6.5" font-family="Helvetica,sans-Serif" font-size="10.00">logger.defines.hpp</text>
</a>
</g>
</g>
<!-- Node74&#45;&gt;Node75 -->
<g id="edge22_Node000074_Node000075" class="edge">
<title>Node74&#45;&gt;Node75</title>
<g id="a_edge22_Node000074_Node000075"><a xlink:title=" ">
<path fill="none" stroke="#63b8ff" d="M1129.08,-111.65C1141.61,-102.09 1157.4,-89.14 1169.88,-76 1183.57,-61.57 1196.83,-43.17 1205.92,-29.64"/>
<polygon fill="#63b8ff" stroke="#63b8ff" points="1208.61,-31.92 1211.18,-21.65 1202.76,-28.08 1208.61,-31.92"/>
</a>
</g>
</g>
<!-- Node76 -->
<g id="Node000076" class="node">
<title>Node76</title>
<g id="a_Node000076"><a xlink:href="logtag_8hpp.html" target="_top" xlink:title=" ">
<polygon fill="#fff0f0" stroke="red" points="1278.38,-76 1217.38,-76 1217.38,-56 1278.38,-56 1278.38,-76"/>
<text xml:space="preserve" text-anchor="middle" x="1247.88" y="-62.5" font-family="Helvetica,sans-Serif" font-size="10.00">logtag.hpp</text>
</a>
</g>
</g>
<!-- Node74&#45;&gt;Node76 -->
<g id="edge23_Node000074_Node000076" class="edge">
<title>Node74&#45;&gt;Node76</title>
<g id="a_edge23_Node000074_Node000076"><a xlink:title=" ">
<path fill="none" stroke="#63b8ff" d="M1143.93,-111.55C1166.01,-102.09 1194.03,-90.08 1215.41,-80.91"/>
<polygon fill="#63b8ff" stroke="#63b8ff" points="1216.72,-84.16 1224.53,-77 1213.96,-77.73 1216.72,-84.16"/>
</a>
</g>
</g>
<!-- Node76&#45;&gt;Node75 -->
<g id="edge24_Node000076_Node000075" class="edge">
<title>Node76&#45;&gt;Node75</title>
<g id="a_edge24_Node000076_Node000075"><a xlink:title=" ">
<path fill="none" stroke="#63b8ff" d="M1242.65,-55.59C1238.78,-48.63 1233.37,-38.89 1228.59,-30.29"/>
<polygon fill="#63b8ff" stroke="#63b8ff" points="1231.69,-28.66 1223.78,-21.62 1225.57,-32.06 1231.69,-28.66"/>
</a>
</g>
</g>
</g>
</svg>
