<?xml version="1.0" encoding="UTF-8" standalone="no"?>
<!DOCTYPE svg PUBLIC "-//W3C//DTD SVG 1.1//EN"
 "http://www.w3.org/Graphics/SVG/1.1/DTD/svg11.dtd">
<!-- Generated by graphviz version 16.0.0 (20260814.1018)
 -->
<!-- Title: C:/Users/YARADEYENISAIZAGUIRR/opencv/modules/features/src/matchers_lightglue.cpp Pages: 1 -->
<svg width="1001pt" height="164pt"
 viewBox="0.00 0.00 1001.00 164.00" xmlns="http://www.w3.org/2000/svg" xmlns:xlink="http://www.w3.org/1999/xlink">
<g id="graph0" class="graph" transform="scale(1 1) rotate(0) translate(4 160)">
<title>C:/Users/YARADEYENISAIZAGUIRR/opencv/modules/features/src/matchers_lightglue.cpp</title>
<!-- Node1 -->
<g id="Node000001" class="node">
<title>Node1</title>
<g id="a_Node000001"><a xlink:title=" ">
<polygon fill="#999999" stroke="#666666" points="610,-156 423.75,-156 423.75,-112 610,-112 610,-156"/>
<text xml:space="preserve" text-anchor="start" x="431.75" y="-142.5" font-family="Helvetica,sans-Serif" font-size="10.00">C:/Users/YARADEYENISAIZAGUIRR</text>
<text xml:space="preserve" text-anchor="start" x="431.75" y="-130.5" font-family="Helvetica,sans-Serif" font-size="10.00">/opencv/modules/features</text>
<text xml:space="preserve" text-anchor="middle" x="516.88" y="-118.5" font-family="Helvetica,sans-Serif" font-size="10.00">/src/matchers_lightglue.cpp</text>
</a>
</g>
</g>
<!-- Node2 -->
<g id="Node000002" class="node">
<title>Node2</title>
<g id="a_Node000002"><a xlink:href="features_2src_2precomp_8hpp.html" target="_top" xlink:title=" ">
<polygon fill="white" stroke="#666666" points="553,-76 480.75,-76 480.75,-56 553,-56 553,-76"/>
<text xml:space="preserve" text-anchor="middle" x="516.88" y="-62.5" font-family="Helvetica,sans-Serif" font-size="10.00">precomp.hpp</text>
</a>
</g>
</g>
<!-- Node1&#45;&gt;Node2 -->
<g id="edge1_Node000001_Node000002" class="edge">
<title>Node1&#45;&gt;Node2</title>
<g id="a_edge1_Node000001_Node000002"><a xlink:title=" ">
<path fill="none" stroke="#63b8ff" d="M516.88,-111.75C516.88,-104.13 516.88,-95.53 516.88,-87.93"/>
<polygon fill="#63b8ff" stroke="#63b8ff" points="520.38,-87.93 516.88,-77.93 513.38,-87.93 520.38,-87.93"/>
</a>
</g>
</g>
<!-- Node3 -->
<g id="Node000003" class="node">
<title>Node3</title>
<g id="a_Node000003"><a xlink:href="features_8hpp.html" target="_top" xlink:title=" ">
<polygon fill="#fff0f0" stroke="red" points="109.75,-20 0,-20 0,0 109.75,0 109.75,-20"/>
<text xml:space="preserve" text-anchor="middle" x="54.88" y="-6.5" font-family="Helvetica,sans-Serif" font-size="10.00">opencv2/features.hpp</text>
</a>
</g>
</g>
<!-- Node2&#45;&gt;Node3 -->
<g id="edge2_Node000002_Node000003" class="edge">
<title>Node2&#45;&gt;Node3</title>
<g id="a_edge2_Node000002_Node000003"><a xlink:title=" ">
<path fill="none" stroke="#63b8ff" d="M480.52,-61.26C412.19,-54.16 259.65,-37.94 121.38,-20.42"/>
<polygon fill="#63b8ff" stroke="#63b8ff" points="122.04,-16.98 111.68,-19.19 121.16,-23.92 122.04,-16.98"/>
</a>
</g>
</g>
<!-- Node60 -->
<g id="Node000060" class="node">
<title>Node60</title>
<g id="a_Node000060"><a xlink:href="imgproc_8hpp.html" target="_top" xlink:title=" ">
<polygon fill="#fff0f0" stroke="red" points="236.38,-20 127.38,-20 127.38,0 236.38,0 236.38,-20"/>
<text xml:space="preserve" text-anchor="middle" x="181.88" y="-6.5" font-family="Helvetica,sans-Serif" font-size="10.00">opencv2/imgproc.hpp</text>
</a>
</g>
</g>
<!-- Node2&#45;&gt;Node60 -->
<g id="edge3_Node000002_Node000060" class="edge">
<title>Node2&#45;&gt;Node60</title>
<g id="a_edge3_Node000002_Node000060"><a xlink:title=" ">
<path fill="none" stroke="#63b8ff" d="M480.39,-59.12C424.73,-50.15 317.75,-32.9 248.13,-21.68"/>
<polygon fill="#63b8ff" stroke="#63b8ff" points="248.79,-18.24 238.36,-20.1 247.67,-25.15 248.79,-18.24"/>
</a>
</g>
</g>
<!-- Node61 -->
<g id="Node000061" class="node">
<title>Node61</title>
<g id="a_Node000061"><a xlink:href="geometry_8hpp.html" target="_top" xlink:title=" ">
<polygon fill="#fff0f0" stroke="red" points="369,-20 254.75,-20 254.75,0 369,0 369,-20"/>
<text xml:space="preserve" text-anchor="middle" x="311.88" y="-6.5" font-family="Helvetica,sans-Serif" font-size="10.00">opencv2/geometry.hpp</text>
</a>
</g>
</g>
<!-- Node2&#45;&gt;Node61 -->
<g id="edge4_Node000002_Node000061" class="edge">
<title>Node2&#45;&gt;Node61</title>
<g id="a_edge4_Node000002_Node000061"><a xlink:title=" ">
<path fill="none" stroke="#63b8ff" d="M481.17,-55.59C447.28,-46.67 396.13,-33.19 358.93,-23.39"/>
<polygon fill="#63b8ff" stroke="#63b8ff" points="359.89,-20.03 349.33,-20.87 358.1,-26.8 359.89,-20.03"/>
</a>
</g>
</g>
<!-- Node57 -->
<g id="Node000057" class="node">
<title>Node57</title>
<g id="a_Node000057"><a xlink:href="utility_8hpp.html" target="_top" xlink:title=" ">
<polygon fill="#fff0f0" stroke="red" points="506.25,-20 387.5,-20 387.5,0 506.25,0 506.25,-20"/>
<text xml:space="preserve" text-anchor="middle" x="446.88" y="-6.5" font-family="Helvetica,sans-Serif" font-size="10.00">opencv2/core/utility.hpp</text>
</a>
</g>
</g>
<!-- Node2&#45;&gt;Node57 -->
<g id="edge5_Node000002_Node000057" class="edge">
<title>Node2&#45;&gt;Node57</title>
<g id="a_edge5_Node000002_Node000057"><a xlink:title=" ">
<path fill="none" stroke="#63b8ff" d="M504.68,-55.59C494.54,-47.77 479.88,-36.46 467.86,-27.19"/>
<polygon fill="#63b8ff" stroke="#63b8ff" points="470.18,-24.56 460.13,-21.22 465.91,-30.1 470.18,-24.56"/>
</a>
</g>
</g>
<!-- Node66 -->
<g id="Node000066" class="node">
<title>Node66</title>
<g id="a_Node000066"><a xlink:href="private_8hpp.html" target="_top" xlink:title=" ">
<polygon fill="#fff0f0" stroke="red" points="649.62,-20 524.12,-20 524.12,0 649.62,0 649.62,-20"/>
<text xml:space="preserve" text-anchor="middle" x="586.88" y="-6.5" font-family="Helvetica,sans-Serif" font-size="10.00">opencv2/core/private.hpp</text>
</a>
</g>
</g>
<!-- Node2&#45;&gt;Node66 -->
<g id="edge6_Node000002_Node000066" class="edge">
<title>Node2&#45;&gt;Node66</title>
<g id="a_edge6_Node000002_Node000066"><a xlink:title=" ">
<path fill="none" stroke="#63b8ff" d="M529.07,-55.59C539.21,-47.77 553.87,-36.46 565.89,-27.19"/>
<polygon fill="#63b8ff" stroke="#63b8ff" points="567.84,-30.1 573.62,-21.22 563.57,-24.56 567.84,-30.1"/>
</a>
</g>
</g>
<!-- Node69 -->
<g id="Node000069" class="node">
<title>Node69</title>
<g id="a_Node000069"><a xlink:href="ocl_8hpp.html" target="_top" xlink:title=" ">
<polygon fill="#fff0f0" stroke="red" points="776.38,-20 667.38,-20 667.38,0 776.38,0 776.38,-20"/>
<text xml:space="preserve" text-anchor="middle" x="721.88" y="-6.5" font-family="Helvetica,sans-Serif" font-size="10.00">opencv2/core/ocl.hpp</text>
</a>
</g>
</g>
<!-- Node2&#45;&gt;Node69 -->
<g id="edge7_Node000002_Node000069" class="edge">
<title>Node2&#45;&gt;Node69</title>
<g id="a_edge7_Node000002_Node000069"><a xlink:title=" ">
<path fill="none" stroke="#63b8ff" d="M552.58,-55.59C586.47,-46.67 637.62,-33.19 674.82,-23.39"/>
<polygon fill="#63b8ff" stroke="#63b8ff" points="675.65,-26.8 684.42,-20.87 673.86,-20.03 675.65,-26.8"/>
</a>
</g>
</g>
<!-- Node72 -->
<g id="Node000072" class="node">
<title>Node72</title>
<g id="a_Node000072"><a xlink:href="core_2include_2opencv2_2core_2hal_2hal_8hpp.html" target="_top" xlink:title=" ">
<polygon fill="#fff0f0" stroke="red" points="919.25,-20 794.5,-20 794.5,0 919.25,0 919.25,-20"/>
<text xml:space="preserve" text-anchor="middle" x="856.88" y="-6.5" font-family="Helvetica,sans-Serif" font-size="10.00">opencv2/core/hal/hal.hpp</text>
</a>
</g>
</g>
<!-- Node2&#45;&gt;Node72 -->
<g id="edge8_Node000002_Node000072" class="edge">
<title>Node2&#45;&gt;Node72</title>
<g id="a_edge8_Node000002_Node000072"><a xlink:title=" ">
<path fill="none" stroke="#63b8ff" d="M553.26,-59.22C608.63,-50.43 715.08,-33.52 786.06,-22.25"/>
<polygon fill="#63b8ff" stroke="#63b8ff" points="786.31,-25.75 795.64,-20.73 785.21,-18.84 786.31,-25.75"/>
</a>
</g>
</g>
<!-- Node18 -->
<g id="Node000018" class="node">
<title>Node18</title>
<g id="a_Node000018"><a xlink:title=" ">
<polygon fill="#e0e0e0" stroke="#999999" points="992.75,-20 937,-20 937,0 992.75,0 992.75,-20"/>
<text xml:space="preserve" text-anchor="middle" x="964.88" y="-6.5" font-family="Helvetica,sans-Serif" font-size="10.00">algorithm</text>
</a>
</g>
</g>
<!-- Node2&#45;&gt;Node18 -->
<g id="edge9_Node000002_Node000018" class="edge">
<title>Node2&#45;&gt;Node18</title>
<g id="a_edge9_Node000002_Node000018"><a xlink:title=" ">
<path fill="none" stroke="#63b8ff" d="M553.38,-62.6C623.58,-57.64 782.38,-44.76 925.52,-20.2"/>
<polygon fill="#63b8ff" stroke="#63b8ff" points="925.93,-23.68 935.18,-18.52 924.73,-16.79 925.93,-23.68"/>
</a>
</g>
</g>
</g>
</svg>
