<?xml version="1.0" encoding="UTF-8" standalone="no"?>
<!DOCTYPE svg PUBLIC "-//W3C//DTD SVG 1.1//EN"
 "http://www.w3.org/Graphics/SVG/1.1/DTD/svg11.dtd">
<!-- Generated by graphviz version 16.0.0 (20260814.1018)
 -->
<!-- Title: C:/Users/YARADEYENISAIZAGUIRR/opencv/modules/core/src/matmul.dispatch.cpp Pages: 1 -->
<svg width="3329pt" height="288pt"
 viewBox="0.00 0.00 3329.00 288.00" xmlns="http://www.w3.org/2000/svg" xmlns:xlink="http://www.w3.org/1999/xlink">
<g id="graph0" class="graph" transform="scale(1 1) rotate(0) translate(4 284)">
<title>C:/Users/YARADEYENISAIZAGUIRR/opencv/modules/core/src/matmul.dispatch.cpp</title>
<!-- Node1 -->
<g id="Node000001" class="node">
<title>Node1</title>
<g id="a_Node000001"><a xlink:title=" ">
<polygon fill="#999999" stroke="#666666" points="2827.5,-280 2641.25,-280 2641.25,-236 2827.5,-236 2827.5,-280"/>
<text xml:space="preserve" text-anchor="start" x="2649.25" y="-266.5" font-family="Helvetica,sans-Serif" font-size="10.00">C:/Users/YARADEYENISAIZAGUIRR</text>
<text xml:space="preserve" text-anchor="start" x="2649.25" y="-254.5" font-family="Helvetica,sans-Serif" font-size="10.00">/opencv/modules/core/src</text>
<text xml:space="preserve" text-anchor="middle" x="2734.38" y="-242.5" font-family="Helvetica,sans-Serif" font-size="10.00">/matmul.dispatch.cpp</text>
</a>
</g>
</g>
<!-- Node2 -->
<g id="Node000002" class="node">
<title>Node2</title>
<g id="a_Node000002"><a xlink:href="core_2src_2precomp_8hpp.html" target="_top" xlink:title=" ">
<polygon fill="white" stroke="#666666" points="1137.5,-132 1065.25,-132 1065.25,-112 1137.5,-112 1137.5,-132"/>
<text xml:space="preserve" text-anchor="middle" x="1101.38" y="-118.5" font-family="Helvetica,sans-Serif" font-size="10.00">precomp.hpp</text>
</a>
</g>
</g>
<!-- Node1&#45;&gt;Node2 -->
<g id="edge1_Node000001_Node000002" class="edge">
<title>Node1&#45;&gt;Node2</title>
<g id="a_edge1_Node000001_Node000002"><a xlink:title=" ">
<path fill="none" stroke="#63b8ff" d="M2641.01,-249.34C2335.91,-224.3 1374.98,-145.45 1149.2,-126.92"/>
<polygon fill="#63b8ff" stroke="#63b8ff" points="1149.56,-123.44 1139.3,-126.11 1148.98,-130.42 1149.56,-123.44"/>
</a>
</g>
</g>
<!-- Node85 -->
<g id="Node000085" class="node">
<title>Node85</title>
<g id="a_Node000085"><a xlink:href="logger_8hpp.html" target="_top" xlink:title=" ">
<polygon fill="white" stroke="#666666" points="2581.12,-200 2485.62,-200 2485.62,-168 2581.12,-168 2581.12,-200"/>
<text xml:space="preserve" text-anchor="start" x="2493.62" y="-186.5" font-family="Helvetica,sans-Serif" font-size="10.00">opencv2/core/utils</text>
<text xml:space="preserve" text-anchor="middle" x="2533.38" y="-174.5" font-family="Helvetica,sans-Serif" font-size="10.00">/logger.hpp</text>
</a>
</g>
</g>
<!-- Node1&#45;&gt;Node85 -->
<g id="edge35_Node000001_Node000085" class="edge">
<title>Node1&#45;&gt;Node85</title>
<g id="a_edge35_Node000001_Node000085"><a xlink:title=" ">
<path fill="none" stroke="#63b8ff" d="M2674.61,-235.59C2646.95,-225.68 2614.33,-214 2587.41,-204.35"/>
<polygon fill="#63b8ff" stroke="#63b8ff" points="2588.65,-201.08 2578.06,-201.01 2586.29,-207.67 2588.65,-201.08"/>
</a>
</g>
</g>
<!-- Node89 -->
<g id="Node000089" class="node">
<title>Node89</title>
<g id="a_Node000089"><a xlink:title=" ">
<polygon fill="#e0e0e0" stroke="#999999" points="2723.38,-194 2599.38,-194 2599.38,-174 2723.38,-174 2723.38,-194"/>
<text xml:space="preserve" text-anchor="middle" x="2661.38" y="-180.5" font-family="Helvetica,sans-Serif" font-size="10.00">opencl_kernels_core.hpp</text>
</a>
</g>
</g>
<!-- Node1&#45;&gt;Node89 -->
<g id="edge42_Node000001_Node000089" class="edge">
<title>Node1&#45;&gt;Node89</title>
<g id="a_edge42_Node000001_Node000089"><a xlink:title=" ">
<path fill="none" stroke="#63b8ff" d="M2712.87,-235.79C2702.07,-225.14 2689.15,-212.39 2678.95,-202.34"/>
<polygon fill="#63b8ff" stroke="#63b8ff" points="2681.47,-199.9 2671.89,-195.37 2676.56,-204.89 2681.47,-199.9"/>
</a>
</g>
</g>
<!-- Node90 -->
<g id="Node000090" class="node">
<title>Node90</title>
<g id="a_Node000090"><a xlink:href="opencl__clblas_8hpp.html" target="_top" xlink:title=" ">
<polygon fill="white" stroke="#666666" points="2873.5,-200 2741.25,-200 2741.25,-168 2873.5,-168 2873.5,-200"/>
<text xml:space="preserve" text-anchor="start" x="2749.25" y="-186.5" font-family="Helvetica,sans-Serif" font-size="10.00">opencv2/core/opencl</text>
<text xml:space="preserve" text-anchor="middle" x="2807.38" y="-174.5" font-family="Helvetica,sans-Serif" font-size="10.00">/runtime/opencl_clblas.hpp</text>
</a>
</g>
</g>
<!-- Node1&#45;&gt;Node90 -->
<g id="edge43_Node000001_Node000090" class="edge">
<title>Node1&#45;&gt;Node90</title>
<g id="a_edge43_Node000001_Node000090"><a xlink:title=" ">
<path fill="none" stroke="#63b8ff" d="M2755.88,-235.79C2764.68,-227.11 2774.88,-217.05 2783.87,-208.18"/>
<polygon fill="#63b8ff" stroke="#63b8ff" points="2786.3,-210.7 2790.96,-201.19 2781.38,-205.72 2786.3,-210.7"/>
</a>
</g>
</g>
<!-- Node91 -->
<g id="Node000091" class="node">
<title>Node91</title>
<g id="a_Node000091"><a xlink:href="opencl__core_8hpp.html" target="_top" xlink:title=" ">
<polygon fill="white" stroke="#666666" points="3017.12,-200 2891.62,-200 2891.62,-168 3017.12,-168 3017.12,-200"/>
<text xml:space="preserve" text-anchor="start" x="2899.62" y="-186.5" font-family="Helvetica,sans-Serif" font-size="10.00">opencv2/core/opencl</text>
<text xml:space="preserve" text-anchor="middle" x="2954.38" y="-174.5" font-family="Helvetica,sans-Serif" font-size="10.00">/runtime/opencl_core.hpp</text>
</a>
</g>
</g>
<!-- Node1&#45;&gt;Node91 -->
<g id="edge44_Node000001_Node000091" class="edge">
<title>Node1&#45;&gt;Node91</title>
<g id="a_edge44_Node000001_Node000091"><a xlink:title=" ">
<path fill="none" stroke="#63b8ff" d="M2799.79,-235.59C2830.47,-225.55 2866.73,-213.69 2896.41,-203.97"/>
<polygon fill="#63b8ff" stroke="#63b8ff" points="2897.17,-207.4 2905.59,-200.97 2895,-200.75 2897.17,-207.4"/>
</a>
</g>
</g>
<!-- Node92 -->
<g id="Node000092" class="node">
<title>Node92</title>
<g id="a_Node000092"><a xlink:href="intel__gpu__gemm_8inl_8hpp.html" target="_top" xlink:title=" ">
<polygon fill="white" stroke="#666666" points="3153.75,-194 3035,-194 3035,-174 3153.75,-174 3153.75,-194"/>
<text xml:space="preserve" text-anchor="middle" x="3094.38" y="-180.5" font-family="Helvetica,sans-Serif" font-size="10.00">intel_gpu_gemm.inl.hpp</text>
</a>
</g>
</g>
<!-- Node1&#45;&gt;Node92 -->
<g id="edge45_Node000001_Node000092" class="edge">
<title>Node1&#45;&gt;Node92</title>
<g id="a_edge45_Node000001_Node000092"><a xlink:title=" ">
<path fill="none" stroke="#63b8ff" d="M2827.86,-239.35C2885.22,-228.37 2960.13,-213.77 3026.38,-200 3031.23,-198.99 3036.28,-197.92 3041.34,-196.83"/>
<polygon fill="#63b8ff" stroke="#63b8ff" points="3041.82,-200.31 3050.85,-194.76 3040.34,-193.47 3041.82,-200.31"/>
</a>
</g>
</g>
<!-- Node93 -->
<g id="Node000093" class="node">
<title>Node93</title>
<g id="a_Node000093"><a xlink:href="matmul_8simd_8hpp.html" target="_top" xlink:title=" ">
<polygon fill="white" stroke="#666666" points="2155.88,-194 2064.88,-194 2064.88,-174 2155.88,-174 2155.88,-194"/>
<text xml:space="preserve" text-anchor="middle" x="2110.38" y="-180.5" font-family="Helvetica,sans-Serif" font-size="10.00">matmul.simd.hpp</text>
</a>
</g>
</g>
<!-- Node1&#45;&gt;Node93 -->
<g id="edge46_Node000001_Node000093" class="edge">
<title>Node1&#45;&gt;Node93</title>
<g id="a_edge46_Node000001_Node000093"><a xlink:title=" ">
<path fill="none" stroke="#63b8ff" d="M2640.96,-246.22C2509.9,-231.1 2275.46,-204.05 2167.57,-191.6"/>
<polygon fill="#63b8ff" stroke="#63b8ff" points="2168.13,-188.14 2157.8,-190.47 2167.33,-195.1 2168.13,-188.14"/>
</a>
</g>
</g>
<!-- Node94 -->
<g id="Node000094" class="node">
<title>Node94</title>
<g id="a_Node000094"><a xlink:title=" ">
<polygon fill="#e0e0e0" stroke="#999999" points="3320.75,-194 3172,-194 3172,-174 3320.75,-174 3320.75,-194"/>
<text xml:space="preserve" text-anchor="middle" x="3246.38" y="-180.5" font-family="Helvetica,sans-Serif" font-size="10.00">matmul.simd_declarations.hpp</text>
</a>
</g>
</g>
<!-- Node1&#45;&gt;Node94 -->
<g id="edge48_Node000001_Node000094" class="edge">
<title>Node1&#45;&gt;Node94</title>
<g id="a_edge48_Node000001_Node000094"><a xlink:title=" ">
<path fill="none" stroke="#63b8ff" d="M2827.64,-245.79C2914.46,-235.06 3047.38,-217.92 3162.38,-200 3169.47,-198.89 3176.89,-197.67 3184.26,-196.41"/>
<polygon fill="#63b8ff" stroke="#63b8ff" points="3184.61,-199.9 3193.86,-194.74 3183.41,-193.01 3184.61,-199.9"/>
</a>
</g>
</g>
<!-- Node3 -->
<g id="Node000003" class="node">
<title>Node3</title>
<g id="a_Node000003"><a xlink:title=" ">
<polygon fill="#e0e0e0" stroke="#999999" points="1936.38,-76 1788.38,-76 1788.38,-56 1936.38,-56 1936.38,-76"/>
<text xml:space="preserve" text-anchor="middle" x="1862.38" y="-62.5" font-family="Helvetica,sans-Serif" font-size="10.00">opencv2/opencv_modules.hpp</text>
</a>
</g>
</g>
<!-- Node2&#45;&gt;Node3 -->
<g id="edge2_Node000002_Node000003" class="edge">
<title>Node2&#45;&gt;Node3</title>
<g id="a_edge2_Node000002_Node000003"><a xlink:title=" ">
<path fill="none" stroke="#63b8ff" d="M1137.8,-119.12C1237.93,-113.83 1526.03,-97.86 1777.01,-76.17"/>
<polygon fill="#63b8ff" stroke="#63b8ff" points="1777.01,-79.68 1786.67,-75.33 1776.4,-72.71 1777.01,-79.68"/>
</a>
</g>
</g>
<!-- Node4 -->
<g id="Node000004" class="node">
<title>Node4</title>
<g id="a_Node000004"><a xlink:title=" ">
<polygon fill="#e0e0e0" stroke="#999999" points="2253.88,-20 2192.88,-20 2192.88,0 2253.88,0 2253.88,-20"/>
<text xml:space="preserve" text-anchor="middle" x="2223.38" y="-6.5" font-family="Helvetica,sans-Serif" font-size="10.00">cvconfig.h</text>
</a>
</g>
</g>
<!-- Node2&#45;&gt;Node4 -->
<g id="edge3_Node000002_Node000004" class="edge">
<title>Node2&#45;&gt;Node4</title>
<g id="a_edge3_Node000002_Node000004"><a xlink:title=" ">
<path fill="none" stroke="#63b8ff" d="M1137.68,-121.03C1333.28,-121.03 2254.23,-118.72 2295.38,-76 2313.22,-57.47 2284.14,-37.92 2257.78,-25.16"/>
<polygon fill="#63b8ff" stroke="#63b8ff" points="2259.47,-22.08 2248.92,-21.08 2256.55,-28.44 2259.47,-22.08"/>
</a>
</g>
</g>
<!-- Node5 -->
<g id="Node000005" class="node">
<title>Node5</title>
<g id="a_Node000005"><a xlink:href="utility_8hpp.html" target="_top" xlink:title=" ">
<polygon fill="#fff0f0" stroke="red" points="2460.75,-76 2342,-76 2342,-56 2460.75,-56 2460.75,-76"/>
<text xml:space="preserve" text-anchor="middle" x="2401.38" y="-62.5" font-family="Helvetica,sans-Serif" font-size="10.00">opencv2/core/utility.hpp</text>
</a>
</g>
</g>
<!-- Node2&#45;&gt;Node5 -->
<g id="edge4_Node000002_Node000005" class="edge">
<title>Node2&#45;&gt;Node5</title>
<g id="a_edge4_Node000002_Node000005"><a xlink:title=" ">
<path fill="none" stroke="#63b8ff" d="M1137.83,-120.81C1286.19,-119.78 1859.04,-113.47 2328.38,-76 2329.05,-75.95 2329.73,-75.89 2330.41,-75.83"/>
<polygon fill="#63b8ff" stroke="#63b8ff" points="2330.52,-79.34 2340.15,-74.93 2329.87,-72.37 2330.52,-79.34"/>
</a>
</g>
</g>
<!-- Node60 -->
<g id="Node000060" class="node">
<title>Node60</title>
<g id="a_Node000060"><a xlink:href="core_2include_2opencv2_2core_2cuda_8hpp.html" target="_top" xlink:title=" ">
<polygon fill="#fff0f0" stroke="red" points="2074,-20 1956.75,-20 1956.75,0 2074,0 2074,-20"/>
<text xml:space="preserve" text-anchor="middle" x="2015.38" y="-6.5" font-family="Helvetica,sans-Serif" font-size="10.00">opencv2/core/cuda.hpp</text>
</a>
</g>
</g>
<!-- Node2&#45;&gt;Node60 -->
<g id="edge5_Node000002_Node000060" class="edge">
<title>Node2&#45;&gt;Node60</title>
<g id="a_edge5_Node000002_Node000060"><a xlink:title=" ">
<path fill="none" stroke="#63b8ff" d="M1137.86,-120.51C1290.1,-118.29 1870.35,-107.79 1945.38,-76 1968.9,-66.03 1989.45,-44.53 2002.1,-28.98"/>
<polygon fill="#63b8ff" stroke="#63b8ff" points="2004.6,-31.46 2007.98,-21.42 1999.08,-27.16 2004.6,-31.46"/>
</a>
</g>
</g>
<!-- Node63 -->
<g id="Node000063" class="node">
<title>Node63</title>
<g id="a_Node000063"><a xlink:href="opengl_8hpp.html" target="_top" xlink:title=" ">
<polygon fill="#fff0f0" stroke="red" points="124.75,-76 0,-76 0,-56 124.75,-56 124.75,-76"/>
<text xml:space="preserve" text-anchor="middle" x="62.38" y="-62.5" font-family="Helvetica,sans-Serif" font-size="10.00">opencv2/core/opengl.hpp</text>
</a>
</g>
</g>
<!-- Node2&#45;&gt;Node63 -->
<g id="edge6_Node000002_Node000063" class="edge">
<title>Node2&#45;&gt;Node63</title>
<g id="a_edge6_Node000002_Node000063"><a xlink:title=" ">
<path fill="none" stroke="#63b8ff" d="M1064.82,-120.35C937.98,-117.87 504.84,-107.56 136.49,-76.2"/>
<polygon fill="#63b8ff" stroke="#63b8ff" points="136.84,-72.72 126.57,-75.35 136.24,-79.69 136.84,-72.72"/>
</a>
</g>
</g>
<!-- Node67 -->
<g id="Node000067" class="node">
<title>Node67</title>
<g id="a_Node000067"><a xlink:href="va__intel_8hpp.html" target="_top" xlink:title=" ">
<polygon fill="#fff0f0" stroke="red" points="272.38,-76 142.38,-76 142.38,-56 272.38,-56 272.38,-76"/>
<text xml:space="preserve" text-anchor="middle" x="207.38" y="-62.5" font-family="Helvetica,sans-Serif" font-size="10.00">opencv2/core/va_intel.hpp</text>
</a>
</g>
</g>
<!-- Node2&#45;&gt;Node67 -->
<g id="edge7_Node000002_Node000067" class="edge">
<title>Node2&#45;&gt;Node67</title>
<g id="a_edge7_Node000002_Node000067"><a xlink:title=" ">
<path fill="none" stroke="#63b8ff" d="M1064.94,-119.86C951.21,-116.13 592.44,-102.96 284.13,-76.18"/>
<polygon fill="#63b8ff" stroke="#63b8ff" points="284.5,-72.7 274.23,-75.32 283.88,-79.68 284.5,-72.7"/>
</a>
</g>
</g>
<!-- Node68 -->
<g id="Node000068" class="node">
<title>Node68</title>
<g id="a_Node000068"><a xlink:href="private_8hpp.html" target="_top" xlink:title=" ">
<polygon fill="#fff0f0" stroke="red" points="2286.12,-76 2160.62,-76 2160.62,-56 2286.12,-56 2286.12,-76"/>
<text xml:space="preserve" text-anchor="middle" x="2223.38" y="-62.5" font-family="Helvetica,sans-Serif" font-size="10.00">opencv2/core/private.hpp</text>
</a>
</g>
</g>
<!-- Node2&#45;&gt;Node68 -->
<g id="edge8_Node000002_Node000068" class="edge">
<title>Node2&#45;&gt;Node68</title>
<g id="a_edge8_Node000002_Node000068"><a xlink:title=" ">
<path fill="none" stroke="#63b8ff" d="M1137.71,-120.52C1271.04,-118.51 1746.08,-109.38 2148.89,-76.13"/>
<polygon fill="#63b8ff" stroke="#63b8ff" points="2149.01,-79.64 2158.68,-75.32 2148.43,-72.66 2149.01,-79.64"/>
</a>
</g>
</g>
<!-- Node70 -->
<g id="Node000070" class="node">
<title>Node70</title>
<g id="a_Node000070"><a xlink:href="private_8cuda_8hpp.html" target="_top" xlink:title=" ">
<polygon fill="#fff0f0" stroke="red" points="2142.12,-76 1992.62,-76 1992.62,-56 2142.12,-56 2142.12,-76"/>
<text xml:space="preserve" text-anchor="middle" x="2067.38" y="-62.5" font-family="Helvetica,sans-Serif" font-size="10.00">opencv2/core/private.cuda.hpp</text>
</a>
</g>
</g>
<!-- Node2&#45;&gt;Node70 -->
<g id="edge10_Node000002_Node000070" class="edge">
<title>Node2&#45;&gt;Node70</title>
<g id="a_edge10_Node000002_Node000070"><a xlink:title=" ">
<path fill="none" stroke="#63b8ff" d="M1137.76,-119.78C1257.87,-115.61 1652.68,-100.81 1978.38,-76 1979.22,-75.94 1980.06,-75.87 1980.91,-75.8"/>
<polygon fill="#63b8ff" stroke="#63b8ff" points="1980.95,-79.31 1990.63,-75 1980.37,-72.34 1980.95,-79.31"/>
</a>
</g>
</g>
<!-- Node72 -->
<g id="Node000072" class="node">
<title>Node72</title>
<g id="a_Node000072"><a xlink:title=" ">
<polygon fill="#e0e0e0" stroke="#999999" points="338.5,-76 290.25,-76 290.25,-56 338.5,-56 338.5,-76"/>
<text xml:space="preserve" text-anchor="middle" x="314.38" y="-62.5" font-family="Helvetica,sans-Serif" font-size="10.00">ctype.h</text>
</a>
</g>
</g>
<!-- Node2&#45;&gt;Node72 -->
<g id="edge13_Node000002_Node000072" class="edge">
<title>Node2&#45;&gt;Node72</title>
<g id="a_edge13_Node000002_Node000072"><a xlink:title=" ">
<path fill="none" stroke="#63b8ff" d="M1064.9,-121.03C956.01,-120.64 623.99,-116.02 352.38,-76 351.54,-75.88 350.71,-75.75 349.86,-75.61"/>
<polygon fill="#63b8ff" stroke="#63b8ff" points="350.76,-72.22 340.27,-73.73 349.41,-79.08 350.76,-72.22"/>
</a>
</g>
</g>
<!-- Node73 -->
<g id="Node000073" class="node">
<title>Node73</title>
<g id="a_Node000073"><a xlink:title=" ">
<polygon fill="#e0e0e0" stroke="#999999" points="420.88,-20 377.88,-20 377.88,0 420.88,0 420.88,-20"/>
<text xml:space="preserve" text-anchor="middle" x="399.38" y="-6.5" font-family="Helvetica,sans-Serif" font-size="10.00">float.h</text>
</a>
</g>
</g>
<!-- Node2&#45;&gt;Node73 -->
<g id="edge14_Node000002_Node000073" class="edge">
<title>Node2&#45;&gt;Node73</title>
<g id="a_edge14_Node000002_Node000073"><a xlink:title=" ">
<path fill="none" stroke="#63b8ff" d="M1064.76,-120.07C921.92,-116.29 408.85,-101 385.38,-76 373.91,-63.8 379.93,-44.56 387.3,-30.17"/>
<polygon fill="#63b8ff" stroke="#63b8ff" points="390.26,-32.05 392.19,-21.63 384.19,-28.57 390.26,-32.05"/>
</a>
</g>
</g>
<!-- Node9 -->
<g id="Node000009" class="node">
<title>Node9</title>
<g id="a_Node000009"><a xlink:title=" ">
<polygon fill="#e0e0e0" stroke="#999999" points="2526.12,-76 2478.62,-76 2478.62,-56 2526.12,-56 2526.12,-76"/>
<text xml:space="preserve" text-anchor="middle" x="2502.38" y="-62.5" font-family="Helvetica,sans-Serif" font-size="10.00">limits.h</text>
</a>
</g>
</g>
<!-- Node2&#45;&gt;Node9 -->
<g id="edge15_Node000002_Node000009" class="edge">
<title>Node2&#45;&gt;Node9</title>
<g id="a_edge15_Node000002_Node000009"><a xlink:title=" ">
<path fill="none" stroke="#63b8ff" d="M1137.9,-120.95C1325.08,-120.52 2178.87,-116.43 2467.12,-75.89"/>
<polygon fill="#63b8ff" stroke="#63b8ff" points="2467.48,-79.37 2476.87,-74.46 2466.46,-72.45 2467.48,-79.37"/>
</a>
</g>
</g>
<!-- Node16 -->
<g id="Node000016" class="node">
<title>Node16</title>
<g id="a_Node000016"><a xlink:title=" ">
<polygon fill="#e0e0e0" stroke="#999999" points="668.38,-76 622.38,-76 622.38,-56 668.38,-56 668.38,-76"/>
<text xml:space="preserve" text-anchor="middle" x="645.38" y="-62.5" font-family="Helvetica,sans-Serif" font-size="10.00">math.h</text>
</a>
</g>
</g>
<!-- Node2&#45;&gt;Node16 -->
<g id="edge16_Node000002_Node000016" class="edge">
<title>Node2&#45;&gt;Node16</title>
<g id="a_edge16_Node000002_Node000016"><a xlink:title=" ">
<path fill="none" stroke="#63b8ff" d="M1064.77,-119.19C992.74,-115.2 827.46,-103.83 679.74,-76.15"/>
<polygon fill="#63b8ff" stroke="#63b8ff" points="680.65,-72.76 670.17,-74.33 679.34,-79.64 680.65,-72.76"/>
</a>
</g>
</g>
<!-- Node74 -->
<g id="Node000074" class="node">
<title>Node74</title>
<g id="a_Node000074"><a xlink:title=" ">
<polygon fill="#e0e0e0" stroke="#999999" points="738,-76 686.75,-76 686.75,-56 738,-56 738,-76"/>
<text xml:space="preserve" text-anchor="middle" x="712.38" y="-62.5" font-family="Helvetica,sans-Serif" font-size="10.00">stdarg.h</text>
</a>
</g>
</g>
<!-- Node2&#45;&gt;Node74 -->
<g id="edge17_Node000002_Node000074" class="edge">
<title>Node2&#45;&gt;Node74</title>
<g id="a_edge17_Node000002_Node000074"><a xlink:title=" ">
<path fill="none" stroke="#63b8ff" d="M1064.84,-117.98C1002.15,-112.45 869.95,-99.28 749.52,-76.41"/>
<polygon fill="#63b8ff" stroke="#63b8ff" points="750.25,-72.98 739.77,-74.52 748.92,-79.86 750.25,-72.98"/>
</a>
</g>
</g>
<!-- Node75 -->
<g id="Node000075" class="node">
<title>Node75</title>
<g id="a_Node000075"><a xlink:title=" ">
<polygon fill="#e0e0e0" stroke="#999999" points="801,-76 755.75,-76 755.75,-56 801,-56 801,-76"/>
<text xml:space="preserve" text-anchor="middle" x="778.38" y="-62.5" font-family="Helvetica,sans-Serif" font-size="10.00">stdio.h</text>
</a>
</g>
</g>
<!-- Node2&#45;&gt;Node75 -->
<g id="edge18_Node000002_Node000075" class="edge">
<title>Node2&#45;&gt;Node75</title>
<g id="a_edge18_Node000002_Node000075"><a xlink:title=" ">
<path fill="none" stroke="#63b8ff" d="M1064.82,-116.79C1011.48,-110.33 909.02,-96.74 812.49,-76.23"/>
<polygon fill="#63b8ff" stroke="#63b8ff" points="813.36,-72.83 802.84,-74.14 811.88,-79.67 813.36,-72.83"/>
</a>
</g>
</g>
<!-- Node76 -->
<g id="Node000076" class="node">
<title>Node76</title>
<g id="a_Node000076"><a xlink:title=" ">
<polygon fill="#e0e0e0" stroke="#999999" points="502.12,-20 454.62,-20 454.62,0 502.12,0 502.12,-20"/>
<text xml:space="preserve" text-anchor="middle" x="478.38" y="-6.5" font-family="Helvetica,sans-Serif" font-size="10.00">stdlib.h</text>
</a>
</g>
</g>
<!-- Node2&#45;&gt;Node76 -->
<g id="edge19_Node000002_Node000076" class="edge">
<title>Node2&#45;&gt;Node76</title>
<g id="a_edge19_Node000002_Node000076"><a xlink:title=" ">
<path fill="none" stroke="#63b8ff" d="M1065.06,-119.95C963.07,-116.67 675.67,-105.04 586.38,-76 553.29,-65.24 519.64,-42.77 498.9,-27.29"/>
<polygon fill="#63b8ff" stroke="#63b8ff" points="501.08,-24.55 491.01,-21.26 496.82,-30.11 501.08,-24.55"/>
</a>
</g>
</g>
<!-- Node77 -->
<g id="Node000077" class="node">
<title>Node77</title>
<g id="a_Node000077"><a xlink:title=" ">
<polygon fill="#e0e0e0" stroke="#999999" points="867.5,-76 819.25,-76 819.25,-56 867.5,-56 867.5,-76"/>
<text xml:space="preserve" text-anchor="middle" x="843.38" y="-62.5" font-family="Helvetica,sans-Serif" font-size="10.00">string.h</text>
</a>
</g>
</g>
<!-- Node2&#45;&gt;Node77 -->
<g id="edge20_Node000002_Node000077" class="edge">
<title>Node2&#45;&gt;Node77</title>
<g id="a_edge20_Node000002_Node000077"><a xlink:title=" ">
<path fill="none" stroke="#63b8ff" d="M1064.97,-114.52C1022.51,-106.78 950,-93.03 878.79,-76.45"/>
<polygon fill="#63b8ff" stroke="#63b8ff" points="879.84,-73.1 869.31,-74.22 878.24,-79.92 879.84,-73.1"/>
</a>
</g>
</g>
<!-- Node19 -->
<g id="Node000019" class="node">
<title>Node19</title>
<g id="a_Node000019"><a xlink:title=" ">
<polygon fill="#e0e0e0" stroke="#999999" points="941.25,-76 885.5,-76 885.5,-56 941.25,-56 941.25,-76"/>
<text xml:space="preserve" text-anchor="middle" x="913.38" y="-62.5" font-family="Helvetica,sans-Serif" font-size="10.00">algorithm</text>
</a>
</g>
</g>
<!-- Node2&#45;&gt;Node19 -->
<g id="edge21_Node000002_Node000019" class="edge">
<title>Node2&#45;&gt;Node19</title>
<g id="a_edge21_Node000002_Node000019"><a xlink:title=" ">
<path fill="none" stroke="#63b8ff" d="M1068.63,-111.59C1036.3,-102.31 986.86,-88.11 952.49,-78.23"/>
<polygon fill="#63b8ff" stroke="#63b8ff" points="953.49,-74.88 942.91,-75.48 951.56,-81.61 953.49,-74.88"/>
</a>
</g>
</g>
<!-- Node27 -->
<g id="Node000027" class="node">
<title>Node27</title>
<g id="a_Node000027"><a xlink:title=" ">
<polygon fill="#e0e0e0" stroke="#999999" points="580.88,-20 537.88,-20 537.88,0 580.88,0 580.88,-20"/>
<text xml:space="preserve" text-anchor="middle" x="559.38" y="-6.5" font-family="Helvetica,sans-Serif" font-size="10.00">cmath</text>
</a>
</g>
</g>
<!-- Node2&#45;&gt;Node27 -->
<g id="edge22_Node000002_Node000027" class="edge">
<title>Node2&#45;&gt;Node27</title>
<g id="a_edge22_Node000002_Node000027"><a xlink:title=" ">
<path fill="none" stroke="#63b8ff" d="M1064.96,-121.2C965.55,-121.18 691.76,-117.28 613.38,-76 593.95,-65.77 578.78,-45.28 569.53,-30.03"/>
<polygon fill="#63b8ff" stroke="#63b8ff" points="572.6,-28.35 564.61,-21.39 566.51,-31.81 572.6,-28.35"/>
</a>
</g>
</g>
<!-- Node26 -->
<g id="Node000026" class="node">
<title>Node26</title>
<g id="a_Node000026"><a xlink:title=" ">
<polygon fill="#e0e0e0" stroke="#999999" points="1003.62,-76 959.12,-76 959.12,-56 1003.62,-56 1003.62,-76"/>
<text xml:space="preserve" text-anchor="middle" x="981.38" y="-62.5" font-family="Helvetica,sans-Serif" font-size="10.00">cstdlib</text>
</a>
</g>
</g>
<!-- Node2&#45;&gt;Node26 -->
<g id="edge23_Node000002_Node000026" class="edge">
<title>Node2&#45;&gt;Node26</title>
<g id="a_edge23_Node000002_Node000026"><a xlink:title=" ">
<path fill="none" stroke="#63b8ff" d="M1080.47,-111.59C1061.75,-103.17 1034.02,-90.69 1012.65,-81.07"/>
<polygon fill="#63b8ff" stroke="#63b8ff" points="1014.38,-78.01 1003.82,-77.1 1011.5,-84.4 1014.38,-78.01"/>
</a>
</g>
</g>
<!-- Node45 -->
<g id="Node000045" class="node">
<title>Node45</title>
<g id="a_Node000045"><a xlink:title=" ">
<polygon fill="#e0e0e0" stroke="#999999" points="1061,-76 1021.75,-76 1021.75,-56 1061,-56 1061,-76"/>
<text xml:space="preserve" text-anchor="middle" x="1041.38" y="-62.5" font-family="Helvetica,sans-Serif" font-size="10.00">limits</text>
</a>
</g>
</g>
<!-- Node2&#45;&gt;Node45 -->
<g id="edge24_Node000002_Node000045" class="edge">
<title>Node2&#45;&gt;Node45</title>
<g id="a_edge24_Node000002_Node000045"><a xlink:title=" ">
<path fill="none" stroke="#63b8ff" d="M1090.92,-111.59C1082.41,-103.93 1070.16,-92.91 1059.98,-83.75"/>
<polygon fill="#63b8ff" stroke="#63b8ff" points="1062.61,-81.4 1052.83,-77.31 1057.92,-86.6 1062.61,-81.4"/>
</a>
</g>
</g>
<!-- Node22 -->
<g id="Node000022" class="node">
<title>Node22</title>
<g id="a_Node000022"><a xlink:title=" ">
<polygon fill="#e0e0e0" stroke="#999999" points="1124,-76 1078.75,-76 1078.75,-56 1124,-56 1124,-76"/>
<text xml:space="preserve" text-anchor="middle" x="1101.38" y="-62.5" font-family="Helvetica,sans-Serif" font-size="10.00">cstring</text>
</a>
</g>
</g>
<!-- Node2&#45;&gt;Node22 -->
<g id="edge25_Node000002_Node000022" class="edge">
<title>Node2&#45;&gt;Node22</title>
<g id="a_edge25_Node000002_Node000022"><a xlink:title=" ">
<path fill="none" stroke="#63b8ff" d="M1101.38,-111.59C1101.38,-105.01 1101.38,-95.96 1101.38,-87.73"/>
<polygon fill="#63b8ff" stroke="#63b8ff" points="1104.88,-87.81 1101.38,-77.81 1097.88,-87.81 1104.88,-87.81"/>
</a>
</g>
</g>
<!-- Node78 -->
<g id="Node000078" class="node">
<title>Node78</title>
<g id="a_Node000078"><a xlink:title=" ">
<polygon fill="#e0e0e0" stroke="#999999" points="1190.5,-76 1142.25,-76 1142.25,-56 1190.5,-56 1190.5,-76"/>
<text xml:space="preserve" text-anchor="middle" x="1166.38" y="-62.5" font-family="Helvetica,sans-Serif" font-size="10.00">cassert</text>
</a>
</g>
</g>
<!-- Node2&#45;&gt;Node78 -->
<g id="edge26_Node000002_Node000078" class="edge">
<title>Node2&#45;&gt;Node78</title>
<g id="a_edge26_Node000002_Node000078"><a xlink:title=" ">
<path fill="none" stroke="#63b8ff" d="M1112.7,-111.59C1122.02,-103.85 1135.45,-92.69 1146.55,-83.47"/>
<polygon fill="#63b8ff" stroke="#63b8ff" points="1148.56,-86.35 1154.02,-77.27 1144.09,-80.96 1148.56,-86.35"/>
</a>
</g>
</g>
<!-- Node79 -->
<g id="Node000079" class="node">
<title>Node79</title>
<g id="a_Node000079"><a xlink:href="core_2include_2opencv2_2core_2hal_2hal_8hpp.html" target="_top" xlink:title=" ">
<polygon fill="#fff0f0" stroke="red" points="1333.75,-76 1209,-76 1209,-56 1333.75,-56 1333.75,-76"/>
<text xml:space="preserve" text-anchor="middle" x="1271.38" y="-62.5" font-family="Helvetica,sans-Serif" font-size="10.00">opencv2/core/hal/hal.hpp</text>
</a>
</g>
</g>
<!-- Node2&#45;&gt;Node79 -->
<g id="edge27_Node000002_Node000079" class="edge">
<title>Node2&#45;&gt;Node79</title>
<g id="a_edge27_Node000002_Node000079"><a xlink:title=" ">
<path fill="none" stroke="#63b8ff" d="M1130.99,-111.59C1158.61,-102.82 1200.05,-89.66 1230.75,-79.9"/>
<polygon fill="#63b8ff" stroke="#63b8ff" points="1231.62,-83.3 1240.09,-76.94 1229.5,-76.63 1231.62,-83.3"/>
</a>
</g>
</g>
<!-- Node80 -->
<g id="Node000080" class="node">
<title>Node80</title>
<g id="a_Node000080"><a xlink:href="intrin_8hpp.html" target="_top" xlink:title=" ">
<polygon fill="#fff0f0" stroke="red" points="527.88,-76 394.88,-76 394.88,-56 527.88,-56 527.88,-76"/>
<text xml:space="preserve" text-anchor="middle" x="461.38" y="-62.5" font-family="Helvetica,sans-Serif" font-size="10.00">opencv2/core/hal/intrin.hpp</text>
</a>
</g>
</g>
<!-- Node2&#45;&gt;Node80 -->
<g id="edge28_Node000002_Node000080" class="edge">
<title>Node2&#45;&gt;Node80</title>
<g id="a_edge28_Node000002_Node000080"><a xlink:title=" ">
<path fill="none" stroke="#63b8ff" d="M1065.04,-118.46C975.92,-112.14 739.36,-94.87 542.38,-76 541.36,-75.9 540.33,-75.8 539.3,-75.7"/>
<polygon fill="#63b8ff" stroke="#63b8ff" points="539.91,-72.25 529.61,-74.73 539.21,-79.21 539.91,-72.25"/>
</a>
</g>
</g>
<!-- Node32 -->
<g id="Node000032" class="node">
<title>Node32</title>
<g id="a_Node000032"><a xlink:href="neon__utils_8hpp.html" target="_top" xlink:title=" ">
<polygon fill="#fff0f0" stroke="red" points="1492.62,-76 1352.12,-76 1352.12,-56 1492.62,-56 1492.62,-76"/>
<text xml:space="preserve" text-anchor="middle" x="1422.38" y="-62.5" font-family="Helvetica,sans-Serif" font-size="10.00">opencv2/core/neon_utils.hpp</text>
</a>
</g>
</g>
<!-- Node2&#45;&gt;Node32 -->
<g id="edge32_Node000002_Node000032" class="edge">
<title>Node2&#45;&gt;Node32</title>
<g id="a_edge32_Node000002_Node000032"><a xlink:title=" ">
<path fill="none" stroke="#63b8ff" d="M1137.89,-114.86C1190.54,-106 1288.73,-89.48 1354.83,-78.36"/>
<polygon fill="#63b8ff" stroke="#63b8ff" points="1355.19,-81.85 1364.47,-76.74 1354.03,-74.95 1355.19,-81.85"/>
</a>
</g>
</g>
<!-- Node33 -->
<g id="Node000033" class="node">
<title>Node33</title>
<g id="a_Node000033"><a xlink:href="vsx__utils_8hpp.html" target="_top" xlink:title=" ">
<polygon fill="#fff0f0" stroke="red" points="1646,-76 1510.75,-76 1510.75,-56 1646,-56 1646,-76"/>
<text xml:space="preserve" text-anchor="middle" x="1578.38" y="-62.5" font-family="Helvetica,sans-Serif" font-size="10.00">opencv2/core/vsx_utils.hpp</text>
</a>
</g>
</g>
<!-- Node2&#45;&gt;Node33 -->
<g id="edge33_Node000002_Node000033" class="edge">
<title>Node2&#45;&gt;Node33</title>
<g id="a_edge33_Node000002_Node000033"><a xlink:title=" ">
<path fill="none" stroke="#63b8ff" d="M1137.78,-116.96C1206.22,-109.35 1359.04,-92.3 1499.01,-76.27"/>
<polygon fill="#63b8ff" stroke="#63b8ff" points="1499.32,-79.75 1508.85,-75.14 1498.52,-72.8 1499.32,-79.75"/>
</a>
</g>
</g>
<!-- Node82 -->
<g id="Node000082" class="node">
<title>Node82</title>
<g id="a_Node000082"><a xlink:href="core_2src_2hal__replacement_8hpp.html" target="_top" xlink:title=" ">
<polygon fill="#fff0f0" stroke="red" points="1770.38,-76 1664.38,-76 1664.38,-56 1770.38,-56 1770.38,-76"/>
<text xml:space="preserve" text-anchor="middle" x="1717.38" y="-62.5" font-family="Helvetica,sans-Serif" font-size="10.00">hal_replacement.hpp</text>
</a>
</g>
</g>
<!-- Node2&#45;&gt;Node82 -->
<g id="edge34_Node000002_Node000082" class="edge">
<title>Node2&#45;&gt;Node82</title>
<g id="a_edge34_Node000002_Node000082"><a xlink:title=" ">
<path fill="none" stroke="#63b8ff" d="M1137.75,-118.84C1224.78,-113.51 1452.08,-98.58 1652.62,-76.25"/>
<polygon fill="#63b8ff" stroke="#63b8ff" points="1652.92,-79.73 1662.46,-75.14 1652.14,-72.78 1652.92,-79.73"/>
</a>
</g>
</g>
<!-- Node68&#45;&gt;Node4 -->
<g id="edge9_Node000068_Node000004" class="edge">
<title>Node68&#45;&gt;Node4</title>
<g id="a_edge9_Node000068_Node000004"><a xlink:title=" ">
<path fill="none" stroke="#63b8ff" d="M2223.38,-55.59C2223.38,-49.01 2223.38,-39.96 2223.38,-31.73"/>
<polygon fill="#63b8ff" stroke="#63b8ff" points="2226.88,-31.81 2223.38,-21.81 2219.88,-31.81 2226.88,-31.81"/>
</a>
</g>
</g>
<!-- Node70&#45;&gt;Node4 -->
<g id="edge11_Node000070_Node000004" class="edge">
<title>Node70&#45;&gt;Node4</title>
<g id="a_edge11_Node000070_Node000004"><a xlink:title=" ">
<path fill="none" stroke="#63b8ff" d="M2094.55,-55.59C2119.67,-46.9 2157.26,-33.89 2185.35,-24.16"/>
<polygon fill="#63b8ff" stroke="#63b8ff" points="2186.25,-27.55 2194.56,-20.97 2183.96,-20.94 2186.25,-27.55"/>
</a>
</g>
</g>
<!-- Node70&#45;&gt;Node60 -->
<g id="edge12_Node000070_Node000060" class="edge">
<title>Node70&#45;&gt;Node60</title>
<g id="a_edge12_Node000070_Node000060"><a xlink:title=" ">
<path fill="none" stroke="#63b8ff" d="M2058.32,-55.59C2051.16,-48.16 2040.97,-37.58 2032.31,-28.58"/>
<polygon fill="#63b8ff" stroke="#63b8ff" points="2034.84,-26.16 2025.38,-21.39 2029.79,-31.02 2034.84,-26.16"/>
</a>
</g>
</g>
<!-- Node80&#45;&gt;Node73 -->
<g id="edge30_Node000080_Node000073" class="edge">
<title>Node80&#45;&gt;Node73</title>
<g id="a_edge30_Node000080_Node000073"><a xlink:title=" ">
<path fill="none" stroke="#63b8ff" d="M450.58,-55.59C441.77,-47.93 429.12,-36.91 418.6,-27.75"/>
<polygon fill="#63b8ff" stroke="#63b8ff" points="421.03,-25.22 411.19,-21.29 416.43,-30.5 421.03,-25.22"/>
</a>
</g>
</g>
<!-- Node80&#45;&gt;Node76 -->
<g id="edge31_Node000080_Node000076" class="edge">
<title>Node80&#45;&gt;Node76</title>
<g id="a_edge31_Node000080_Node000076"><a xlink:title=" ">
<path fill="none" stroke="#63b8ff" d="M464.34,-55.59C466.46,-48.86 469.39,-39.53 472.03,-31.15"/>
<polygon fill="#63b8ff" stroke="#63b8ff" points="475.33,-32.33 474.99,-21.74 468.65,-30.23 475.33,-32.33"/>
</a>
</g>
</g>
<!-- Node80&#45;&gt;Node27 -->
<g id="edge29_Node000080_Node000027" class="edge">
<title>Node80&#45;&gt;Node27</title>
<g id="a_edge29_Node000080_Node000027"><a xlink:title=" ">
<path fill="none" stroke="#63b8ff" d="M478.45,-55.59C493.25,-47.44 514.94,-35.48 532.14,-26"/>
<polygon fill="#63b8ff" stroke="#63b8ff" points="533.78,-29.1 540.85,-21.21 530.4,-22.97 533.78,-29.1"/>
</a>
</g>
</g>
<!-- Node85&#45;&gt;Node9 -->
<g id="edge38_Node000085_Node000009" class="edge">
<title>Node85&#45;&gt;Node9</title>
<g id="a_edge38_Node000085_Node000009"><a xlink:title=" ">
<path fill="none" stroke="#63b8ff" d="M2529.16,-167.84C2526.36,-157.7 2522.61,-144.06 2519.38,-132 2515.35,-116.97 2510.9,-99.96 2507.57,-87.11"/>
<polygon fill="#63b8ff" stroke="#63b8ff" points="2511.03,-86.54 2505.14,-77.73 2504.26,-88.29 2511.03,-86.54"/>
</a>
</g>
</g>
<!-- Node86 -->
<g id="Node000086" class="node">
<title>Node86</title>
<g id="a_Node000086"><a xlink:title=" ">
<polygon fill="#e0e0e0" stroke="#999999" points="2694.12,-132 2640.62,-132 2640.62,-112 2694.12,-112 2694.12,-132"/>
<text xml:space="preserve" text-anchor="middle" x="2667.38" y="-118.5" font-family="Helvetica,sans-Serif" font-size="10.00">iostream</text>
</a>
</g>
</g>
<!-- Node85&#45;&gt;Node86 -->
<g id="edge36_Node000085_Node000086" class="edge">
<title>Node85&#45;&gt;Node86</title>
<g id="a_edge36_Node000085_Node000086"><a xlink:title=" ">
<path fill="none" stroke="#63b8ff" d="M2567.88,-167.55C2588.92,-158.13 2615.59,-146.19 2636.02,-137.04"/>
<polygon fill="#63b8ff" stroke="#63b8ff" points="2637.29,-140.31 2644.98,-133.03 2634.43,-133.92 2637.29,-140.31"/>
</a>
</g>
</g>
<!-- Node57 -->
<g id="Node000057" class="node">
<title>Node57</title>
<g id="a_Node000057"><a xlink:title=" ">
<polygon fill="#e0e0e0" stroke="#999999" points="2763,-132 2711.75,-132 2711.75,-112 2763,-112 2763,-132"/>
<text xml:space="preserve" text-anchor="middle" x="2737.38" y="-118.5" font-family="Helvetica,sans-Serif" font-size="10.00">sstream</text>
</a>
</g>
</g>
<!-- Node85&#45;&gt;Node57 -->
<g id="edge37_Node000085_Node000057" class="edge">
<title>Node85&#45;&gt;Node57</title>
<g id="a_edge37_Node000085_Node000057"><a xlink:title=" ">
<path fill="none" stroke="#63b8ff" d="M2581.46,-168.86C2617.97,-158.12 2667.42,-143.58 2700.76,-133.77"/>
<polygon fill="#63b8ff" stroke="#63b8ff" points="2701.35,-137.25 2709.95,-131.07 2699.37,-130.53 2701.35,-137.25"/>
</a>
</g>
</g>
<!-- Node87 -->
<g id="Node000087" class="node">
<title>Node87</title>
<g id="a_Node000087"><a xlink:href="logger_8defines_8hpp.html" target="_top" xlink:title=" ">
<polygon fill="white" stroke="#666666" points="2640.12,-76 2544.62,-76 2544.62,-56 2640.12,-56 2640.12,-76"/>
<text xml:space="preserve" text-anchor="middle" x="2592.38" y="-62.5" font-family="Helvetica,sans-Serif" font-size="10.00">logger.defines.hpp</text>
</a>
</g>
</g>
<!-- Node85&#45;&gt;Node87 -->
<g id="edge39_Node000085_Node000087" class="edge">
<title>Node85&#45;&gt;Node87</title>
<g id="a_edge39_Node000085_Node000087"><a xlink:title=" ">
<path fill="none" stroke="#63b8ff" d="M2535.7,-167.58C2538.41,-152.68 2543.78,-129.81 2553.38,-112 2558.79,-101.95 2566.79,-92.2 2574.14,-84.35"/>
<polygon fill="#63b8ff" stroke="#63b8ff" points="2576.39,-87.05 2580.92,-77.47 2571.41,-82.14 2576.39,-87.05"/>
</a>
</g>
</g>
<!-- Node88 -->
<g id="Node000088" class="node">
<title>Node88</title>
<g id="a_Node000088"><a xlink:href="logtag_8hpp.html" target="_top" xlink:title=" ">
<polygon fill="#fff0f0" stroke="red" points="2622.88,-132 2561.88,-132 2561.88,-112 2622.88,-112 2622.88,-132"/>
<text xml:space="preserve" text-anchor="middle" x="2592.38" y="-118.5" font-family="Helvetica,sans-Serif" font-size="10.00">logtag.hpp</text>
</a>
</g>
</g>
<!-- Node85&#45;&gt;Node88 -->
<g id="edge40_Node000085_Node000088" class="edge">
<title>Node85&#45;&gt;Node88</title>
<g id="a_edge40_Node000085_Node000088"><a xlink:title=" ">
<path fill="none" stroke="#63b8ff" d="M2548.57,-167.55C2556.68,-159.3 2566.69,-149.12 2575.09,-140.57"/>
<polygon fill="#63b8ff" stroke="#63b8ff" points="2577.55,-143.07 2582.06,-133.49 2572.56,-138.16 2577.55,-143.07"/>
</a>
</g>
</g>
<!-- Node88&#45;&gt;Node87 -->
<g id="edge41_Node000088_Node000087" class="edge">
<title>Node88&#45;&gt;Node87</title>
<g id="a_edge41_Node000088_Node000087"><a xlink:title=" ">
<path fill="none" stroke="#63b8ff" d="M2592.38,-111.59C2592.38,-105.01 2592.38,-95.96 2592.38,-87.73"/>
<polygon fill="#63b8ff" stroke="#63b8ff" points="2595.88,-87.81 2592.38,-77.81 2588.88,-87.81 2595.88,-87.81"/>
</a>
</g>
</g>
<!-- Node93&#45;&gt;Node2 -->
<g id="edge47_Node000093_Node000002" class="edge">
<title>Node93&#45;&gt;Node2</title>
<g id="a_edge47_Node000093_Node000002"><a xlink:title=" ">
<path fill="none" stroke="#63b8ff" d="M2064.4,-180.27C1896.87,-170.3 1320.02,-136 1149.32,-125.85"/>
<polygon fill="#63b8ff" stroke="#63b8ff" points="1149.68,-122.37 1139.49,-125.27 1149.26,-129.35 1149.68,-122.37"/>
</a>
</g>
</g>
</g>
</svg>
