<?xml version="1.0" encoding="UTF-8" standalone="no"?>
<!DOCTYPE svg PUBLIC "-//W3C//DTD SVG 1.1//EN"
 "http://www.w3.org/Graphics/SVG/1.1/DTD/svg11.dtd">
<!-- Generated by graphviz version 16.0.0 (20260814.1018)
 -->
<!-- Title: C:/Users/YARADEYENISAIZAGUIRR/opencv/modules/dnn/src/layers/max_unpooling_layer.cpp Pages: 1 -->
<svg width="2358pt" height="288pt"
 viewBox="0.00 0.00 2358.00 288.00" xmlns="http://www.w3.org/2000/svg" xmlns:xlink="http://www.w3.org/1999/xlink">
<g id="graph0" class="graph" transform="scale(1 1) rotate(0) translate(4 284)">
<title>C:/Users/YARADEYENISAIZAGUIRR/opencv/modules/dnn/src/layers/max_unpooling_layer.cpp</title>
<!-- Node1 -->
<g id="Node000001" class="node">
<title>Node1</title>
<g id="a_Node000001"><a xlink:title=" ">
<polygon fill="#999999" stroke="#666666" points="1866.5,-280 1680.25,-280 1680.25,-236 1866.5,-236 1866.5,-280"/>
<text xml:space="preserve" text-anchor="start" x="1688.25" y="-266.5" font-family="Helvetica,sans-Serif" font-size="10.00">C:/Users/YARADEYENISAIZAGUIRR</text>
<text xml:space="preserve" text-anchor="start" x="1688.25" y="-254.5" font-family="Helvetica,sans-Serif" font-size="10.00">/opencv/modules/dnn/src/layers</text>
<text xml:space="preserve" text-anchor="middle" x="1773.38" y="-242.5" font-family="Helvetica,sans-Serif" font-size="10.00">/max_unpooling_layer.cpp</text>
</a>
</g>
</g>
<!-- Node2 -->
<g id="Node000002" class="node">
<title>Node2</title>
<g id="a_Node000002"><a xlink:href="dnn_2src_2precomp_8hpp.html" target="_top" xlink:title=" ">
<polygon fill="white" stroke="#666666" points="935,-200 853.75,-200 853.75,-180 935,-180 935,-200"/>
<text xml:space="preserve" text-anchor="middle" x="894.38" y="-186.5" font-family="Helvetica,sans-Serif" font-size="10.00">../precomp.hpp</text>
</a>
</g>
</g>
<!-- Node1&#45;&gt;Node2 -->
<g id="edge1_Node000001_Node000002" class="edge">
<title>Node1&#45;&gt;Node2</title>
<g id="a_edge1_Node000001_Node000002"><a xlink:title=" ">
<path fill="none" stroke="#63b8ff" d="M1680.14,-250C1495.8,-236.16 1090.15,-205.7 946.25,-194.9"/>
<polygon fill="#63b8ff" stroke="#63b8ff" points="946.89,-191.43 936.66,-194.17 946.37,-198.41 946.89,-191.43"/>
</a>
</g>
</g>
<!-- Node81 -->
<g id="Node000081" class="node">
<title>Node81</title>
<g id="a_Node000081"><a xlink:href="shape__utils_8hpp.html" target="_top" xlink:title=" ">
<polygon fill="#fff0f0" stroke="red" points="2127.75,-138 1985,-138 1985,-118 2127.75,-118 2127.75,-138"/>
<text xml:space="preserve" text-anchor="middle" x="2056.38" y="-124.5" font-family="Helvetica,sans-Serif" font-size="10.00">opencv2/dnn/shape_utils.hpp</text>
</a>
</g>
</g>
<!-- Node1&#45;&gt;Node81 -->
<g id="edge43_Node000001_Node000081" class="edge">
<title>Node1&#45;&gt;Node81</title>
<g id="a_edge43_Node000001_Node000081"><a xlink:title=" ">
<path fill="none" stroke="#63b8ff" d="M1820.74,-235.58C1878.82,-209.31 1975.61,-165.53 2025.12,-143.14"/>
<polygon fill="#63b8ff" stroke="#63b8ff" points="2026.46,-146.37 2034.13,-139.06 2023.57,-139.99 2026.46,-146.37"/>
</a>
</g>
</g>
<!-- Node86 -->
<g id="Node000086" class="node">
<title>Node86</title>
<g id="a_Node000086"><a xlink:href="layers_2layers__common_8hpp.html" target="_top" xlink:title=" ">
<polygon fill="white" stroke="#666666" points="1770.25,-200 1666.5,-200 1666.5,-180 1770.25,-180 1770.25,-200"/>
<text xml:space="preserve" text-anchor="middle" x="1718.38" y="-186.5" font-family="Helvetica,sans-Serif" font-size="10.00">layers_common.hpp</text>
</a>
</g>
</g>
<!-- Node1&#45;&gt;Node86 -->
<g id="edge27_Node000001_Node000086" class="edge">
<title>Node1&#45;&gt;Node86</title>
<g id="a_edge27_Node000001_Node000086"><a xlink:title=" ">
<path fill="none" stroke="#63b8ff" d="M1755.67,-235.75C1748.54,-227.2 1740.39,-217.42 1733.54,-209.2"/>
<polygon fill="#63b8ff" stroke="#63b8ff" points="1736.28,-207.02 1727.19,-201.58 1730.91,-211.5 1736.28,-207.02"/>
</a>
</g>
</g>
<!-- Node93 -->
<g id="Node000093" class="node">
<title>Node93</title>
<g id="a_Node000093"><a xlink:href="op__cuda_8hpp.html" target="_top" xlink:title=" ">
<polygon fill="white" stroke="#666666" points="1868.62,-200 1788.12,-200 1788.12,-180 1868.62,-180 1868.62,-200"/>
<text xml:space="preserve" text-anchor="middle" x="1828.38" y="-186.5" font-family="Helvetica,sans-Serif" font-size="10.00">../op_cuda.hpp</text>
</a>
</g>
</g>
<!-- Node1&#45;&gt;Node93 -->
<g id="edge32_Node000001_Node000093" class="edge">
<title>Node1&#45;&gt;Node93</title>
<g id="a_edge32_Node000001_Node000093"><a xlink:title=" ">
<path fill="none" stroke="#63b8ff" d="M1791.08,-235.75C1798.21,-227.2 1806.36,-217.42 1813.21,-209.2"/>
<polygon fill="#63b8ff" stroke="#63b8ff" points="1815.84,-211.5 1819.56,-201.58 1810.47,-207.02 1815.84,-211.5"/>
</a>
</g>
</g>
<!-- Node97 -->
<g id="Node000097" class="node">
<title>Node97</title>
<g id="a_Node000097"><a xlink:href="ie__ngraph_8hpp.html" target="_top" xlink:title=" ">
<polygon fill="white" stroke="#666666" points="463.25,-200 377.5,-200 377.5,-180 463.25,-180 463.25,-200"/>
<text xml:space="preserve" text-anchor="middle" x="420.38" y="-186.5" font-family="Helvetica,sans-Serif" font-size="10.00">../ie_ngraph.hpp</text>
</a>
</g>
</g>
<!-- Node1&#45;&gt;Node97 -->
<g id="edge40_Node000001_Node000097" class="edge">
<title>Node1&#45;&gt;Node97</title>
<g id="a_edge40_Node000001_Node000097"><a xlink:title=" ">
<path fill="none" stroke="#63b8ff" d="M1679.84,-252.44C1417.71,-239.65 681.58,-203.74 474.94,-193.66"/>
<polygon fill="#63b8ff" stroke="#63b8ff" points="475.18,-190.17 465.02,-193.18 474.84,-197.16 475.18,-190.17"/>
</a>
</g>
</g>
<!-- Node102 -->
<g id="Node000102" class="node">
<title>Node102</title>
<g id="a_Node000102"><a xlink:href="logger_8hpp.html" target="_top" xlink:title=" ">
<polygon fill="white" stroke="#666666" points="2308.12,-144 2212.62,-144 2212.62,-112 2308.12,-112 2308.12,-144"/>
<text xml:space="preserve" text-anchor="start" x="2220.62" y="-130.5" font-family="Helvetica,sans-Serif" font-size="10.00">opencv2/core/utils</text>
<text xml:space="preserve" text-anchor="middle" x="2260.38" y="-118.5" font-family="Helvetica,sans-Serif" font-size="10.00">/logger.hpp</text>
</a>
</g>
</g>
<!-- Node1&#45;&gt;Node102 -->
<g id="edge44_Node000001_Node000102" class="edge">
<title>Node1&#45;&gt;Node102</title>
<g id="a_edge44_Node000001_Node000102"><a xlink:title=" ">
<path fill="none" stroke="#63b8ff" d="M1855.01,-235.56C1939.06,-213.48 2074.15,-177.98 2201.1,-144.6"/>
<polygon fill="#63b8ff" stroke="#63b8ff" points="2201.93,-148 2210.71,-142.07 2200.15,-141.23 2201.93,-148"/>
</a>
</g>
</g>
<!-- Node3 -->
<g id="Node000003" class="node">
<title>Node3</title>
<g id="a_Node000003"><a xlink:title=" ">
<polygon fill="#e0e0e0" stroke="#999999" points="608.88,-76 547.88,-76 547.88,-56 608.88,-56 608.88,-76"/>
<text xml:space="preserve" text-anchor="middle" x="578.38" y="-62.5" font-family="Helvetica,sans-Serif" font-size="10.00">cvconfig.h</text>
</a>
</g>
</g>
<!-- Node2&#45;&gt;Node3 -->
<g id="edge2_Node000002_Node000003" class="edge">
<title>Node2&#45;&gt;Node3</title>
<g id="a_edge2_Node000002_Node000003"><a xlink:title=" ">
<path fill="none" stroke="#63b8ff" d="M853.28,-186.5C767.69,-180.88 576.62,-165.99 557.38,-144 543.17,-127.77 554.01,-102.8 564.68,-85.73"/>
<polygon fill="#63b8ff" stroke="#63b8ff" points="567.53,-87.76 570.24,-77.52 561.73,-83.84 567.53,-87.76"/>
</a>
</g>
</g>
<!-- Node4 -->
<g id="Node000004" class="node">
<title>Node4</title>
<g id="a_Node000004"><a xlink:href="core_8hpp.html" target="_top" xlink:title=" ">
<polygon fill="#fff0f0" stroke="red" points="1590,-76 1496.75,-76 1496.75,-56 1590,-56 1590,-76"/>
<text xml:space="preserve" text-anchor="middle" x="1543.38" y="-62.5" font-family="Helvetica,sans-Serif" font-size="10.00">opencv2/core.hpp</text>
</a>
</g>
</g>
<!-- Node2&#45;&gt;Node4 -->
<g id="edge3_Node000002_Node000004" class="edge">
<title>Node2&#45;&gt;Node4</title>
<g id="a_edge3_Node000002_Node000004"><a xlink:title=" ">
<path fill="none" stroke="#63b8ff" d="M935.32,-186.38C1015.59,-180.82 1190.67,-166.47 1246.38,-144 1268.47,-135.09 1267.5,-121.44 1289.38,-112 1352.96,-84.55 1432.42,-73.84 1485.37,-69.67"/>
<polygon fill="#63b8ff" stroke="#63b8ff" points="1485.35,-73.18 1495.07,-68.96 1484.84,-66.2 1485.35,-73.18"/>
</a>
</g>
</g>
<!-- Node60 -->
<g id="Node000060" class="node">
<title>Node60</title>
<g id="a_Node000060"><a xlink:href="configuration_8private_8hpp.html" target="_top" xlink:title=" ">
<polygon fill="#fff0f0" stroke="red" points="1062.12,-144 936.62,-144 936.62,-112 1062.12,-112 1062.12,-144"/>
<text xml:space="preserve" text-anchor="start" x="944.62" y="-130.5" font-family="Helvetica,sans-Serif" font-size="10.00">opencv2/core/utils</text>
<text xml:space="preserve" text-anchor="middle" x="999.38" y="-118.5" font-family="Helvetica,sans-Serif" font-size="10.00">/configuration.private.hpp</text>
</a>
</g>
</g>
<!-- Node2&#45;&gt;Node60 -->
<g id="edge4_Node000002_Node000060" class="edge">
<title>Node2&#45;&gt;Node60</title>
<g id="a_edge4_Node000002_Node000060"><a xlink:title=" ">
<path fill="none" stroke="#63b8ff" d="M910.78,-179.62C924.7,-171.67 945.18,-159.97 962.94,-149.82"/>
<polygon fill="#63b8ff" stroke="#63b8ff" points="964.21,-153.12 971.16,-145.12 960.74,-147.05 964.21,-153.12"/>
</a>
</g>
</g>
<!-- Node43 -->
<g id="Node000043" class="node">
<title>Node43</title>
<g id="a_Node000043"><a xlink:title=" ">
<polygon fill="#e0e0e0" stroke="#999999" points="870.88,-76 827.88,-76 827.88,-56 870.88,-56 870.88,-76"/>
<text xml:space="preserve" text-anchor="middle" x="849.38" y="-62.5" font-family="Helvetica,sans-Serif" font-size="10.00">vector</text>
</a>
</g>
</g>
<!-- Node2&#45;&gt;Node43 -->
<g id="edge11_Node000002_Node000043" class="edge">
<title>Node2&#45;&gt;Node43</title>
<g id="a_edge11_Node000002_Node000043"><a xlink:title=" ">
<path fill="none" stroke="#63b8ff" d="M853.52,-184.26C807.1,-177.93 735.67,-165.01 719.38,-144 710.66,-132.76 711.13,-123.59 719.38,-112 741.14,-81.43 785.17,-71.43 815.93,-68.27"/>
<polygon fill="#63b8ff" stroke="#63b8ff" points="816.2,-71.76 825.88,-67.46 815.63,-64.78 816.2,-71.76"/>
</a>
</g>
</g>
<!-- Node61 -->
<g id="Node000061" class="node">
<title>Node61</title>
<g id="a_Node000061"><a xlink:title=" ">
<polygon fill="#e0e0e0" stroke="#999999" points="778.62,-138 728.12,-138 728.12,-118 778.62,-118 778.62,-138"/>
<text xml:space="preserve" text-anchor="middle" x="753.38" y="-124.5" font-family="Helvetica,sans-Serif" font-size="10.00">numeric</text>
</a>
</g>
</g>
<!-- Node2&#45;&gt;Node61 -->
<g id="edge6_Node000002_Node000061" class="edge">
<title>Node2&#45;&gt;Node61</title>
<g id="a_edge6_Node000002_Node000061"><a xlink:title=" ">
<path fill="none" stroke="#63b8ff" d="M871.78,-179.63C850.09,-170.61 816.43,-156.52 787.38,-144 786.6,-143.66 785.81,-143.32 785.02,-142.98"/>
<polygon fill="#63b8ff" stroke="#63b8ff" points="786.52,-139.82 775.96,-139.02 783.72,-146.23 786.52,-139.82"/>
</a>
</g>
</g>
<!-- Node28 -->
<g id="Node000028" class="node">
<title>Node28</title>
<g id="a_Node000028"><a xlink:title=" ">
<polygon fill="#e0e0e0" stroke="#999999" points="1641,-138 1589.75,-138 1589.75,-118 1641,-118 1641,-138"/>
<text xml:space="preserve" text-anchor="middle" x="1615.38" y="-124.5" font-family="Helvetica,sans-Serif" font-size="10.00">memory</text>
</a>
</g>
</g>
<!-- Node2&#45;&gt;Node28 -->
<g id="edge7_Node000002_Node000028" class="edge">
<title>Node2&#45;&gt;Node28</title>
<g id="a_edge7_Node000002_Node000028"><a xlink:title=" ">
<path fill="none" stroke="#63b8ff" d="M935.47,-188.12C1063.95,-185.1 1456.76,-173.62 1580.38,-144 1582.23,-143.56 1584.11,-143.02 1585.99,-142.42"/>
<polygon fill="#63b8ff" stroke="#63b8ff" points="1586.98,-145.79 1595.1,-139 1584.51,-139.24 1586.98,-145.79"/>
</a>
</g>
</g>
<!-- Node18 -->
<g id="Node000018" class="node">
<title>Node18</title>
<g id="a_Node000018"><a xlink:title=" ">
<polygon fill="#e0e0e0" stroke="#999999" points="852.25,-138 796.5,-138 796.5,-118 852.25,-118 852.25,-138"/>
<text xml:space="preserve" text-anchor="middle" x="824.38" y="-124.5" font-family="Helvetica,sans-Serif" font-size="10.00">algorithm</text>
</a>
</g>
</g>
<!-- Node2&#45;&gt;Node18 -->
<g id="edge8_Node000002_Node000018" class="edge">
<title>Node2&#45;&gt;Node18</title>
<g id="a_edge8_Node000002_Node000018"><a xlink:title=" ">
<path fill="none" stroke="#63b8ff" d="M883.44,-179.62C872.79,-170.5 856.39,-156.45 843.58,-145.46"/>
<polygon fill="#63b8ff" stroke="#63b8ff" points="846.03,-142.95 836.16,-139.1 841.47,-148.26 846.03,-142.95"/>
</a>
</g>
</g>
<!-- Node62 -->
<g id="Node000062" class="node">
<title>Node62</title>
<g id="a_Node000062"><a xlink:title=" ">
<polygon fill="#e0e0e0" stroke="#999999" points="918.88,-138 869.88,-138 869.88,-118 918.88,-118 918.88,-138"/>
<text xml:space="preserve" text-anchor="middle" x="894.38" y="-124.5" font-family="Helvetica,sans-Serif" font-size="10.00">fstream</text>
</a>
</g>
</g>
<!-- Node2&#45;&gt;Node62 -->
<g id="edge9_Node000002_Node000062" class="edge">
<title>Node2&#45;&gt;Node62</title>
<g id="a_edge9_Node000002_Node000062"><a xlink:title=" ">
<path fill="none" stroke="#63b8ff" d="M894.38,-179.62C894.38,-171.56 894.38,-159.65 894.38,-149.41"/>
<polygon fill="#63b8ff" stroke="#63b8ff" points="897.88,-149.63 894.38,-139.63 890.88,-149.63 897.88,-149.63"/>
</a>
</g>
</g>
<!-- Node56 -->
<g id="Node000056" class="node">
<title>Node56</title>
<g id="a_Node000056"><a xlink:title=" ">
<polygon fill="#e0e0e0" stroke="#999999" points="2082,-76 2030.75,-76 2030.75,-56 2082,-56 2082,-76"/>
<text xml:space="preserve" text-anchor="middle" x="2056.38" y="-62.5" font-family="Helvetica,sans-Serif" font-size="10.00">sstream</text>
</a>
</g>
</g>
<!-- Node2&#45;&gt;Node56 -->
<g id="edge10_Node000002_Node000056" class="edge">
<title>Node2&#45;&gt;Node56</title>
<g id="a_edge10_Node000002_Node000056"><a xlink:title=" ">
<path fill="none" stroke="#63b8ff" d="M935.23,-187.11C1021.69,-182.66 1220.33,-169.87 1282.38,-144 1303.39,-135.24 1301.13,-120.19 1322.38,-112 1387.63,-86.84 1878.9,-71.78 2019.11,-67.97"/>
<polygon fill="#63b8ff" stroke="#63b8ff" points="2019.05,-71.47 2028.95,-67.7 2018.86,-64.47 2019.05,-71.47"/>
</a>
</g>
</g>
<!-- Node63 -->
<g id="Node000063" class="node">
<title>Node63</title>
<g id="a_Node000063"><a xlink:title=" ">
<polygon fill="#e0e0e0" stroke="#999999" points="1110.12,-138 1080.62,-138 1080.62,-118 1110.12,-118 1110.12,-138"/>
<text xml:space="preserve" text-anchor="middle" x="1095.38" y="-124.5" font-family="Helvetica,sans-Serif" font-size="10.00">set</text>
</a>
</g>
</g>
<!-- Node2&#45;&gt;Node63 -->
<g id="edge12_Node000002_Node000063" class="edge">
<title>Node2&#45;&gt;Node63</title>
<g id="a_edge12_Node000002_Node000063"><a xlink:title=" ">
<path fill="none" stroke="#63b8ff" d="M935.25,-182.33C971.9,-175.49 1026.62,-163.12 1071.38,-144 1071.49,-143.95 1071.6,-143.91 1071.71,-143.86"/>
<polygon fill="#63b8ff" stroke="#63b8ff" points="1073.29,-146.98 1080.48,-139.2 1070,-140.8 1073.29,-146.98"/>
</a>
</g>
</g>
<!-- Node64 -->
<g id="Node000064" class="node">
<title>Node64</title>
<g id="a_Node000064"><a xlink:title=" ">
<polygon fill="#e0e0e0" stroke="#999999" points="1377.38,-138 1331.38,-138 1331.38,-118 1377.38,-118 1377.38,-138"/>
<text xml:space="preserve" text-anchor="middle" x="1354.38" y="-124.5" font-family="Helvetica,sans-Serif" font-size="10.00">iterator</text>
</a>
</g>
</g>
<!-- Node2&#45;&gt;Node64 -->
<g id="edge13_Node000002_Node000064" class="edge">
<title>Node2&#45;&gt;Node64</title>
<g id="a_edge13_Node000002_Node000064"><a xlink:title=" ">
<path fill="none" stroke="#63b8ff" d="M935.28,-188.42C1011.55,-186.51 1180.19,-178.38 1317.38,-144 1319.36,-143.5 1321.37,-142.92 1323.39,-142.28"/>
<polygon fill="#63b8ff" stroke="#63b8ff" points="1324.34,-145.66 1332.55,-138.97 1321.96,-139.08 1324.34,-145.66"/>
</a>
</g>
</g>
<!-- Node65 -->
<g id="Node000065" class="node">
<title>Node65</title>
<g id="a_Node000065"><a xlink:href="ocl_8hpp.html" target="_top" xlink:title=" ">
<polygon fill="#fff0f0" stroke="red" points="1236.88,-138 1127.88,-138 1127.88,-118 1236.88,-118 1236.88,-138"/>
<text xml:space="preserve" text-anchor="middle" x="1182.38" y="-124.5" font-family="Helvetica,sans-Serif" font-size="10.00">opencv2/core/ocl.hpp</text>
</a>
</g>
</g>
<!-- Node2&#45;&gt;Node65 -->
<g id="edge14_Node000002_Node000065" class="edge">
<title>Node2&#45;&gt;Node65</title>
<g id="a_edge14_Node000002_Node000065"><a xlink:title=" ">
<path fill="none" stroke="#63b8ff" d="M935.11,-181.31C980.26,-172.69 1055.17,-158.06 1119.38,-144 1123.7,-143.05 1128.18,-142.04 1132.68,-141.01"/>
<polygon fill="#63b8ff" stroke="#63b8ff" points="1133.36,-144.45 1142.3,-138.77 1131.77,-137.63 1133.36,-144.45"/>
</a>
</g>
</g>
<!-- Node68 -->
<g id="Node000068" class="node">
<title>Node68</title>
<g id="a_Node000068"><a xlink:href="ocl__defs_8hpp.html" target="_top" xlink:title=" ">
<polygon fill="#fff0f0" stroke="red" points="672.38,-144 566.38,-144 566.38,-112 672.38,-112 672.38,-144"/>
<text xml:space="preserve" text-anchor="start" x="574.38" y="-130.5" font-family="Helvetica,sans-Serif" font-size="10.00">opencv2/core/opencl</text>
<text xml:space="preserve" text-anchor="middle" x="619.38" y="-118.5" font-family="Helvetica,sans-Serif" font-size="10.00">/ocl_defs.hpp</text>
</a>
</g>
</g>
<!-- Node2&#45;&gt;Node68 -->
<g id="edge16_Node000002_Node000068" class="edge">
<title>Node2&#45;&gt;Node68</title>
<g id="a_edge16_Node000002_Node000068"><a xlink:title=" ">
<path fill="none" stroke="#63b8ff" d="M853.31,-180.21C811.34,-171.2 744.29,-156.75 686.38,-144 685.55,-143.82 684.71,-143.63 683.87,-143.45"/>
<polygon fill="#63b8ff" stroke="#63b8ff" points="684.76,-140.06 674.24,-141.32 683.25,-146.89 684.76,-140.06"/>
</a>
</g>
</g>
<!-- Node69 -->
<g id="Node000069" class="node">
<title>Node69</title>
<g id="a_Node000069"><a xlink:href="trace_8hpp.html" target="_top" xlink:title=" ">
<polygon fill="#fff0f0" stroke="red" points="358.12,-144 262.62,-144 262.62,-112 358.12,-112 358.12,-144"/>
<text xml:space="preserve" text-anchor="start" x="270.62" y="-130.5" font-family="Helvetica,sans-Serif" font-size="10.00">opencv2/core/utils</text>
<text xml:space="preserve" text-anchor="middle" x="310.38" y="-118.5" font-family="Helvetica,sans-Serif" font-size="10.00">/trace.hpp</text>
</a>
</g>
</g>
<!-- Node2&#45;&gt;Node69 -->
<g id="edge18_Node000002_Node000069" class="edge">
<title>Node2&#45;&gt;Node69</title>
<g id="a_edge18_Node000002_Node000069"><a xlink:title=" ">
<path fill="none" stroke="#63b8ff" d="M853.4,-187.9C766.14,-185.04 555.42,-175.42 369.79,-144.21"/>
<polygon fill="#63b8ff" stroke="#63b8ff" points="370.39,-140.76 359.94,-142.53 369.21,-147.66 370.39,-140.76"/>
</a>
</g>
</g>
<!-- Node70 -->
<g id="Node000070" class="node">
<title>Node70</title>
<g id="a_Node000070"><a xlink:href="dnn_8hpp.html" target="_top" xlink:title=" ">
<polygon fill="#fff0f0" stroke="red" points="279.5,-76 189.25,-76 189.25,-56 279.5,-56 279.5,-76"/>
<text xml:space="preserve" text-anchor="middle" x="234.38" y="-62.5" font-family="Helvetica,sans-Serif" font-size="10.00">opencv2/dnn.hpp</text>
</a>
</g>
</g>
<!-- Node2&#45;&gt;Node70 -->
<g id="edge19_Node000002_Node000070" class="edge">
<title>Node2&#45;&gt;Node70</title>
<g id="a_edge19_Node000002_Node000070"><a xlink:title=" ">
<path fill="none" stroke="#63b8ff" d="M853.38,-188.87C719.21,-188.09 299.2,-182.56 253.38,-144 237.27,-130.45 233.62,-105.62 233.3,-87.82"/>
<polygon fill="#63b8ff" stroke="#63b8ff" points="236.8,-87.94 233.49,-77.87 229.8,-87.8 236.8,-87.94"/>
</a>
</g>
</g>
<!-- Node80 -->
<g id="Node000080" class="node">
<title>Node80</title>
<g id="a_Node000080"><a xlink:href="all__layers_8hpp.html" target="_top" xlink:title=" ">
<polygon fill="white" stroke="#666666" points="510.62,-138 376.12,-138 376.12,-118 510.62,-118 510.62,-138"/>
<text xml:space="preserve" text-anchor="middle" x="443.38" y="-124.5" font-family="Helvetica,sans-Serif" font-size="10.00">opencv2/dnn/all_layers.hpp</text>
</a>
</g>
</g>
<!-- Node2&#45;&gt;Node80 -->
<g id="edge20_Node000002_Node000080" class="edge">
<title>Node2&#45;&gt;Node80</title>
<g id="a_edge20_Node000002_Node000080"><a xlink:title=" ">
<path fill="none" stroke="#63b8ff" d="M853.47,-184.86C785.14,-177.77 643.51,-162.26 524.38,-144 517.42,-142.93 510.14,-141.72 502.93,-140.46"/>
<polygon fill="#63b8ff" stroke="#63b8ff" points="503.64,-137.04 493.18,-138.72 502.41,-143.93 503.64,-137.04"/>
</a>
</g>
</g>
<!-- Node2&#45;&gt;Node81 -->
<g id="edge22_Node000002_Node000081" class="edge">
<title>Node2&#45;&gt;Node81</title>
<g id="a_edge22_Node000002_Node000081"><a xlink:title=" ">
<path fill="none" stroke="#63b8ff" d="M935.32,-189.41C1078.85,-190.4 1572.42,-190.03 1976.38,-144 1984.39,-143.09 1992.8,-141.84 2001.04,-140.44"/>
<polygon fill="#63b8ff" stroke="#63b8ff" points="2001.39,-143.94 2010.63,-138.74 2000.17,-137.04 2001.39,-143.94"/>
</a>
</g>
</g>
<!-- Node83 -->
<g id="Node000083" class="node">
<title>Node83</title>
<g id="a_Node000083"><a xlink:href="dnn__common_8hpp.html" target="_top" xlink:title=" ">
<polygon fill="#fff0f0" stroke="red" points="206,-138 112.75,-138 112.75,-118 206,-118 206,-138"/>
<text xml:space="preserve" text-anchor="middle" x="159.38" y="-124.5" font-family="Helvetica,sans-Serif" font-size="10.00">dnn_common.hpp</text>
</a>
</g>
</g>
<!-- Node2&#45;&gt;Node83 -->
<g id="edge25_Node000002_Node000083" class="edge">
<title>Node2&#45;&gt;Node83</title>
<g id="a_edge25_Node000002_Node000083"><a xlink:title=" ">
<path fill="none" stroke="#63b8ff" d="M853.46,-188.75C747.94,-187.56 458.24,-180.9 220.38,-144 215.13,-143.19 209.67,-142.14 204.27,-140.98"/>
<polygon fill="#63b8ff" stroke="#63b8ff" points="205.37,-137.64 194.84,-138.81 203.8,-144.46 205.37,-137.64"/>
</a>
</g>
</g>
<!-- Node60&#45;&gt;Node43 -->
<g id="edge5_Node000060_Node000043" class="edge">
<title>Node60&#45;&gt;Node43</title>
<g id="a_edge5_Node000060_Node000043"><a xlink:title=" ">
<path fill="none" stroke="#63b8ff" d="M960.75,-111.55C936.28,-101.76 905,-89.25 881.82,-79.98"/>
<polygon fill="#63b8ff" stroke="#63b8ff" points="883.15,-76.74 872.56,-76.27 880.55,-83.24 883.15,-76.74"/>
</a>
</g>
</g>
<!-- Node65&#45;&gt;Node4 -->
<g id="edge15_Node000065_Node000004" class="edge">
<title>Node65&#45;&gt;Node4</title>
<g id="a_edge15_Node000065_Node000004"><a xlink:title=" ">
<path fill="none" stroke="#63b8ff" d="M1223.89,-117.55C1232.93,-115.61 1242.46,-113.66 1251.38,-112 1332.11,-97.02 1426.05,-83.18 1485.11,-74.91"/>
<polygon fill="#63b8ff" stroke="#63b8ff" points="1485.53,-78.39 1494.95,-73.54 1484.56,-71.45 1485.53,-78.39"/>
</a>
</g>
</g>
<!-- Node68&#45;&gt;Node3 -->
<g id="edge17_Node000068_Node000003" class="edge">
<title>Node68&#45;&gt;Node3</title>
<g id="a_edge17_Node000068_Node000003"><a xlink:title=" ">
<path fill="none" stroke="#63b8ff" d="M608.82,-111.55C603.42,-103.65 596.81,-93.97 591.13,-85.66"/>
<polygon fill="#63b8ff" stroke="#63b8ff" points="594.19,-83.94 585.66,-77.66 588.41,-87.89 594.19,-83.94"/>
</a>
</g>
</g>
<!-- Node80&#45;&gt;Node70 -->
<g id="edge21_Node000080_Node000070" class="edge">
<title>Node80&#45;&gt;Node70</title>
<g id="a_edge21_Node000080_Node000070"><a xlink:title=" ">
<path fill="none" stroke="#63b8ff" d="M410.72,-117.62C375.01,-107.37 317.61,-90.9 278.05,-79.54"/>
<polygon fill="#63b8ff" stroke="#63b8ff" points="279.18,-76.22 268.6,-76.83 277.25,-82.95 279.18,-76.22"/>
</a>
</g>
</g>
<!-- Node81&#45;&gt;Node56 -->
<g id="edge24_Node000081_Node000056" class="edge">
<title>Node81&#45;&gt;Node56</title>
<g id="a_edge24_Node000081_Node000056"><a xlink:title=" ">
<path fill="none" stroke="#63b8ff" d="M2056.38,-117.62C2056.38,-109.56 2056.38,-97.65 2056.38,-87.41"/>
<polygon fill="#63b8ff" stroke="#63b8ff" points="2059.88,-87.63 2056.38,-77.63 2052.88,-87.63 2059.88,-87.63"/>
</a>
</g>
</g>
<!-- Node82 -->
<g id="Node000082" class="node">
<title>Node82</title>
<g id="a_Node000082"><a xlink:title=" ">
<polygon fill="#e0e0e0" stroke="#999999" points="2160.12,-76 2106.62,-76 2106.62,-56 2160.12,-56 2160.12,-76"/>
<text xml:space="preserve" text-anchor="middle" x="2133.38" y="-62.5" font-family="Helvetica,sans-Serif" font-size="10.00">iostream</text>
</a>
</g>
</g>
<!-- Node81&#45;&gt;Node82 -->
<g id="edge23_Node000081_Node000082" class="edge">
<title>Node81&#45;&gt;Node82</title>
<g id="a_edge23_Node000081_Node000082"><a xlink:title=" ">
<path fill="none" stroke="#63b8ff" d="M2068.41,-117.62C2080.16,-108.47 2098.29,-94.34 2112.42,-83.33"/>
<polygon fill="#63b8ff" stroke="#63b8ff" points="2114.5,-86.15 2120.23,-77.24 2110.2,-80.63 2114.5,-86.15"/>
</a>
</g>
</g>
<!-- Node83&#45;&gt;Node70 -->
<g id="edge26_Node000083_Node000070" class="edge">
<title>Node83&#45;&gt;Node70</title>
<g id="a_edge26_Node000083_Node000070"><a xlink:title=" ">
<path fill="none" stroke="#63b8ff" d="M171.09,-117.62C182.61,-108.41 200.41,-94.17 214.2,-83.14"/>
<polygon fill="#63b8ff" stroke="#63b8ff" points="216.18,-86.04 221.8,-77.06 211.81,-80.57 216.18,-86.04"/>
</a>
</g>
</g>
<!-- Node86&#45;&gt;Node70 -->
<g id="edge28_Node000086_Node000070" class="edge">
<title>Node86&#45;&gt;Node70</title>
<g id="a_edge28_Node000086_Node000070"><a xlink:title=" ">
<path fill="none" stroke="#63b8ff" d="M1666.04,-189.41C1605.3,-188.02 1503.37,-179.84 1424.38,-144 1404.27,-134.88 1406.96,-119.97 1386.38,-112 1360.58,-102.01 519.62,-75.7 291.16,-68.72"/>
<polygon fill="#63b8ff" stroke="#63b8ff" points="291.42,-65.23 281.32,-68.42 291.21,-72.22 291.42,-65.23"/>
</a>
</g>
</g>
<!-- Node86&#45;&gt;Node81 -->
<g id="edge29_Node000086_Node000081" class="edge">
<title>Node86&#45;&gt;Node81</title>
<g id="a_edge29_Node000086_Node000081"><a xlink:title=" ">
<path fill="none" stroke="#63b8ff" d="M1770.3,-180.14C1822.42,-171.2 1905.01,-156.91 1976.38,-144 1982.61,-142.87 1989.12,-141.68 1995.61,-140.48"/>
<polygon fill="#63b8ff" stroke="#63b8ff" points="1995.78,-144 2004.98,-138.74 1994.5,-137.12 1995.78,-144"/>
</a>
</g>
</g>
<!-- Node87 -->
<g id="Node000087" class="node">
<title>Node87</title>
<g id="a_Node000087"><a xlink:href="layers_2layers__common_8simd_8hpp.html" target="_top" xlink:title=" ">
<polygon fill="#fff0f0" stroke="red" points="1793.25,-138 1659.5,-138 1659.5,-118 1793.25,-118 1793.25,-138"/>
<text xml:space="preserve" text-anchor="middle" x="1726.38" y="-124.5" font-family="Helvetica,sans-Serif" font-size="10.00">./layers_common.simd.hpp</text>
</a>
</g>
</g>
<!-- Node86&#45;&gt;Node87 -->
<g id="edge30_Node000086_Node000087" class="edge">
<title>Node86&#45;&gt;Node87</title>
<g id="a_edge30_Node000086_Node000087"><a xlink:title=" ">
<path fill="none" stroke="#63b8ff" d="M1719.62,-179.62C1720.7,-171.56 1722.29,-159.65 1723.65,-149.41"/>
<polygon fill="#63b8ff" stroke="#63b8ff" points="1727.11,-149.99 1724.96,-139.61 1720.17,-149.06 1727.11,-149.99"/>
</a>
</g>
</g>
<!-- Node92 -->
<g id="Node000092" class="node">
<title>Node92</title>
<g id="a_Node000092"><a xlink:title=" ">
<polygon fill="#e0e0e0" stroke="#999999" points="1571.5,-144 1433.25,-144 1433.25,-112 1571.5,-112 1571.5,-144"/>
<text xml:space="preserve" text-anchor="start" x="1441.25" y="-130.5" font-family="Helvetica,sans-Serif" font-size="10.00">layers/layers_common.simd</text>
<text xml:space="preserve" text-anchor="middle" x="1502.38" y="-118.5" font-family="Helvetica,sans-Serif" font-size="10.00">_declarations.hpp</text>
</a>
</g>
</g>
<!-- Node86&#45;&gt;Node92 -->
<g id="edge31_Node000086_Node000092" class="edge">
<title>Node86&#45;&gt;Node92</title>
<g id="a_edge31_Node000086_Node000092"><a xlink:title=" ">
<path fill="none" stroke="#63b8ff" d="M1684.62,-179.62C1653.85,-171.08 1607.48,-158.19 1569.21,-147.57"/>
<polygon fill="#63b8ff" stroke="#63b8ff" points="1570.17,-144.2 1559.6,-144.9 1568.3,-150.94 1570.17,-144.2"/>
</a>
</g>
</g>
<!-- Node93&#45;&gt;Node4 -->
<g id="edge34_Node000093_Node000004" class="edge">
<title>Node93&#45;&gt;Node4</title>
<g id="a_edge34_Node000093_Node000004"><a xlink:title=" ">
<path fill="none" stroke="#63b8ff" d="M1828.13,-179.5C1827.14,-163.05 1822.62,-129.35 1802.38,-112 1772.93,-86.77 1668.47,-75.21 1601.55,-70.28"/>
<polygon fill="#63b8ff" stroke="#63b8ff" points="1602.06,-66.81 1591.84,-69.6 1601.57,-73.79 1602.06,-66.81"/>
</a>
</g>
</g>
<!-- Node93&#45;&gt;Node28 -->
<g id="edge38_Node000093_Node000028" class="edge">
<title>Node93&#45;&gt;Node28</title>
<g id="a_edge38_Node000093_Node000028"><a xlink:title=" ">
<path fill="none" stroke="#63b8ff" d="M1787.91,-180.68C1751.49,-172.74 1696.72,-159.68 1650.38,-144 1649.04,-143.55 1647.68,-143.07 1646.31,-142.56"/>
<polygon fill="#63b8ff" stroke="#63b8ff" points="1647.89,-139.42 1637.3,-138.99 1645.31,-145.93 1647.89,-139.42"/>
</a>
</g>
</g>
<!-- Node93&#45;&gt;Node64 -->
<g id="edge39_Node000093_Node000064" class="edge">
<title>Node93&#45;&gt;Node64</title>
<g id="a_edge39_Node000093_Node000064"><a xlink:title=" ">
<path fill="none" stroke="#63b8ff" d="M1787.77,-181.28C1784.94,-180.82 1782.12,-180.39 1779.38,-180 1622.37,-157.66 1581.03,-168.65 1424.38,-144 1412.71,-142.16 1400.06,-139.63 1388.77,-137.16"/>
<polygon fill="#63b8ff" stroke="#63b8ff" points="1389.59,-133.76 1379.07,-134.98 1388.05,-140.58 1389.59,-133.76"/>
</a>
</g>
</g>
<!-- Node93&#45;&gt;Node81 -->
<g id="edge33_Node000093_Node000081" class="edge">
<title>Node93&#45;&gt;Node81</title>
<g id="a_edge33_Node000093_Node000081"><a xlink:title=" ">
<path fill="none" stroke="#63b8ff" d="M1864.25,-179.56C1903.39,-169.26 1966.21,-152.73 2009.29,-141.39"/>
<polygon fill="#63b8ff" stroke="#63b8ff" points="2010.09,-144.8 2018.87,-138.87 2008.31,-138.03 2010.09,-144.8"/>
</a>
</g>
</g>
<!-- Node94 -->
<g id="Node000094" class="node">
<title>Node94</title>
<g id="a_Node000094"><a xlink:href="core_2include_2opencv2_2core_2cuda_8hpp.html" target="_top" xlink:title=" ">
<polygon fill="#fff0f0" stroke="red" points="1967,-138 1849.75,-138 1849.75,-118 1967,-118 1967,-138"/>
<text xml:space="preserve" text-anchor="middle" x="1908.38" y="-124.5" font-family="Helvetica,sans-Serif" font-size="10.00">opencv2/core/cuda.hpp</text>
</a>
</g>
</g>
<!-- Node93&#45;&gt;Node94 -->
<g id="edge35_Node000093_Node000094" class="edge">
<title>Node93&#45;&gt;Node94</title>
<g id="a_edge35_Node000093_Node000094"><a xlink:title=" ">
<path fill="none" stroke="#63b8ff" d="M1840.88,-179.62C1853.2,-170.38 1872.29,-156.07 1887.02,-145.01"/>
<polygon fill="#63b8ff" stroke="#63b8ff" points="1888.85,-148.02 1894.75,-139.22 1884.65,-142.42 1888.85,-148.02"/>
</a>
</g>
</g>
<!-- Node20 -->
<g id="Node000020" class="node">
<title>Node20</title>
<g id="a_Node000020"><a xlink:title=" ">
<polygon fill="#e0e0e0" stroke="#999999" points="2194.5,-138 2146.25,-138 2146.25,-118 2194.5,-118 2194.5,-138"/>
<text xml:space="preserve" text-anchor="middle" x="2170.38" y="-124.5" font-family="Helvetica,sans-Serif" font-size="10.00">cstddef</text>
</a>
</g>
</g>
<!-- Node93&#45;&gt;Node20 -->
<g id="edge37_Node000093_Node000020" class="edge">
<title>Node93&#45;&gt;Node20</title>
<g id="a_edge37_Node000093_Node000020"><a xlink:title=" ">
<path fill="none" stroke="#63b8ff" d="M1868.98,-186.57C1928.6,-182.22 2042.9,-170.91 2136.38,-144 2137.77,-143.6 2139.18,-143.15 2140.6,-142.67"/>
<polygon fill="#63b8ff" stroke="#63b8ff" points="2141.84,-145.94 2149.88,-139.05 2139.3,-139.42 2141.84,-145.94"/>
</a>
</g>
</g>
<!-- Node94&#45;&gt;Node4 -->
<g id="edge36_Node000094_Node000004" class="edge">
<title>Node94&#45;&gt;Node4</title>
<g id="a_edge36_Node000094_Node000004"><a xlink:title=" ">
<path fill="none" stroke="#63b8ff" d="M1864.05,-117.52C1854.6,-115.61 1844.67,-113.67 1835.38,-112 1754.56,-97.48 1660.64,-83.52 1601.6,-75.1"/>
<polygon fill="#63b8ff" stroke="#63b8ff" points="1602.17,-71.65 1591.77,-73.71 1601.18,-78.58 1602.17,-71.65"/>
</a>
</g>
</g>
<!-- Node98 -->
<g id="Node000098" class="node">
<title>Node98</title>
<g id="a_Node000098"><a xlink:href="op__inf__engine_8hpp.html" target="_top" xlink:title=" ">
<polygon fill="#fff0f0" stroke="red" points="94.75,-138 0,-138 0,-118 94.75,-118 94.75,-138"/>
<text xml:space="preserve" text-anchor="middle" x="47.38" y="-124.5" font-family="Helvetica,sans-Serif" font-size="10.00">op_inf_engine.hpp</text>
</a>
</g>
</g>
<!-- Node97&#45;&gt;Node98 -->
<g id="edge41_Node000097_Node000098" class="edge">
<title>Node97&#45;&gt;Node98</title>
<g id="a_edge41_Node000097_Node000098"><a xlink:title=" ">
<path fill="none" stroke="#63b8ff" d="M377.02,-184.52C315.71,-177.81 200.32,-163.79 103.38,-144 99.34,-143.18 95.17,-142.23 91,-141.23"/>
<polygon fill="#63b8ff" stroke="#63b8ff" points="92.11,-137.9 81.55,-138.84 90.39,-144.69 92.11,-137.9"/>
</a>
</g>
</g>
<!-- Node98&#45;&gt;Node70 -->
<g id="edge42_Node000098_Node000070" class="edge">
<title>Node98&#45;&gt;Node70</title>
<g id="a_edge42_Node000098_Node000070"><a xlink:title=" ">
<path fill="none" stroke="#63b8ff" d="M76.59,-117.62C108.2,-107.48 158.8,-91.25 194.16,-79.9"/>
<polygon fill="#63b8ff" stroke="#63b8ff" points="195.16,-83.26 203.61,-76.87 193.02,-76.59 195.16,-83.26"/>
</a>
</g>
</g>
<!-- Node102&#45;&gt;Node56 -->
<g id="edge46_Node000102_Node000056" class="edge">
<title>Node102&#45;&gt;Node56</title>
<g id="a_edge46_Node000102_Node000056"><a xlink:title=" ">
<path fill="none" stroke="#63b8ff" d="M2212.29,-112.86C2175.78,-102.12 2126.33,-87.58 2092.99,-77.77"/>
<polygon fill="#63b8ff" stroke="#63b8ff" points="2094.38,-74.53 2083.8,-75.07 2092.4,-81.25 2094.38,-74.53"/>
</a>
</g>
</g>
<!-- Node102&#45;&gt;Node82 -->
<g id="edge45_Node000102_Node000082" class="edge">
<title>Node102&#45;&gt;Node82</title>
<g id="a_edge45_Node000102_Node000082"><a xlink:title=" ">
<path fill="none" stroke="#63b8ff" d="M2227.67,-111.55C2207.92,-102.22 2182.92,-90.41 2163.63,-81.29"/>
<polygon fill="#63b8ff" stroke="#63b8ff" points="2165.19,-78.16 2154.66,-77.05 2162.2,-84.49 2165.19,-78.16"/>
</a>
</g>
</g>
<!-- Node7 -->
<g id="Node000007" class="node">
<title>Node7</title>
<g id="a_Node000007"><a xlink:title=" ">
<polygon fill="#e0e0e0" stroke="#999999" points="2232.12,-76 2184.62,-76 2184.62,-56 2232.12,-56 2232.12,-76"/>
<text xml:space="preserve" text-anchor="middle" x="2208.38" y="-62.5" font-family="Helvetica,sans-Serif" font-size="10.00">limits.h</text>
</a>
</g>
</g>
<!-- Node102&#45;&gt;Node7 -->
<g id="edge47_Node000102_Node000007" class="edge">
<title>Node102&#45;&gt;Node7</title>
<g id="a_edge47_Node000102_Node000007"><a xlink:title=" ">
<path fill="none" stroke="#63b8ff" d="M2246.98,-111.55C2239.91,-103.39 2231.2,-93.33 2223.84,-84.84"/>
<polygon fill="#63b8ff" stroke="#63b8ff" points="2226.71,-82.82 2217.52,-77.55 2221.42,-87.4 2226.71,-82.82"/>
</a>
</g>
</g>
<!-- Node103 -->
<g id="Node000103" class="node">
<title>Node103</title>
<g id="a_Node000103"><a xlink:href="logger_8defines_8hpp.html" target="_top" xlink:title=" ">
<polygon fill="white" stroke="#666666" points="2337.12,-20 2241.62,-20 2241.62,0 2337.12,0 2337.12,-20"/>
<text xml:space="preserve" text-anchor="middle" x="2289.38" y="-6.5" font-family="Helvetica,sans-Serif" font-size="10.00">logger.defines.hpp</text>
</a>
</g>
</g>
<!-- Node102&#45;&gt;Node103 -->
<g id="edge48_Node000102_Node000103" class="edge">
<title>Node102&#45;&gt;Node103</title>
<g id="a_edge48_Node000102_Node000103"><a xlink:title=" ">
<path fill="none" stroke="#63b8ff" d="M2264.17,-111.84C2269.32,-91.22 2278.55,-54.29 2284.3,-31.31"/>
<polygon fill="#63b8ff" stroke="#63b8ff" points="2287.62,-32.46 2286.65,-21.91 2280.83,-30.76 2287.62,-32.46"/>
</a>
</g>
</g>
<!-- Node104 -->
<g id="Node000104" class="node">
<title>Node104</title>
<g id="a_Node000104"><a xlink:href="logtag_8hpp.html" target="_top" xlink:title=" ">
<polygon fill="#fff0f0" stroke="red" points="2349.88,-76 2288.88,-76 2288.88,-56 2349.88,-56 2349.88,-76"/>
<text xml:space="preserve" text-anchor="middle" x="2319.38" y="-62.5" font-family="Helvetica,sans-Serif" font-size="10.00">logtag.hpp</text>
</a>
</g>
</g>
<!-- Node102&#45;&gt;Node104 -->
<g id="edge49_Node000102_Node000104" class="edge">
<title>Node102&#45;&gt;Node104</title>
<g id="a_edge49_Node000102_Node000104"><a xlink:title=" ">
<path fill="none" stroke="#63b8ff" d="M2275.57,-111.55C2283.68,-103.3 2293.69,-93.12 2302.09,-84.57"/>
<polygon fill="#63b8ff" stroke="#63b8ff" points="2304.55,-87.07 2309.06,-77.49 2299.56,-82.16 2304.55,-87.07"/>
</a>
</g>
</g>
<!-- Node104&#45;&gt;Node103 -->
<g id="edge50_Node000104_Node000103" class="edge">
<title>Node104&#45;&gt;Node103</title>
<g id="a_edge50_Node000104_Node000103"><a xlink:title=" ">
<path fill="none" stroke="#63b8ff" d="M2314.15,-55.59C2310.28,-48.63 2304.87,-38.89 2300.09,-30.29"/>
<polygon fill="#63b8ff" stroke="#63b8ff" points="2303.19,-28.66 2295.28,-21.62 2297.07,-32.06 2303.19,-28.66"/>
</a>
</g>
</g>
</g>
</svg>
