<?xml version="1.0" encoding="UTF-8" standalone="no"?>
<!DOCTYPE svg PUBLIC "-//W3C//DTD SVG 1.1//EN"
 "http://www.w3.org/Graphics/SVG/1.1/DTD/svg11.dtd">
<!-- Generated by graphviz version 16.0.0 (20260814.1018)
 -->
<!-- Title: C:/Users/YARADEYENISAIZAGUIRR/opencv/modules/core/src/ocl.cpp Pages: 1 -->
<!--zoomable 220 -->

<svg id="main" version="1.1" xmlns="http://www.w3.org/2000/svg" xmlns:xlink="http://www.w3.org/1999/xlink" xml:space="preserve">

<style type="text/css"><![CDATA[
.node, .edge {opacity: 0.7;}
.node.selected, .edge.selected {opacity: 1;}
.edge:hover path { stroke: red; }
.edge:hover polygon { stroke: red; fill: red; }
]]></style>

<defs>
  <circle id="rim" cx="0" cy="0" r="7"/>
  <circle id="rim2" cx="0" cy="0" r="3.5"/>
  <g id="zoomPlus">
    <use xlink:href="#rim" fill="#404040"><set attributeName="fill" to="#808080" begin="zoomplus.mouseover" end="zoomplus.mouseout"/></use>
    <path d="M-4,0h8M0,-4v8" fill="none" stroke="white" stroke-width="1.5" pointer-events="none"/>
  </g>
  <g id="zoomMin">
    <use xlink:href="#rim" fill="#404040"><set attributeName="fill" to="#808080" begin="zoomminus.mouseover" end="zoomminus.mouseout"/></use>
    <path d="M-4,0h8" fill="none" stroke="white" stroke-width="1.5" pointer-events="none"/>
  </g>
  <g id="arrowUp" transform="translate(30 24)">
    <use xlink:href="#rim"/>
    <path pointer-events="none" fill="none" stroke="white" stroke-width="1.5" d="M0,-3.0v7 M-2.5,-0.5L0,-3.0L2.5,-0.5"/>
  </g>
  <g id="arrowRight" transform="rotate(90) translate(36 -43)">
    <use xlink:href="#rim"/>
    <path pointer-events="none" fill="none" stroke="white" stroke-width="1.5" d="M0,-3.0v7 M-2.5,-0.5L0,-3.0L2.5,-0.5"/>
  </g>
  <g id="arrowDown" transform="rotate(180) translate(-30 -48)">
    <use xlink:href="#rim"/>
    <path pointer-events="none" fill="none" stroke="white" stroke-width="1.5" d="M0,-3.0v7 M-2.5,-0.5L0,-3.0L2.5,-0.5"/>
  </g>
  <g id="arrowLeft" transform="rotate(270) translate(-36 17)">
    <use xlink:href="#rim"/>
    <path pointer-events="none" fill="none" stroke="white" stroke-width="1.5" d="M0,-3.0v7 M-2.5,-0.5L0,-3.0L2.5,-0.5"/>
  </g>
  <g id="resetDef">
    <use xlink:href="#rim2" fill="#404040"><set attributeName="fill" to="#808080" begin="reset.mouseover" end="reset.mouseout"/></use>
  </g>
</defs>
<script type="application/ecmascript" xlink:href="svg.min.js"/>
<svg id="graph" class="graph" data-view-width="2703" data-view-height="220" data-section-id="dynsection-0">
<g id="viewport">
<title>C:/Users/YARADEYENISAIZAGUIRR/opencv/modules/core/src/ocl.cpp</title>
<!-- Node1 -->
<g id="Node000001" class="node">
<title>Node1</title>
<g id="a_Node000001"><a xlink:title=" ">
<polygon fill="#999999" stroke="#666666" points="1470.88,-212 1284.62,-212 1284.62,-168 1470.88,-168 1470.88,-212"/>
<text xml:space="preserve" text-anchor="start" x="1292.62" y="-198.5" font-family="Helvetica,sans-Serif" font-size="10.00">C:/Users/YARADEYENISAIZAGUIRR</text>
<text xml:space="preserve" text-anchor="start" x="1292.62" y="-186.5" font-family="Helvetica,sans-Serif" font-size="10.00">/opencv/modules/core/src</text>
<text xml:space="preserve" text-anchor="middle" x="1377.75" y="-174.5" font-family="Helvetica,sans-Serif" font-size="10.00">/ocl.cpp</text>
</a>
</g>
</g>
<!-- Node2 -->
<g id="Node000002" class="node">
<title>Node2</title>
<g id="a_Node000002"><a xlink:href="core_2src_2precomp_8hpp.html" target="_top" xlink:title=" ">
<polygon fill="white" stroke="#666666" points="1359.88,-132 1287.62,-132 1287.62,-112 1359.88,-112 1359.88,-132"/>
<text xml:space="preserve" text-anchor="middle" x="1323.75" y="-118.5" font-family="Helvetica,sans-Serif" font-size="10.00">precomp.hpp</text>
</a>
</g>
</g>
<!-- Node1&#45;&gt;Node2 -->
<g id="edge1_Node000001_Node000002" class="edge">
<title>Node1&#45;&gt;Node2</title>
<g id="a_edge1_Node000001_Node000002"><a xlink:title=" ">
<path fill="none" stroke="#63b8ff" d="M1360.37,-167.75C1353.36,-159.2 1345.37,-149.42 1338.64,-141.2"/>
<polygon fill="#63b8ff" stroke="#63b8ff" points="1341.46,-139.11 1332.41,-133.59 1336.04,-143.55 1341.46,-139.11"/>
</a>
</g>
</g>
<!-- Node85 -->
<g id="Node000085" class="node">
<title>Node85</title>
<g id="a_Node000085"><a xlink:href="ocl__disabled_8impl_8hpp.html" target="_top" xlink:title=" ">
<polygon fill="white" stroke="#666666" points="2080.62,-132 1970.88,-132 1970.88,-112 2080.62,-112 2080.62,-132"/>
<text xml:space="preserve" text-anchor="middle" x="2025.75" y="-118.5" font-family="Helvetica,sans-Serif" font-size="10.00">ocl_disabled.impl.hpp</text>
</a>
</g>
</g>
<!-- Node1&#45;&gt;Node85 -->
<g id="edge35_Node000001_Node000085" class="edge">
<title>Node1&#45;&gt;Node85</title>
<g id="a_edge35_Node000001_Node000085"><a xlink:title=" ">
<path fill="none" stroke="#63b8ff" d="M1471.28,-179.47C1603.91,-165.97 1843.35,-141.58 1959.28,-129.77"/>
<polygon fill="#63b8ff" stroke="#63b8ff" points="1959.35,-133.28 1968.94,-128.79 1958.64,-126.32 1959.35,-133.28"/>
</a>
</g>
</g>
<!-- Node3 -->
<g id="Node000003" class="node">
<title>Node3</title>
<g id="a_Node000003"><a xlink:title=" ">
<polygon fill="#e0e0e0" stroke="#999999" points="2449.75,-76 2301.75,-76 2301.75,-56 2449.75,-56 2449.75,-76"/>
<text xml:space="preserve" text-anchor="middle" x="2375.75" y="-62.5" font-family="Helvetica,sans-Serif" font-size="10.00">opencv2/opencv_modules.hpp</text>
</a>
</g>
</g>
<!-- Node2&#45;&gt;Node3 -->
<g id="edge2_Node000002_Node000003" class="edge">
<title>Node2&#45;&gt;Node3</title>
<g id="a_edge2_Node000002_Node000003"><a xlink:title=" ">
<path fill="none" stroke="#63b8ff" d="M1360.32,-120.11C1487.23,-116.87 1920.63,-104.35 2290.1,-76.16"/>
<polygon fill="#63b8ff" stroke="#63b8ff" points="2290.35,-79.65 2300.05,-75.39 2289.81,-72.67 2290.35,-79.65"/>
</a>
</g>
</g>
<!-- Node4 -->
<g id="Node000004" class="node">
<title>Node4</title>
<g id="a_Node000004"><a xlink:title=" ">
<polygon fill="#e0e0e0" stroke="#999999" points="184.25,-20 123.25,-20 123.25,0 184.25,0 184.25,-20"/>
<text xml:space="preserve" text-anchor="middle" x="153.75" y="-6.5" font-family="Helvetica,sans-Serif" font-size="10.00">cvconfig.h</text>
</a>
</g>
</g>
<!-- Node2&#45;&gt;Node4 -->
<g id="edge3_Node000002_Node000004" class="edge">
<title>Node2&#45;&gt;Node4</title>
<g id="a_edge3_Node000002_Node000004"><a xlink:title=" ">
<path fill="none" stroke="#63b8ff" d="M1287.38,-120.76C1096.53,-119.37 217.7,-111.09 172.75,-76 159.43,-65.6 155.08,-46.39 153.82,-31.53"/>
<polygon fill="#63b8ff" stroke="#63b8ff" points="157.33,-31.74 153.43,-21.89 150.34,-32.02 157.33,-31.74"/>
</a>
</g>
</g>
<!-- Node5 -->
<g id="Node000005" class="node">
<title>Node5</title>
<g id="a_Node000005"><a xlink:href="utility_8hpp.html" target="_top" xlink:title=" ">
<polygon fill="#fff0f0" stroke="red" points="300.12,-76 181.38,-76 181.38,-56 300.12,-56 300.12,-76"/>
<text xml:space="preserve" text-anchor="middle" x="240.75" y="-62.5" font-family="Helvetica,sans-Serif" font-size="10.00">opencv2/core/utility.hpp</text>
</a>
</g>
</g>
<!-- Node2&#45;&gt;Node5 -->
<g id="edge4_Node000002_Node000005" class="edge">
<title>Node2&#45;&gt;Node5</title>
<g id="a_edge4_Node000002_Node000005"><a xlink:title=" ">
<path fill="none" stroke="#63b8ff" d="M1287.3,-120.51C1156.75,-118.5 700.17,-109.45 312.02,-76.11"/>
<polygon fill="#63b8ff" stroke="#63b8ff" points="312.33,-72.63 302.06,-75.25 311.72,-79.6 312.33,-72.63"/>
</a>
</g>
</g>
<!-- Node60 -->
<g id="Node000060" class="node">
<title>Node60</title>
<g id="a_Node000060"><a xlink:href="core_2include_2opencv2_2core_2cuda_8hpp.html" target="_top" xlink:title=" ">
<polygon fill="#fff0f0" stroke="red" points="829.38,-20 712.12,-20 712.12,0 829.38,0 829.38,-20"/>
<text xml:space="preserve" text-anchor="middle" x="770.75" y="-6.5" font-family="Helvetica,sans-Serif" font-size="10.00">opencv2/core/cuda.hpp</text>
</a>
</g>
</g>
<!-- Node2&#45;&gt;Node60 -->
<g id="edge5_Node000002_Node000060" class="edge">
<title>Node2&#45;&gt;Node60</title>
<g id="a_edge5_Node000002_Node000060"><a xlink:title=" ">
<path fill="none" stroke="#63b8ff" d="M1287.16,-121.64C1212.21,-121.99 1036.55,-117.81 896.75,-76 858.78,-64.64 818.74,-41.86 794.24,-26.52"/>
<polygon fill="#63b8ff" stroke="#63b8ff" points="796.33,-23.7 786.02,-21.27 792.57,-29.6 796.33,-23.7"/>
</a>
</g>
</g>
<!-- Node63 -->
<g id="Node000063" class="node">
<title>Node63</title>
<g id="a_Node000063"><a xlink:href="opengl_8hpp.html" target="_top" xlink:title=" ">
<polygon fill="#fff0f0" stroke="red" points="443.12,-76 318.38,-76 318.38,-56 443.12,-56 443.12,-76"/>
<text xml:space="preserve" text-anchor="middle" x="380.75" y="-62.5" font-family="Helvetica,sans-Serif" font-size="10.00">opencv2/core/opengl.hpp</text>
</a>
</g>
</g>
<!-- Node2&#45;&gt;Node63 -->
<g id="edge6_Node000002_Node000063" class="edge">
<title>Node2&#45;&gt;Node63</title>
<g id="a_edge6_Node000002_Node000063"><a xlink:title=" ">
<path fill="none" stroke="#63b8ff" d="M1287.13,-120.09C1168.47,-116.92 783.65,-105.05 454.63,-76.19"/>
<polygon fill="#63b8ff" stroke="#63b8ff" points="455.22,-72.73 444.95,-75.34 454.6,-79.71 455.22,-72.73"/>
</a>
</g>
</g>
<!-- Node67 -->
<g id="Node000067" class="node">
<title>Node67</title>
<g id="a_Node000067"><a xlink:href="va__intel_8hpp.html" target="_top" xlink:title=" ">
<polygon fill="#fff0f0" stroke="red" points="590.75,-76 460.75,-76 460.75,-56 590.75,-56 590.75,-76"/>
<text xml:space="preserve" text-anchor="middle" x="525.75" y="-62.5" font-family="Helvetica,sans-Serif" font-size="10.00">opencv2/core/va_intel.hpp</text>
</a>
</g>
</g>
<!-- Node2&#45;&gt;Node67 -->
<g id="edge7_Node000002_Node000067" class="edge">
<title>Node2&#45;&gt;Node67</title>
<g id="a_edge7_Node000002_Node000067"><a xlink:title=" ">
<path fill="none" stroke="#63b8ff" d="M1287.15,-119.49C1182.28,-115 871.45,-100.55 602.27,-76.18"/>
<polygon fill="#63b8ff" stroke="#63b8ff" points="602.88,-72.72 592.6,-75.3 602.25,-79.69 602.88,-72.72"/>
</a>
</g>
</g>
<!-- Node68 -->
<g id="Node000068" class="node">
<title>Node68</title>
<g id="a_Node000068"><a xlink:href="private_8hpp.html" target="_top" xlink:title=" ">
<polygon fill="#fff0f0" stroke="red" points="125.5,-76 0,-76 0,-56 125.5,-56 125.5,-76"/>
<text xml:space="preserve" text-anchor="middle" x="62.75" y="-62.5" font-family="Helvetica,sans-Serif" font-size="10.00">opencv2/core/private.hpp</text>
</a>
</g>
</g>
<!-- Node2&#45;&gt;Node68 -->
<g id="edge8_Node000002_Node000068" class="edge">
<title>Node2&#45;&gt;Node68</title>
<g id="a_edge8_Node000002_Node000068"><a xlink:title=" ">
<path fill="none" stroke="#63b8ff" d="M1287.36,-120.66C1142.31,-119.06 591.46,-110.93 139.75,-76 138.89,-75.93 138.03,-75.87 137.17,-75.79"/>
<polygon fill="#63b8ff" stroke="#63b8ff" points="137.52,-72.31 127.25,-74.91 136.9,-79.28 137.52,-72.31"/>
</a>
</g>
</g>
<!-- Node70 -->
<g id="Node000070" class="node">
<title>Node70</title>
<g id="a_Node000070"><a xlink:href="private_8cuda_8hpp.html" target="_top" xlink:title=" ">
<polygon fill="#fff0f0" stroke="red" points="824.5,-76 675,-76 675,-56 824.5,-56 824.5,-76"/>
<text xml:space="preserve" text-anchor="middle" x="749.75" y="-62.5" font-family="Helvetica,sans-Serif" font-size="10.00">opencv2/core/private.cuda.hpp</text>
</a>
</g>
</g>
<!-- Node2&#45;&gt;Node70 -->
<g id="edge10_Node000002_Node000070" class="edge">
<title>Node2&#45;&gt;Node70</title>
<g id="a_edge10_Node000002_Node000070"><a xlink:title=" ">
<path fill="none" stroke="#63b8ff" d="M1287.24,-117.72C1206.41,-110.42 1006.25,-92.24 838.75,-76 837.74,-75.9 836.71,-75.8 835.69,-75.7"/>
<polygon fill="#63b8ff" stroke="#63b8ff" points="836.33,-72.25 826.03,-74.75 835.64,-79.22 836.33,-72.25"/>
</a>
</g>
</g>
<!-- Node72 -->
<g id="Node000072" class="node">
<title>Node72</title>
<g id="a_Node000072"><a xlink:title=" ">
<polygon fill="#e0e0e0" stroke="#999999" points="656.88,-76 608.62,-76 608.62,-56 656.88,-56 656.88,-76"/>
<text xml:space="preserve" text-anchor="middle" x="632.75" y="-62.5" font-family="Helvetica,sans-Serif" font-size="10.00">ctype.h</text>
</a>
</g>
</g>
<!-- Node2&#45;&gt;Node72 -->
<g id="edge13_Node000002_Node000072" class="edge">
<title>Node2&#45;&gt;Node72</title>
<g id="a_edge13_Node000002_Node000072"><a xlink:title=" ">
<path fill="none" stroke="#63b8ff" d="M1287.43,-121.03C1189.02,-120.57 908.96,-115.75 668.21,-76.08"/>
<polygon fill="#63b8ff" stroke="#63b8ff" points="669.07,-72.68 658.63,-74.48 667.92,-79.58 669.07,-72.68"/>
</a>
</g>
</g>
<!-- Node73 -->
<g id="Node000073" class="node">
<title>Node73</title>
<g id="a_Node000073"><a xlink:title=" ">
<polygon fill="#e0e0e0" stroke="#999999" points="928.25,-20 885.25,-20 885.25,0 928.25,0 928.25,-20"/>
<text xml:space="preserve" text-anchor="middle" x="906.75" y="-6.5" font-family="Helvetica,sans-Serif" font-size="10.00">float.h</text>
</a>
</g>
</g>
<!-- Node2&#45;&gt;Node73 -->
<g id="edge14_Node000002_Node000073" class="edge">
<title>Node2&#45;&gt;Node73</title>
<g id="a_edge14_Node000002_Node000073"><a xlink:title=" ">
<path fill="none" stroke="#63b8ff" d="M1287.22,-119.7C1190.86,-115.89 935.4,-103.3 909.75,-76 898.86,-64.41 899.04,-45.91 901.41,-31.61"/>
<polygon fill="#63b8ff" stroke="#63b8ff" points="904.82,-32.39 903.51,-21.88 897.98,-30.91 904.82,-32.39"/>
</a>
</g>
</g>
<!-- Node9 -->
<g id="Node000009" class="node">
<title>Node9</title>
<g id="a_Node000009"><a xlink:title=" ">
<polygon fill="#e0e0e0" stroke="#999999" points="1117.5,-76 1070,-76 1070,-56 1117.5,-56 1117.5,-76"/>
<text xml:space="preserve" text-anchor="middle" x="1093.75" y="-62.5" font-family="Helvetica,sans-Serif" font-size="10.00">limits.h</text>
</a>
</g>
</g>
<!-- Node2&#45;&gt;Node9 -->
<g id="edge15_Node000002_Node000009" class="edge">
<title>Node2&#45;&gt;Node9</title>
<g id="a_edge15_Node000002_Node000009"><a xlink:title=" ">
<path fill="none" stroke="#63b8ff" d="M1287.33,-113.16C1249.96,-105 1189.86,-91.61 1128.86,-76.45"/>
<polygon fill="#63b8ff" stroke="#63b8ff" points="1129.89,-73.1 1119.34,-74.07 1128.19,-79.89 1129.89,-73.1"/>
</a>
</g>
</g>
<!-- Node16 -->
<g id="Node000016" class="node">
<title>Node16</title>
<g id="a_Node000016"><a xlink:title=" ">
<polygon fill="#e0e0e0" stroke="#999999" points="1181.75,-76 1135.75,-76 1135.75,-56 1181.75,-56 1181.75,-76"/>
<text xml:space="preserve" text-anchor="middle" x="1158.75" y="-62.5" font-family="Helvetica,sans-Serif" font-size="10.00">math.h</text>
</a>
</g>
</g>
<!-- Node2&#45;&gt;Node16 -->
<g id="edge16_Node000002_Node000016" class="edge">
<title>Node2&#45;&gt;Node16</title>
<g id="a_edge16_Node000002_Node000016"><a xlink:title=" ">
<path fill="none" stroke="#63b8ff" d="M1295.01,-111.59C1266.6,-102.3 1223.13,-88.07 1192.95,-78.19"/>
<polygon fill="#63b8ff" stroke="#63b8ff" points="1194.13,-74.9 1183.54,-75.11 1191.95,-81.55 1194.13,-74.9"/>
</a>
</g>
</g>
<!-- Node74 -->
<g id="Node000074" class="node">
<title>Node74</title>
<g id="a_Node000074"><a xlink:title=" ">
<polygon fill="#e0e0e0" stroke="#999999" points="1251.38,-76 1200.12,-76 1200.12,-56 1251.38,-56 1251.38,-76"/>
<text xml:space="preserve" text-anchor="middle" x="1225.75" y="-62.5" font-family="Helvetica,sans-Serif" font-size="10.00">stdarg.h</text>
</a>
</g>
</g>
<!-- Node2&#45;&gt;Node74 -->
<g id="edge17_Node000002_Node000074" class="edge">
<title>Node2&#45;&gt;Node74</title>
<g id="a_edge17_Node000002_Node000074"><a xlink:title=" ">
<path fill="none" stroke="#63b8ff" d="M1306.68,-111.59C1291.87,-103.44 1270.18,-91.48 1252.98,-82"/>
<polygon fill="#63b8ff" stroke="#63b8ff" points="1254.73,-78.97 1244.28,-77.21 1251.35,-85.1 1254.73,-78.97"/>
</a>
</g>
</g>
<!-- Node75 -->
<g id="Node000075" class="node">
<title>Node75</title>
<g id="a_Node000075"><a xlink:title=" ">
<polygon fill="#e0e0e0" stroke="#999999" points="1314.38,-76 1269.12,-76 1269.12,-56 1314.38,-56 1314.38,-76"/>
<text xml:space="preserve" text-anchor="middle" x="1291.75" y="-62.5" font-family="Helvetica,sans-Serif" font-size="10.00">stdio.h</text>
</a>
</g>
</g>
<!-- Node2&#45;&gt;Node75 -->
<g id="edge18_Node000002_Node000075" class="edge">
<title>Node2&#45;&gt;Node75</title>
<g id="a_edge18_Node000002_Node000075"><a xlink:title=" ">
<path fill="none" stroke="#63b8ff" d="M1318.18,-111.59C1314,-104.55 1308.15,-94.67 1303.01,-86"/>
<polygon fill="#63b8ff" stroke="#63b8ff" points="1306.14,-84.42 1298.03,-77.6 1300.12,-87.99 1306.14,-84.42"/>
</a>
</g>
</g>
<!-- Node76 -->
<g id="Node000076" class="node">
<title>Node76</title>
<g id="a_Node000076"><a xlink:title=" ">
<polygon fill="#e0e0e0" stroke="#999999" points="1376.5,-20 1329,-20 1329,0 1376.5,0 1376.5,-20"/>
<text xml:space="preserve" text-anchor="middle" x="1352.75" y="-6.5" font-family="Helvetica,sans-Serif" font-size="10.00">stdlib.h</text>
</a>
</g>
</g>
<!-- Node2&#45;&gt;Node76 -->
<g id="edge19_Node000002_Node000076" class="edge">
<title>Node2&#45;&gt;Node76</title>
<g id="a_edge19_Node000002_Node000076"><a xlink:title=" ">
<path fill="none" stroke="#63b8ff" d="M1360.18,-120.24C1552.25,-116.17 2439.26,-96.28 2458.75,-76 2464.91,-69.59 2464.91,-62.41 2458.75,-56 2420.84,-16.51 1574.05,-11.67 1388.48,-11.08"/>
<polygon fill="#63b8ff" stroke="#63b8ff" points="1388.51,-7.58 1378.5,-11.05 1388.49,-14.58 1388.51,-7.58"/>
</a>
</g>
</g>
<!-- Node77 -->
<g id="Node000077" class="node">
<title>Node77</title>
<g id="a_Node000077"><a xlink:title=" ">
<polygon fill="#e0e0e0" stroke="#999999" points="1380.88,-76 1332.62,-76 1332.62,-56 1380.88,-56 1380.88,-76"/>
<text xml:space="preserve" text-anchor="middle" x="1356.75" y="-62.5" font-family="Helvetica,sans-Serif" font-size="10.00">string.h</text>
</a>
</g>
</g>
<!-- Node2&#45;&gt;Node77 -->
<g id="edge20_Node000002_Node000077" class="edge">
<title>Node2&#45;&gt;Node77</title>
<g id="a_edge20_Node000002_Node000077"><a xlink:title=" ">
<path fill="none" stroke="#63b8ff" d="M1329.5,-111.59C1333.8,-104.55 1339.84,-94.67 1345.14,-86"/>
<polygon fill="#63b8ff" stroke="#63b8ff" points="1348.05,-87.95 1350.28,-77.59 1342.08,-84.3 1348.05,-87.95"/>
</a>
</g>
</g>
<!-- Node19 -->
<g id="Node000019" class="node">
<title>Node19</title>
<g id="a_Node000019"><a xlink:title=" ">
<polygon fill="#e0e0e0" stroke="#999999" points="1454.62,-76 1398.88,-76 1398.88,-56 1454.62,-56 1454.62,-76"/>
<text xml:space="preserve" text-anchor="middle" x="1426.75" y="-62.5" font-family="Helvetica,sans-Serif" font-size="10.00">algorithm</text>
</a>
</g>
</g>
<!-- Node2&#45;&gt;Node19 -->
<g id="edge21_Node000002_Node000019" class="edge">
<title>Node2&#45;&gt;Node19</title>
<g id="a_edge21_Node000002_Node000019"><a xlink:title=" ">
<path fill="none" stroke="#63b8ff" d="M1341.69,-111.59C1357.4,-103.36 1380.48,-91.26 1398.64,-81.74"/>
<polygon fill="#63b8ff" stroke="#63b8ff" points="1400.1,-84.93 1407.33,-77.18 1396.85,-78.73 1400.1,-84.93"/>
</a>
</g>
</g>
<!-- Node27 -->
<g id="Node000027" class="node">
<title>Node27</title>
<g id="a_Node000027"><a xlink:title=" ">
<polygon fill="#e0e0e0" stroke="#999999" points="2170.25,-20 2127.25,-20 2127.25,0 2170.25,0 2170.25,-20"/>
<text xml:space="preserve" text-anchor="middle" x="2148.75" y="-6.5" font-family="Helvetica,sans-Serif" font-size="10.00">cmath</text>
</a>
</g>
</g>
<!-- Node2&#45;&gt;Node27 -->
<g id="edge22_Node000002_Node000027" class="edge">
<title>Node2&#45;&gt;Node27</title>
<g id="a_edge22_Node000002_Node000027"><a xlink:title=" ">
<path fill="none" stroke="#63b8ff" d="M1360.06,-120.27C1553.5,-116.27 2454.95,-96.59 2474.75,-76 2480.91,-69.59 2480.59,-62.7 2474.75,-56 2436.89,-12.56 2256.3,-9.64 2181.41,-10.35"/>
<polygon fill="#63b8ff" stroke="#63b8ff" points="2181.8,-6.85 2171.85,-10.47 2181.89,-13.85 2181.8,-6.85"/>
</a>
</g>
</g>
<!-- Node26 -->
<g id="Node000026" class="node">
<title>Node26</title>
<g id="a_Node000026"><a xlink:title=" ">
<polygon fill="#e0e0e0" stroke="#999999" points="1517,-76 1472.5,-76 1472.5,-56 1517,-56 1517,-76"/>
<text xml:space="preserve" text-anchor="middle" x="1494.75" y="-62.5" font-family="Helvetica,sans-Serif" font-size="10.00">cstdlib</text>
</a>
</g>
</g>
<!-- Node2&#45;&gt;Node26 -->
<g id="edge23_Node000002_Node000026" class="edge">
<title>Node2&#45;&gt;Node26</title>
<g id="a_edge23_Node000002_Node000026"><a xlink:title=" ">
<path fill="none" stroke="#63b8ff" d="M1353.54,-111.59C1383.62,-102.09 1430,-87.45 1461.32,-77.56"/>
<polygon fill="#63b8ff" stroke="#63b8ff" points="1462.2,-80.95 1470.68,-74.6 1460.09,-74.27 1462.2,-80.95"/>
</a>
</g>
</g>
<!-- Node45 -->
<g id="Node000045" class="node">
<title>Node45</title>
<g id="a_Node000045"><a xlink:title=" ">
<polygon fill="#e0e0e0" stroke="#999999" points="1574.38,-76 1535.12,-76 1535.12,-56 1574.38,-56 1574.38,-76"/>
<text xml:space="preserve" text-anchor="middle" x="1554.75" y="-62.5" font-family="Helvetica,sans-Serif" font-size="10.00">limits</text>
</a>
</g>
</g>
<!-- Node2&#45;&gt;Node45 -->
<g id="edge24_Node000002_Node000045" class="edge">
<title>Node2&#45;&gt;Node45</title>
<g id="a_edge24_Node000002_Node000045"><a xlink:title=" ">
<path fill="none" stroke="#63b8ff" d="M1360.09,-113.84C1398.48,-106.07 1460.97,-92.84 1523.92,-76.31"/>
<polygon fill="#63b8ff" stroke="#63b8ff" points="1524.61,-79.75 1533.38,-73.8 1522.82,-72.98 1524.61,-79.75"/>
</a>
</g>
</g>
<!-- Node22 -->
<g id="Node000022" class="node">
<title>Node22</title>
<g id="a_Node000022"><a xlink:title=" ">
<polygon fill="#e0e0e0" stroke="#999999" points="1637.38,-76 1592.12,-76 1592.12,-56 1637.38,-56 1637.38,-76"/>
<text xml:space="preserve" text-anchor="middle" x="1614.75" y="-62.5" font-family="Helvetica,sans-Serif" font-size="10.00">cstring</text>
</a>
</g>
</g>
<!-- Node2&#45;&gt;Node22 -->
<g id="edge25_Node000002_Node000022" class="edge">
<title>Node2&#45;&gt;Node22</title>
<g id="a_edge25_Node000002_Node000022"><a xlink:title=" ">
<path fill="none" stroke="#63b8ff" d="M1360.18,-116C1408.58,-109.08 1496.92,-95.45 1580.8,-76.49"/>
<polygon fill="#63b8ff" stroke="#63b8ff" points="1581.36,-79.96 1590.33,-74.31 1579.8,-73.13 1581.36,-79.96"/>
</a>
</g>
</g>
<!-- Node78 -->
<g id="Node000078" class="node">
<title>Node78</title>
<g id="a_Node000078"><a xlink:title=" ">
<polygon fill="#e0e0e0" stroke="#999999" points="1703.88,-76 1655.62,-76 1655.62,-56 1703.88,-56 1703.88,-76"/>
<text xml:space="preserve" text-anchor="middle" x="1679.75" y="-62.5" font-family="Helvetica,sans-Serif" font-size="10.00">cassert</text>
</a>
</g>
</g>
<!-- Node2&#45;&gt;Node78 -->
<g id="edge26_Node000002_Node000078" class="edge">
<title>Node2&#45;&gt;Node78</title>
<g id="a_edge26_Node000002_Node000078"><a xlink:title=" ">
<path fill="none" stroke="#63b8ff" d="M1360.34,-117.44C1418.49,-111.46 1535.74,-98.04 1644.19,-76.3"/>
<polygon fill="#63b8ff" stroke="#63b8ff" points="1644.74,-79.76 1653.84,-74.34 1643.34,-72.9 1644.74,-79.76"/>
</a>
</g>
</g>
<!-- Node79 -->
<g id="Node000079" class="node">
<title>Node79</title>
<g id="a_Node000079"><a xlink:href="core_2include_2opencv2_2core_2hal_2hal_8hpp.html" target="_top" xlink:title=" ">
<polygon fill="#fff0f0" stroke="red" points="1847.12,-76 1722.38,-76 1722.38,-56 1847.12,-56 1847.12,-76"/>
<text xml:space="preserve" text-anchor="middle" x="1784.75" y="-62.5" font-family="Helvetica,sans-Serif" font-size="10.00">opencv2/core/hal/hal.hpp</text>
</a>
</g>
</g>
<!-- Node2&#45;&gt;Node79 -->
<g id="edge27_Node000002_Node000079" class="edge">
<title>Node2&#45;&gt;Node79</title>
<g id="a_edge27_Node000002_Node000079"><a xlink:title=" ">
<path fill="none" stroke="#63b8ff" d="M1360.23,-116.89C1427.26,-109.32 1574.79,-92.55 1710.51,-76.26"/>
<polygon fill="#63b8ff" stroke="#63b8ff" points="1710.91,-79.74 1720.42,-75.07 1710.08,-72.79 1710.91,-79.74"/>
</a>
</g>
</g>
<!-- Node80 -->
<g id="Node000080" class="node">
<title>Node80</title>
<g id="a_Node000080"><a xlink:href="intrin_8hpp.html" target="_top" xlink:title=" ">
<polygon fill="#fff0f0" stroke="red" points="1052.25,-76 919.25,-76 919.25,-56 1052.25,-56 1052.25,-76"/>
<text xml:space="preserve" text-anchor="middle" x="985.75" y="-62.5" font-family="Helvetica,sans-Serif" font-size="10.00">opencv2/core/hal/intrin.hpp</text>
</a>
</g>
</g>
<!-- Node2&#45;&gt;Node80 -->
<g id="edge28_Node000002_Node000080" class="edge">
<title>Node2&#45;&gt;Node80</title>
<g id="a_edge28_Node000002_Node000080"><a xlink:title=" ">
<path fill="none" stroke="#63b8ff" d="M1287.26,-115.17C1232.08,-106.36 1126.42,-89.47 1056,-78.22"/>
<polygon fill="#63b8ff" stroke="#63b8ff" points="1056.93,-74.83 1046.5,-76.71 1055.83,-81.74 1056.93,-74.83"/>
</a>
</g>
</g>
<!-- Node32 -->
<g id="Node000032" class="node">
<title>Node32</title>
<g id="a_Node000032"><a xlink:href="neon__utils_8hpp.html" target="_top" xlink:title=" ">
<polygon fill="#fff0f0" stroke="red" points="2006,-76 1865.5,-76 1865.5,-56 2006,-56 2006,-76"/>
<text xml:space="preserve" text-anchor="middle" x="1935.75" y="-62.5" font-family="Helvetica,sans-Serif" font-size="10.00">opencv2/core/neon_utils.hpp</text>
</a>
</g>
</g>
<!-- Node2&#45;&gt;Node32 -->
<g id="edge32_Node000002_Node000032" class="edge">
<title>Node2&#45;&gt;Node32</title>
<g id="a_edge32_Node000002_Node000032"><a xlink:title=" ">
<path fill="none" stroke="#63b8ff" d="M1360.22,-118.26C1444.82,-111.84 1661.2,-94.99 1853.9,-76.16"/>
<polygon fill="#63b8ff" stroke="#63b8ff" points="1853.97,-79.66 1863.58,-75.2 1853.29,-72.7 1853.97,-79.66"/>
</a>
</g>
</g>
<!-- Node33 -->
<g id="Node000033" class="node">
<title>Node33</title>
<g id="a_Node000033"><a xlink:href="vsx__utils_8hpp.html" target="_top" xlink:title=" ">
<polygon fill="#fff0f0" stroke="red" points="2159.38,-76 2024.12,-76 2024.12,-56 2159.38,-56 2159.38,-76"/>
<text xml:space="preserve" text-anchor="middle" x="2091.75" y="-62.5" font-family="Helvetica,sans-Serif" font-size="10.00">opencv2/core/vsx_utils.hpp</text>
</a>
</g>
</g>
<!-- Node2&#45;&gt;Node33 -->
<g id="edge33_Node000002_Node000033" class="edge">
<title>Node2&#45;&gt;Node33</title>
<g id="a_edge33_Node000002_Node000033"><a xlink:title=" ">
<path fill="none" stroke="#63b8ff" d="M1360.14,-119.29C1461.52,-114.38 1756.02,-99.18 2012.34,-76.17"/>
<polygon fill="#63b8ff" stroke="#63b8ff" points="2012.6,-79.66 2022.24,-75.28 2011.97,-72.69 2012.6,-79.66"/>
</a>
</g>
</g>
<!-- Node82 -->
<g id="Node000082" class="node">
<title>Node82</title>
<g id="a_Node000082"><a xlink:href="core_2src_2hal__replacement_8hpp.html" target="_top" xlink:title=" ">
<polygon fill="#fff0f0" stroke="red" points="2283.75,-76 2177.75,-76 2177.75,-56 2283.75,-56 2283.75,-76"/>
<text xml:space="preserve" text-anchor="middle" x="2230.75" y="-62.5" font-family="Helvetica,sans-Serif" font-size="10.00">hal_replacement.hpp</text>
</a>
</g>
</g>
<!-- Node2&#45;&gt;Node82 -->
<g id="edge34_Node000002_Node000082" class="edge">
<title>Node2&#45;&gt;Node82</title>
<g id="a_edge34_Node000002_Node000082"><a xlink:title=" ">
<path fill="none" stroke="#63b8ff" d="M1360.08,-120.25C1476.02,-117.59 1847.77,-107.15 2166.05,-76.18"/>
<polygon fill="#63b8ff" stroke="#63b8ff" points="2166.24,-79.68 2175.85,-75.21 2165.55,-72.71 2166.24,-79.68"/>
</a>
</g>
</g>
<!-- Node68&#45;&gt;Node4 -->
<g id="edge9_Node000068_Node000004" class="edge">
<title>Node68&#45;&gt;Node4</title>
<g id="a_edge9_Node000068_Node000004"><a xlink:title=" ">
<path fill="none" stroke="#63b8ff" d="M78.6,-55.59C92.22,-47.51 112.11,-35.71 128.01,-26.27"/>
<polygon fill="#63b8ff" stroke="#63b8ff" points="129.66,-29.37 136.47,-21.25 126.09,-23.35 129.66,-29.37"/>
</a>
</g>
</g>
<!-- Node70&#45;&gt;Node4 -->
<g id="edge11_Node000070_Node000004" class="edge">
<title>Node70&#45;&gt;Node4</title>
<g id="a_edge11_Node000070_Node000004"><a xlink:title=" ">
<path fill="none" stroke="#63b8ff" d="M674.65,-56.88C671.65,-56.58 668.67,-56.28 665.75,-56 491.48,-39.01 283.54,-21.62 195.95,-14.43"/>
<polygon fill="#63b8ff" stroke="#63b8ff" points="196.41,-10.96 186.15,-13.63 195.83,-17.94 196.41,-10.96"/>
</a>
</g>
</g>
<!-- Node70&#45;&gt;Node60 -->
<g id="edge12_Node000070_Node000060" class="edge">
<title>Node70&#45;&gt;Node60</title>
<g id="a_edge12_Node000070_Node000060"><a xlink:title=" ">
<path fill="none" stroke="#63b8ff" d="M753.41,-55.59C756.06,-48.78 759.74,-39.32 763.03,-30.86"/>
<polygon fill="#63b8ff" stroke="#63b8ff" points="766.22,-32.3 766.59,-21.71 759.7,-29.76 766.22,-32.3"/>
</a>
</g>
</g>
<!-- Node80&#45;&gt;Node73 -->
<g id="edge30_Node000080_Node000073" class="edge">
<title>Node80&#45;&gt;Node73</title>
<g id="a_edge30_Node000080_Node000073"><a xlink:title=" ">
<path fill="none" stroke="#63b8ff" d="M971.99,-55.59C960.39,-47.67 943.55,-36.16 929.89,-26.82"/>
<polygon fill="#63b8ff" stroke="#63b8ff" points="932.1,-24.09 921.87,-21.33 928.15,-29.87 932.1,-24.09"/>
</a>
</g>
</g>
<!-- Node80&#45;&gt;Node76 -->
<g id="edge31_Node000080_Node000076" class="edge">
<title>Node80&#45;&gt;Node76</title>
<g id="a_edge31_Node000080_Node000076"><a xlink:title=" ">
<path fill="none" stroke="#63b8ff" d="M1050.1,-55.53C1127.93,-44.08 1256.14,-25.21 1317.67,-16.16"/>
<polygon fill="#63b8ff" stroke="#63b8ff" points="1317.82,-19.68 1327.21,-14.76 1316.8,-12.75 1317.82,-19.68"/>
</a>
</g>
</g>
<!-- Node80&#45;&gt;Node27 -->
<g id="edge29_Node000080_Node000027" class="edge">
<title>Node80&#45;&gt;Node27</title>
<g id="a_edge29_Node000080_Node000027"><a xlink:title=" ">
<path fill="none" stroke="#63b8ff" d="M1052.38,-56.73C1055.21,-56.47 1058,-56.22 1060.75,-56 1476.02,-22.55 1982.57,-13.34 2115.52,-11.43"/>
<polygon fill="#63b8ff" stroke="#63b8ff" points="2115.4,-14.93 2125.36,-11.29 2115.31,-7.93 2115.4,-14.93"/>
</a>
</g>
</g>
<!-- Node86 -->
<g id="Node000086" class="node">
<title>Node86</title>
<g id="a_Node000086"><a xlink:href="ocl__genbase_8hpp.html" target="_top" xlink:title=" ">
<polygon fill="white" stroke="#666666" points="2695.25,-76 2544.25,-76 2544.25,-56 2695.25,-56 2695.25,-76"/>
<text xml:space="preserve" text-anchor="middle" x="2619.75" y="-62.5" font-family="Helvetica,sans-Serif" font-size="10.00">opencv2/core/ocl_genbase.hpp</text>
</a>
</g>
</g>
<!-- Node85&#45;&gt;Node86 -->
<g id="edge36_Node000085_Node000086" class="edge">
<title>Node85&#45;&gt;Node86</title>
<g id="a_edge36_Node000085_Node000086"><a xlink:title=" ">
<path fill="none" stroke="#63b8ff" d="M2080.96,-116.26C2173.7,-108.26 2366.64,-91.44 2529.75,-76 2530.78,-75.9 2531.81,-75.8 2532.85,-75.71"/>
<polygon fill="#63b8ff" stroke="#63b8ff" points="2533.01,-79.21 2542.63,-74.77 2532.34,-72.24 2533.01,-79.21"/>
</a>
</g>
</g>
</g>
</svg>

<g id="navigator" transform="translate(0 0)" fill="#404254">
  <rect fill="#f2f5e9" fill-opacity="0.5" stroke="#606060" stroke-width=".5" x="0" y="0" width="60" height="60"/>
  <use id="zoomplus" xlink:href="#zoomPlus" x="17" y="9" data-zoom="in"/>
  <use id="zoomminus" xlink:href="#zoomMin" x="42" y="9" data-zoom="out"/>
  <use id="reset" xlink:href="#resetDef" x="30" y="36" data-reset="true"/>
  <use id="arrowup" xlink:href="#arrowUp" x="0" y="0" data-pan-x="0" data-pan-y="-1"/>
  <use id="arrowright" xlink:href="#arrowRight" x="0" y="0" data-pan-x="1" data-pan-y="0"/>
  <use id="arrowdown" xlink:href="#arrowDown" x="0" y="0" data-pan-x="0" data-pan-y="1"/>
  <use id="arrowleft" xlink:href="#arrowLeft" x="0" y="0" data-pan-x="-1" data-pan-y="0"/>
</g>
<svg viewBox="0 0 15 15" width="100%" height="30px" preserveAspectRatio="xMaxYMin meet">
 <g id="arrow_out" transform="scale(0.3 0.3)">
  <a xlink:href="ocl_8cpp__incl_org.svg" target="_base">
   <rect id="button" ry="5" rx="5" y="6" x="6" height="38" width="38"
        fill="#f2f5e9" fill-opacity="0.5" stroke="#606060" stroke-width="1.0"/>
   <path id="arrow"
     d="M 11.500037,31.436501 C 11.940474,20.09759 22.043105,11.32322 32.158766,21.979434 L 37.068811,17.246167 C 37.068811,17.246167 37.088388,32 37.088388,32 L 22.160133,31.978069 C 22.160133,31.978069 26.997745,27.140456 26.997745,27.140456 C 18.528582,18.264221 13.291696,25.230495 11.500037,31.436501 z"
     style="fill:#404040;"/>
  </a>
 </g>
</svg>

<style type='text/css'>
<![CDATA[
[data-mouse-over-selected='false'] { opacity: 0.7; }
[data-mouse-over-selected='true']  { opacity: 1.0; }
]]>
</style>
</svg>
