<?xml version="1.0" encoding="UTF-8" standalone="no"?>
<!DOCTYPE svg PUBLIC "-//W3C//DTD SVG 1.1//EN"
 "http://www.w3.org/Graphics/SVG/1.1/DTD/svg11.dtd">
<!-- Generated by graphviz version 16.0.0 (20260814.1018)
 -->
<!-- Title: cv::segmentation::IntelligentScissorsMB::Impl Pages: 1 -->
<svg width="462pt" height="279pt"
 viewBox="0.00 0.00 462.00 279.00" xmlns="http://www.w3.org/2000/svg" xmlns:xlink="http://www.w3.org/1999/xlink">
<g id="graph0" class="graph" transform="scale(1 1) rotate(0) translate(4 275.18)">
<title>cv::segmentation::IntelligentScissorsMB::Impl</title>
<!-- Node1 -->
<g id="Node000001" class="node">
<title>Node1</title>
<g id="a_Node000001"><a xlink:title=" ">
<polygon fill="#999999" stroke="#666666" points="454,-124 315,-124 315,-92 454,-92 454,-124"/>
<text xml:space="preserve" text-anchor="start" x="323" y="-110.5" font-family="Helvetica,sans-Serif" font-size="10.00">cv::segmentation::Intelligent</text>
<text xml:space="preserve" text-anchor="middle" x="384.5" y="-98.5" font-family="Helvetica,sans-Serif" font-size="10.00">ScissorsMB::Impl</text>
</a>
</g>
</g>
<!-- Node2 -->
<g id="Node000002" class="node">
<title>Node2</title>
<g id="a_Node000002"><a xlink:href="classcv_1_1_mat__.html" target="_top" xlink:title=" ">
<polygon fill="white" stroke="#666666" points="188.25,-161 86,-161 86,-129 188.25,-129 188.25,-161"/>
<text xml:space="preserve" text-anchor="start" x="94" y="-147.5" font-family="Helvetica,sans-Serif" font-size="10.00">cv::Mat_&lt; cv::Point</text>
<text xml:space="preserve" text-anchor="middle" x="137.12" y="-135.5" font-family="Helvetica,sans-Serif" font-size="10.00">_&lt; float &gt; &gt;</text>
</a>
</g>
</g>
<!-- Node2&#45;&gt;Node1 -->
<g id="edge1_Node000001_Node000002" class="edge">
<title>Node2&#45;&gt;Node1</title>
<g id="a_edge1_Node000001_Node000002"><a xlink:title=" ">
<path fill="none" stroke="#9a32cd" stroke-dasharray="5,2" d="M199.8,-139.51C229.31,-136.5 265.09,-132.3 297,-127 302.76,-126.04 308.72,-124.95 314.69,-123.79"/>
<polygon fill="#9a32cd" stroke="#9a32cd" points="199.51,-136.02 189.9,-140.5 200.2,-142.99 199.51,-136.02"/>
</a>
</g>
<text xml:space="preserve" text-anchor="start" x="213.38" y="-144.04" font-family="Helvetica,sans-Serif" font-size="10.00" fill="grey">gradient_direction</text>
</g>
<!-- Node3 -->
<g id="Node000003" class="node">
<title>Node3</title>
<g id="a_Node000003"><a xlink:href="classcv_1_1_mat.html" target="_top" xlink:title="n&#45;dimensional dense array class">
<polygon fill="#fff0f0" stroke="red" points="49,-129 0,-129 0,-109 49,-109 49,-129"/>
<text xml:space="preserve" text-anchor="middle" x="24.5" y="-115.5" font-family="Helvetica,sans-Serif" font-size="10.00">cv::Mat</text>
</a>
</g>
</g>
<!-- Node3&#45;&gt;Node1 -->
<g id="edge8_Node000001_Node000003" class="edge">
<title>Node3&#45;&gt;Node1</title>
<g id="a_edge8_Node000001_Node000003"><a xlink:title=" ">
<path fill="none" stroke="#9a32cd" stroke-dasharray="5,2" d="M41.09,-137.61C52.22,-149.38 68.31,-163.54 86,-170 174.17,-202.2 207.79,-190.18 297,-161 321.61,-152.95 346.48,-136.67 363.19,-124.27"/>
<polygon fill="#9a32cd" stroke="#9a32cd" points="43.89,-135.49 34.61,-130.38 38.67,-140.16 43.89,-135.49"/>
</a>
</g>
<text xml:space="preserve" text-anchor="start" x="96.25" y="-258.43" font-family="Helvetica,sans-Serif" font-size="10.00" fill="grey">Ix_</text>
<text xml:space="preserve" text-anchor="start" x="96.25" y="-242.43" font-family="Helvetica,sans-Serif" font-size="10.00" fill="grey">Iy_</text>
<text xml:space="preserve" text-anchor="start" x="96.25" y="-226.43" font-family="Helvetica,sans-Serif" font-size="10.00" fill="grey">grayscale_</text>
<text xml:space="preserve" text-anchor="start" x="96.25" y="-210.43" font-family="Helvetica,sans-Serif" font-size="10.00" fill="grey">image_</text>
<text xml:space="preserve" text-anchor="start" x="96.25" y="-194.43" font-family="Helvetica,sans-Serif" font-size="10.00" fill="grey">image_magnitude_</text>
</g>
<!-- Node3&#45;&gt;Node2 -->
<g id="edge2_Node000002_Node000003" class="edge">
<title>Node3&#45;&gt;Node2</title>
<g id="a_edge2_Node000002_Node000003"><a xlink:title=" ">
<path fill="none" stroke="#63b8ff" d="M60.4,-127.2C68.41,-129.08 77.08,-131.12 85.6,-133.13"/>
<polygon fill="#63b8ff" stroke="#63b8ff" points="61.24,-123.8 50.71,-124.92 59.64,-130.62 61.24,-123.8"/>
</a>
</g>
</g>
<!-- Node8 -->
<g id="Node000008" class="node">
<title>Node8</title>
<g id="a_Node000008"><a xlink:href="classcv_1_1_mat__.html" target="_top" xlink:title=" ">
<polygon fill="white" stroke="#666666" points="182.62,-111 91.62,-111 91.62,-91 182.62,-91 182.62,-111"/>
<text xml:space="preserve" text-anchor="middle" x="137.12" y="-97.5" font-family="Helvetica,sans-Serif" font-size="10.00">cv::Mat_&lt; float &gt;</text>
</a>
</g>
</g>
<!-- Node3&#45;&gt;Node8 -->
<g id="edge4_Node000008_Node000003" class="edge">
<title>Node3&#45;&gt;Node8</title>
<g id="a_edge4_Node000008_Node000003"><a xlink:title=" ">
<path fill="none" stroke="#63b8ff" d="M60.28,-113.34C70.16,-111.73 81.07,-109.96 91.46,-108.27"/>
<polygon fill="#63b8ff" stroke="#63b8ff" points="60.03,-109.83 50.73,-114.9 61.16,-116.74 60.03,-109.83"/>
</a>
</g>
</g>
<!-- Node9 -->
<g id="Node000009" class="node">
<title>Node9</title>
<g id="a_Node000009"><a xlink:href="classcv_1_1_mat__.html" target="_top" xlink:title=" ">
<polygon fill="white" stroke="#666666" points="185.25,-69 89,-69 89,-49 185.25,-49 185.25,-69"/>
<text xml:space="preserve" text-anchor="middle" x="137.12" y="-55.5" font-family="Helvetica,sans-Serif" font-size="10.00">cv::Mat_&lt; uchar &gt;</text>
</a>
</g>
</g>
<!-- Node3&#45;&gt;Node9 -->
<g id="edge6_Node000009_Node000003" class="edge">
<title>Node3&#45;&gt;Node9</title>
<g id="a_edge6_Node000009_Node000003"><a xlink:title=" ">
<path fill="none" stroke="#63b8ff" d="M50.91,-102.54C61.58,-95.87 74.22,-88.27 86,-82 94.28,-77.59 103.57,-73.18 111.88,-69.43"/>
<polygon fill="#63b8ff" stroke="#63b8ff" points="49.23,-99.46 42.65,-107.77 52.97,-105.37 49.23,-99.46"/>
</a>
</g>
</g>
<!-- Node8&#45;&gt;Node1 -->
<g id="edge3_Node000001_Node000008" class="edge">
<title>Node8&#45;&gt;Node1</title>
<g id="a_edge3_Node000001_Node000008"><a xlink:title=" ">
<path fill="none" stroke="#9a32cd" stroke-dasharray="5,2" d="M194.05,-102.6C229.81,-103.62 276.46,-104.95 314.51,-106.03"/>
<polygon fill="#9a32cd" stroke="#9a32cd" points="194.45,-99.11 184.36,-102.32 194.25,-106.1 194.45,-99.11"/>
</a>
</g>
<text xml:space="preserve" text-anchor="start" x="209.25" y="-110.58" font-family="Helvetica,sans-Serif" font-size="10.00" fill="grey">gradient_magnitude</text>
</g>
<!-- Node9&#45;&gt;Node1 -->
<g id="edge5_Node000001_Node000009" class="edge">
<title>Node9&#45;&gt;Node1</title>
<g id="a_edge5_Node000001_Node000009"><a xlink:title=" ">
<path fill="none" stroke="#9a32cd" stroke-dasharray="5,2" d="M196.71,-55.37C227.08,-54.95 264.51,-56.72 297,-65 318.61,-70.51 341.12,-81.9 357.75,-91.57"/>
<polygon fill="#9a32cd" stroke="#9a32cd" points="196.87,-51.86 186.96,-55.6 197.04,-58.86 196.87,-51.86"/>
</a>
</g>
<text xml:space="preserve" text-anchor="start" x="213" y="-86.25" font-family="Helvetica,sans-Serif" font-size="10.00" fill="grey">non_edge_feature</text>
<text xml:space="preserve" text-anchor="start" x="213" y="-70.25" font-family="Helvetica,sans-Serif" font-size="10.00" fill="grey">optimalPathsMap</text>
</g>
<!-- Node10 -->
<g id="Node000010" class="node">
<title>Node10</title>
<g id="a_Node000010"><a xlink:href="classcv_1_1_size__.html" target="_top" xlink:title=" ">
<polygon fill="white" stroke="#666666" points="180,-20 94.25,-20 94.25,0 180,0 180,-20"/>
<text xml:space="preserve" text-anchor="middle" x="137.12" y="-6.5" font-family="Helvetica,sans-Serif" font-size="10.00">cv::Size_&lt; int &gt;</text>
</a>
</g>
</g>
<!-- Node10&#45;&gt;Node1 -->
<g id="edge7_Node000001_Node000010" class="edge">
<title>Node10&#45;&gt;Node1</title>
<g id="a_edge7_Node000001_Node000010"><a xlink:title=" ">
<path fill="none" stroke="#9a32cd" stroke-dasharray="5,2" d="M191.73,-10.28C223.58,-12.23 264.04,-17.92 297,-33 327,-46.73 354.47,-74.19 370.07,-91.8"/>
<polygon fill="#9a32cd" stroke="#9a32cd" points="192.09,-6.79 181.93,-9.79 191.75,-13.78 192.09,-6.79"/>
</a>
</g>
<text xml:space="preserve" text-anchor="start" x="233.25" y="-38.25" font-family="Helvetica,sans-Serif" font-size="10.00" fill="grey">src_size</text>
</g>
</g>
</svg>
