<?xml version="1.0" encoding="UTF-8" standalone="no"?>
<!DOCTYPE svg PUBLIC "-//W3C//DTD SVG 1.1//EN"
 "http://www.w3.org/Graphics/SVG/1.1/DTD/svg11.dtd">
<!-- Generated by graphviz version 16.0.0 (20260814.1018)
 -->
<!-- Title: C:/Users/YARADEYENISAIZAGUIRR/opencv/modules/video/include/opencv2/video.hpp Pages: 1 -->
<svg width="282pt" height="232pt"
 viewBox="0.00 0.00 282.00 232.00" xmlns="http://www.w3.org/2000/svg" xmlns:xlink="http://www.w3.org/1999/xlink">
<g id="graph0" class="graph" transform="scale(1 1) rotate(0) translate(4 228)">
<title>C:/Users/YARADEYENISAIZAGUIRR/opencv/modules/video/include/opencv2/video.hpp</title>
<!-- Node1 -->
<g id="Node000001" class="node">
<title>Node1</title>
<g id="a_Node000001"><a xlink:title=" ">
<polygon fill="#999999" stroke="#666666" points="210.04,-224 23.79,-224 23.79,-180 210.04,-180 210.04,-224"/>
<text xml:space="preserve" text-anchor="start" x="31.79" y="-210.5" font-family="Helvetica,sans-Serif" font-size="10.00">C:/Users/YARADEYENISAIZAGUIRR</text>
<text xml:space="preserve" text-anchor="start" x="31.79" y="-198.5" font-family="Helvetica,sans-Serif" font-size="10.00">/opencv/modules/video/include</text>
<text xml:space="preserve" text-anchor="middle" x="116.92" y="-186.5" font-family="Helvetica,sans-Serif" font-size="10.00">/opencv2/video.hpp</text>
</a>
</g>
</g>
<!-- Node2 -->
<g id="Node000002" class="node">
<title>Node2</title>
<g id="a_Node000002"><a xlink:href="tracking_8hpp.html" target="_top" xlink:title=" ">
<polygon fill="white" stroke="#666666" points="136.54,-144 1.29,-144 1.29,-124 136.54,-124 136.54,-144"/>
<text xml:space="preserve" text-anchor="middle" x="68.92" y="-130.5" font-family="Helvetica,sans-Serif" font-size="10.00">opencv2/video/tracking.hpp</text>
</a>
</g>
</g>
<!-- Node1&#45;&gt;Node2 -->
<g id="edge1_Node000001_Node000002" class="edge">
<title>Node1&#45;&gt;Node2</title>
<g id="a_edge1_Node000001_Node000002"><a xlink:title=" ">
<path fill="none" stroke="#63b8ff" d="M101.46,-179.75C95.31,-171.29 88.29,-161.64 82.35,-153.47"/>
<polygon fill="#63b8ff" stroke="#63b8ff" points="85.37,-151.67 76.66,-145.64 79.71,-155.79 85.37,-151.67"/>
</a>
</g>
</g>
<!-- Node60 -->
<g id="Node000060" class="node">
<title>Node60</title>
<g id="a_Node000060"><a xlink:href="background__segm_8hpp.html" target="_top" xlink:title=" ">
<polygon fill="white" stroke="#666666" points="274.04,-88 141.79,-88 141.79,-56 274.04,-56 274.04,-88"/>
<text xml:space="preserve" text-anchor="start" x="149.79" y="-74.5" font-family="Helvetica,sans-Serif" font-size="10.00">opencv2/video/background</text>
<text xml:space="preserve" text-anchor="middle" x="207.92" y="-62.5" font-family="Helvetica,sans-Serif" font-size="10.00">_segm.hpp</text>
</a>
</g>
</g>
<!-- Node1&#45;&gt;Node60 -->
<g id="edge5_Node000001_Node000060" class="edge">
<title>Node1&#45;&gt;Node60</title>
<g id="a_edge5_Node000001_Node000060"><a xlink:title=" ">
<path fill="none" stroke="#63b8ff" d="M132.15,-179.58C148.25,-156.93 173.59,-121.28 190.48,-97.52"/>
<polygon fill="#63b8ff" stroke="#63b8ff" points="193.11,-99.86 196.06,-89.68 187.41,-95.8 193.11,-99.86"/>
</a>
</g>
</g>
<!-- Node3 -->
<g id="Node000003" class="node">
<title>Node3</title>
<g id="a_Node000003"><a xlink:href="core_8hpp.html" target="_top" xlink:title=" ">
<polygon fill="#fff0f0" stroke="red" points="115.54,-20 22.29,-20 22.29,0 115.54,0 115.54,-20"/>
<text xml:space="preserve" text-anchor="middle" x="68.92" y="-6.5" font-family="Helvetica,sans-Serif" font-size="10.00">opencv2/core.hpp</text>
</a>
</g>
</g>
<!-- Node2&#45;&gt;Node3 -->
<g id="edge2_Node000002_Node000003" class="edge">
<title>Node2&#45;&gt;Node3</title>
<g id="a_edge2_Node000002_Node000003"><a xlink:title=" ">
<path fill="none" stroke="#63b8ff" d="M45.84,-123.57C31.22,-116.24 13.49,-104.51 4.92,-88 -1.64,-75.38 -1.64,-68.62 4.92,-56 11.62,-43.1 23.9,-33.12 35.93,-25.87"/>
<polygon fill="#63b8ff" stroke="#63b8ff" points="37.44,-29.04 44.52,-21.15 34.07,-22.9 37.44,-29.04"/>
</a>
</g>
</g>
<!-- Node59 -->
<g id="Node000059" class="node">
<title>Node59</title>
<g id="a_Node000059"><a xlink:href="imgproc_8hpp.html" target="_top" xlink:title=" ">
<polygon fill="white" stroke="#666666" points="123.42,-82 14.42,-82 14.42,-62 123.42,-62 123.42,-82"/>
<text xml:space="preserve" text-anchor="middle" x="68.92" y="-68.5" font-family="Helvetica,sans-Serif" font-size="10.00">opencv2/imgproc.hpp</text>
</a>
</g>
</g>
<!-- Node2&#45;&gt;Node59 -->
<g id="edge3_Node000002_Node000059" class="edge">
<title>Node2&#45;&gt;Node59</title>
<g id="a_edge3_Node000002_Node000059"><a xlink:title=" ">
<path fill="none" stroke="#63b8ff" d="M68.92,-123.62C68.92,-115.56 68.92,-103.65 68.92,-93.41"/>
<polygon fill="#63b8ff" stroke="#63b8ff" points="72.42,-93.63 68.92,-83.63 65.42,-93.63 72.42,-93.63"/>
</a>
</g>
</g>
<!-- Node59&#45;&gt;Node3 -->
<g id="edge4_Node000059_Node000003" class="edge">
<title>Node59&#45;&gt;Node3</title>
<g id="a_edge4_Node000059_Node000003"><a xlink:title=" ">
<path fill="none" stroke="#63b8ff" d="M68.92,-61.62C68.92,-53.56 68.92,-41.65 68.92,-31.41"/>
<polygon fill="#63b8ff" stroke="#63b8ff" points="72.42,-31.63 68.92,-21.63 65.42,-31.63 72.42,-31.63"/>
</a>
</g>
</g>
<!-- Node60&#45;&gt;Node3 -->
<g id="edge6_Node000060_Node000003" class="edge">
<title>Node60&#45;&gt;Node3</title>
<g id="a_edge6_Node000060_Node000003"><a xlink:title=" ">
<path fill="none" stroke="#63b8ff" d="M172.12,-55.55C150.2,-46.09 122.38,-34.08 101.15,-24.91"/>
<polygon fill="#63b8ff" stroke="#63b8ff" points="102.67,-21.76 92.1,-21.01 99.89,-28.18 102.67,-21.76"/>
</a>
</g>
</g>
</g>
</svg>
